<svg width="97" height="33" viewBox="0 0 97 33" fill="none" xmlns="http://www.w3.org/2000/svg">
<path d="M90.9565 0.908947C90.3167 0.90733 89.683 1.03207 89.0915 1.27601C88.5001 1.51996 87.9626 1.8783 87.51 2.33047L80.3249 9.51494L73.14 2.33047C72.2241 1.41984 70.985 0.908691 69.6935 0.908691C68.402 0.908691 67.1629 1.41984 66.247 2.33047L65.972 2.60505C65.0614 3.52096 64.5503 4.76 64.5503 6.05152C64.5503 7.34304 65.0614 8.58208 65.972 9.49799L73.1574 16.6834L65.972 23.8687C65.0614 24.7846 64.5502 26.0237 64.5502 27.3152C64.5502 28.6068 65.0614 29.8458 65.972 30.7617L66.2466 31.0365C67.1625 31.9471 68.4015 32.4582 69.6931 32.4582C70.9846 32.4582 72.2236 31.9471 73.1395 31.0365L80.3249 23.8511L87.5103 31.0365C88.4262 31.9471 89.6652 32.4582 90.9568 32.4582C92.2483 32.4582 93.4873 31.9471 94.4032 31.0365L94.6778 30.7617C95.5884 29.8458 96.0996 28.6068 96.0996 27.3152C96.0996 26.0237 95.5884 24.7846 94.6778 23.8687L87.4924 16.6834L94.6778 9.49799C95.5884 8.58208 96.0995 7.34304 96.0995 6.05152C96.0995 4.76 95.5884 3.52096 94.6778 2.60505L94.403 2.33047C93.9504 1.87832 93.413 1.52 92.8216 1.27606C92.2302 1.03211 91.5965 0.907359 90.9568 0.908947H90.9565Z" fill="white"/>
<path d="M91.2263 1.30953C91.7772 1.30706 92.3232 1.41391 92.8326 1.62389C93.342 1.83388 93.8047 2.14283 94.1938 2.53285L94.4756 2.81445C95.2591 3.60342 95.6987 4.67016 95.6987 5.78202C95.6987 6.89388 95.2591 7.96063 94.4756 8.7496L87.1081 16.1171C87.0337 16.1915 86.9748 16.2798 86.9345 16.3769C86.8943 16.4741 86.8735 16.5782 86.8735 16.6834C86.8735 16.7885 86.8943 16.8927 86.9345 16.9898C86.9748 17.087 87.0337 17.1752 87.1081 17.2496L94.4756 24.6171C95.2615 25.4049 95.7028 26.4721 95.7028 27.5848C95.7028 28.6975 95.2615 29.7648 94.4756 30.5525L94.1941 30.8341C93.4051 31.6177 92.3383 32.0575 91.2264 32.0575C90.1144 32.0575 89.0476 31.6177 88.2587 30.8341L80.8911 23.4666C80.8168 23.3922 80.7286 23.3332 80.6314 23.293C80.5343 23.2527 80.4302 23.232 80.325 23.232C80.2199 23.232 80.1158 23.2527 80.0186 23.293C79.9215 23.3332 79.8332 23.3922 79.7589 23.4666L72.3914 30.8341C71.6024 31.6176 70.5357 32.0574 69.4238 32.0574C68.3119 32.0574 67.2451 31.6176 66.4562 30.8341L66.1744 30.5523C65.3885 29.7646 64.9472 28.6974 64.9472 27.5847C64.9472 26.4721 65.3885 25.4048 66.1744 24.6171L73.5419 17.2496C73.6163 17.1752 73.6753 17.087 73.7155 16.9898C73.7558 16.8927 73.7765 16.7885 73.7765 16.6834C73.7765 16.5782 73.7558 16.4741 73.7155 16.3769C73.6753 16.2798 73.6163 16.1915 73.5419 16.1171L66.1744 8.7496C65.3908 7.96068 64.9511 6.89391 64.9511 5.78202C64.9511 4.67013 65.3908 3.60336 66.1744 2.81445L66.4564 2.53262C67.2454 1.74921 68.3121 1.30955 69.424 1.30955C70.5359 1.30955 71.6026 1.74921 72.3916 2.53262L79.7591 9.90016C79.8335 9.97452 79.9217 10.0335 80.0189 10.0738C80.116 10.114 80.2202 10.1347 80.3254 10.1347C80.4305 10.1347 80.5347 10.114 80.6318 10.0738C80.729 10.0335 80.8172 9.97452 80.8916 9.90016L88.2591 2.53262C88.6484 2.14265 89.1111 1.83376 89.6205 1.62381C90.1299 1.41387 90.6759 1.30705 91.2269 1.30953H91.2263ZM91.2269 0.508817C90.5709 0.507162 89.921 0.63508 89.3146 0.885229C88.7082 1.13538 88.1571 1.50283 87.693 1.9665L80.3255 9.33403L72.9579 1.9665C72.0188 1.03285 70.7484 0.508789 69.4242 0.508789C68.1 0.508789 66.8296 1.03285 65.8905 1.9665L65.6087 2.24832C64.675 3.18734 64.1508 4.45776 64.1508 5.78202C64.1508 7.10628 64.675 8.37671 65.6087 9.31573L72.9762 16.6833L65.6087 24.0508C64.6752 24.99 64.1511 26.2604 64.1511 27.5846C64.1511 28.9088 64.6752 30.1792 65.6087 31.1184L65.8903 31.4002C66.8295 32.3337 68.0999 32.8577 69.4241 32.8577C70.7483 32.8577 72.0187 32.3337 72.9579 31.4002L80.3255 24.0327L87.693 31.4002C88.6322 32.3337 89.9026 32.8577 91.2268 32.8577C92.551 32.8577 93.8214 32.3337 94.7606 31.4002L95.0422 31.1184C95.9758 30.1792 96.4998 28.9088 96.4998 27.5846C96.4998 26.2604 95.9758 24.99 95.0422 24.0508L87.6747 16.6833L95.0422 9.31573C95.9759 8.37665 96.4999 7.10624 96.4999 5.78202C96.4999 4.4578 95.9759 3.1874 95.0422 2.24832L94.7604 1.9665C94.2964 1.50286 93.7453 1.13542 93.1389 0.885271C92.5325 0.635122 91.8827 0.507192 91.2267 0.508817H91.2269Z" fill="#ED2024"/>
<path d="M56.6609 3.31934C56.6609 3.31934 54.3993 0.841498 51.2595 0.841498C49.9067 0.841498 48.3912 1.30141 46.8228 2.61762L46.8257 2.62259C46.5089 2.87325 46.2099 3.14563 45.931 3.43776L39.46 9.77972L32.9072 3.22713C32.541 2.77807 30.7509 0.776412 27.9255 0.776412C26.4994 0.776412 24.8108 1.28694 22.9095 2.76632V2.76791C22.6689 2.93016 22.4441 3.1148 22.2382 3.31934L10.0909 15.4669V5.0046C10.0873 3.78159 9.60011 2.60965 8.73552 1.74464C7.87093 0.879628 6.69921 0.391809 5.47621 0.387695H5.10806C3.88472 0.391332 2.71252 0.878928 1.84751 1.74399C0.982493 2.60904 0.49496 3.78126 0.491383 5.0046V26.9327C0.491383 26.9413 0.491383 26.9499 0.491383 26.9585C0.486099 27.5692 0.602404 28.1748 0.833539 28.7401C1.06467 29.3054 1.40601 29.819 1.83765 30.2511L2.09777 30.5114C2.96536 31.3739 4.13903 31.8581 5.36242 31.8581C6.58581 31.8581 7.75948 31.3739 8.62707 30.5114L15.8181 23.3202L21.2341 28.736L22.3381 29.8574C22.3381 29.8574 24.6004 32.5271 27.7474 32.5271C29.0247 32.5271 30.4472 32.0877 31.9243 30.8518C31.9437 30.8364 31.9632 30.821 31.9824 30.8052C31.9955 30.7939 32.0088 30.7846 32.0219 30.7733L32.0203 30.7706C32.1184 30.6879 32.2154 30.6036 32.3076 30.5114L39.4604 23.3586L45.9206 29.8189C46.1634 30.0603 46.4325 30.2737 46.7229 30.4551C47.6341 31.2619 49.4217 32.5259 51.6894 32.5259C53.1023 32.5259 54.7008 32.0344 56.3861 30.6334L56.5352 30.5132C56.5574 30.4945 56.5785 30.4744 56.5983 30.4531C56.6805 30.3819 56.7617 30.3094 56.8394 30.2316L66.189 20.1239C67.2835 19.0373 67.8137 17.8639 67.7642 16.6372C67.6923 14.8595 66.3955 13.6357 66.177 13.4416L56.6609 3.31934ZM32.6703 16.5691L27.6579 21.5815L22.6069 16.5307L27.6192 11.5183L32.6703 16.5691ZM51.6338 11.9005L56.3192 16.5856L51.3086 21.6288L46.2485 16.5689L51.2821 11.5355C51.3953 11.6562 51.512 11.7775 51.6338 11.9005Z" fill="#ED2024"/>
</svg>
