<svg width="178" height="77" viewBox="0 0 178 77" fill="none" xmlns="http://www.w3.org/2000/svg">
<g clip-path="url(#clip0_945_2125)">
<path d="M5.62421 0H172.457C172.465 0.255747 172.48 0.511494 172.48 0.767241C172.48 14.1638 172.48 27.5607 172.48 40.9579C172.48 41.8232 172.65 41.853 171.57 41.8505C157.733 41.8138 143.897 41.859 130.061 41.8121C116.165 41.7652 102.269 41.8027 88.3797 41.8309C61.0171 41.8877 33.6547 41.8939 6.29257 41.8496C5.55857 41.8496 5.54749 41.8385 5.54749 41.1207C5.54749 27.6383 5.54749 14.1559 5.54749 0.673468C5.54664 0.445853 5.53811 0.217385 5.62421 0ZM151.669 34.6111C153.063 34.6429 154.454 34.4895 155.807 34.155C160.537 32.9505 163.846 30.1662 165.302 25.4204C166.057 22.9584 166.075 20.4257 165.597 17.9125C164.699 13.1752 162.043 9.78574 157.488 8.13361C153.316 6.62044 149.063 6.73212 144.956 8.43028C141.272 9.95283 138.871 12.7268 137.81 16.5929C137.169 18.9296 137.134 21.3089 137.533 23.6882C138.215 27.7801 140.326 30.9019 143.977 32.9172C146.312 34.207 148.856 34.6427 151.669 34.6111ZM111.682 19.7539V10.4208C111.682 10.2648 111.682 10.108 111.689 9.95197C111.689 9.69623 111.808 9.55045 112.076 9.55216C113.835 9.55898 115.599 9.45497 117.342 9.8079C119.42 10.2341 120.837 11.4217 121.579 13.4139C121.687 13.7072 121.782 14.0047 121.883 14.3005C121.934 14.4472 122.012 14.5563 122.192 14.5213C122.372 14.4864 122.477 14.3935 122.478 14.2059C122.478 14.0925 122.472 13.9783 122.461 13.8649C122.385 12.9874 122.309 12.1105 122.231 11.2341C122.118 9.97584 122.004 8.71757 121.89 7.45929C121.879 7.33312 121.89 7.1882 121.741 7.13449C121.592 7.08079 121.501 7.1899 121.408 7.27515C121.246 7.41429 121.094 7.56288 120.95 7.72015C120.543 8.19755 120.048 8.35441 119.415 8.3527C113.249 8.33054 107.083 8.33224 100.916 8.35782C99.9736 8.36293 99.1799 8.25126 98.6437 7.40218C98.6263 7.37947 98.6062 7.35887 98.584 7.3408C98.4417 7.20099 98.3002 7.03219 98.0725 7.12853C97.8628 7.21377 97.8918 7.42945 97.8739 7.60933C97.7386 8.96593 97.6037 10.3222 97.469 11.6783C97.3931 12.4549 97.3258 13.2332 97.2473 14.0107C97.226 14.217 97.2473 14.3704 97.4869 14.4301C97.7537 14.4966 97.8458 14.3449 97.9131 14.1351C97.9634 13.9723 98.0222 13.8121 98.0751 13.6501C98.8602 11.2563 100.541 9.99886 103.02 9.69964C104.506 9.51976 105.996 9.54278 107.487 9.54193C108.068 9.54193 108.102 9.57858 108.102 10.1839C108.102 16.0945 108.099 22.0051 108.093 27.9157C108.093 28.8675 108.021 29.8179 107.876 30.7587C107.675 32.0434 106.957 32.8899 105.762 33.3699C104.966 33.6774 104.142 33.9041 103.301 34.0468C103.076 34.0885 102.888 34.1738 102.905 34.4543C102.924 34.7612 103.147 34.7654 103.367 34.7594C104.049 34.7407 104.731 34.7006 105.413 34.6989C109.064 34.6895 112.714 34.6307 116.364 34.7586C116.589 34.7663 116.844 34.7953 116.868 34.456C116.89 34.1448 116.669 34.0817 116.434 34.0382C115.764 33.9139 115.103 33.7462 114.454 33.5361C112.901 33.0315 111.998 32.011 111.867 30.3563C111.86 30.2711 111.85 30.1858 111.842 30.1006C111.725 28.827 111.697 27.5491 111.691 26.2712C111.675 24.1016 111.682 21.9278 111.682 19.7539ZM25.4097 18.54C25.4097 20.3583 25.4139 22.1767 25.4097 23.9959C25.4045 25.7009 25.3585 27.4016 25.1795 29.0989C24.9297 31.4637 24.0534 33.5131 22.2435 35.1141C21.4591 35.7954 20.6083 36.3963 19.7039 36.9077C19.5334 37.0075 19.3331 37.0859 19.4721 37.3587C19.594 37.5974 19.7577 37.6332 19.9972 37.5479C21.8539 36.8898 23.6254 36.0714 25.2051 34.8711C27.2101 33.3486 28.3934 31.3759 28.6423 28.8432C28.7949 27.2857 28.8554 25.7256 28.8614 24.1647C28.8793 19.3055 28.8708 14.4463 28.8682 9.58711C28.8712 9.00508 28.9283 8.4246 29.0387 7.85314C29.2834 6.56418 30.0191 5.71169 31.2791 5.31869C31.9162 5.1203 32.5703 4.98104 33.233 4.90267C33.4342 4.8788 33.6439 4.83192 33.6336 4.56168C33.6217 4.27012 33.4009 4.28376 33.1997 4.28376C32.603 4.28376 32.0062 4.28376 31.4095 4.29826C28.7114 4.36134 26.0132 4.37924 23.3108 4.30422C22.4311 4.2795 21.5496 4.28888 20.6681 4.28547C20.4865 4.28547 20.3169 4.31701 20.2998 4.54548C20.2828 4.77395 20.4328 4.83959 20.6178 4.86687C20.773 4.88903 20.9273 4.90864 21.0824 4.92569C21.7044 4.99047 22.3178 5.12019 22.9127 5.31272C24.038 5.68526 24.7609 6.43375 25.084 7.57779C25.3219 8.42005 25.3926 9.28277 25.396 10.1489C25.4156 12.9434 25.4046 15.7421 25.4054 18.54H25.4097ZM67.1877 7.78239C66.0104 7.79176 63.8945 7.75937 61.7786 7.69714C61.5612 7.69117 61.3336 7.68179 61.3242 8.00062C61.3149 8.31946 61.5305 8.3169 61.7505 8.34162C62.5147 8.40875 63.2696 8.55794 64.0019 8.78662C65.0846 9.14722 65.7384 9.86928 65.9942 10.9775C66.2137 11.9627 66.3195 12.9698 66.3096 13.9791C66.3266 18.5826 66.3266 23.186 66.3096 27.7895C66.3045 28.8662 66.2371 29.9446 65.9558 30.9991C65.6847 32.0178 65.0692 32.6879 64.0803 33.0451C63.325 33.3153 62.5416 33.4389 61.7488 33.5165C61.493 33.5412 61.2842 33.5753 61.3225 33.9001C61.3609 34.2249 61.6124 34.1508 61.8153 34.1457C62.2978 34.1337 62.7803 34.0988 63.2645 34.0988C66.9865 34.0988 70.7084 34.0178 74.4321 34.1533C74.6623 34.1619 74.8712 34.1457 74.8899 33.8464C74.9112 33.5208 74.6734 33.5412 74.4585 33.5208C73.7505 33.4628 73.05 33.3346 72.3674 33.138C71.1961 32.7876 70.497 32.0298 70.2208 30.8363C69.9813 29.8031 69.919 28.7537 69.9156 27.7051C69.8974 23.1875 69.8974 18.6693 69.9156 14.1505C69.9207 13.0312 69.9753 11.9093 70.2839 10.8155C70.5661 9.81813 71.1756 9.15319 72.1594 8.83095C72.4436 8.73774 72.7294 8.6542 73.017 8.58032C73.5413 8.44477 74.08 8.39788 74.6163 8.33821C74.8294 8.31434 74.9112 8.1984 74.9036 7.99721C74.8959 7.79603 74.7919 7.71589 74.606 7.71078C74.4782 7.71078 74.3503 7.7031 74.2224 7.71078C72.1892 7.78239 70.1577 7.77557 67.1877 7.78239Z" fill="white"/>
<path d="M0 69.9065C1.30602 69.9065 2.61288 69.9159 3.92146 69.9065C4.04805 69.9032 4.17368 69.9295 4.28836 69.9832C4.40304 70.0369 4.50363 70.1166 4.58214 70.216C5.65286 71.4095 6.72899 72.5993 7.81052 73.7854C7.91878 73.9047 7.99636 74.0718 8.23676 74.1119C8.23676 73.0087 8.31093 71.921 8.12082 70.8417C8.05092 70.4419 7.7372 70.2688 7.36381 70.1896C7.27174 70.1699 7.14131 70.1674 7.17285 70.0191C7.19417 69.9202 7.30073 69.915 7.38427 69.915C7.96652 69.915 8.54877 69.915 9.13103 69.921C9.21116 69.921 9.31346 69.933 9.32539 70.0395C9.32539 70.0753 9.26998 70.141 9.2265 70.1563C8.72439 70.3268 8.66386 70.759 8.6417 71.1912C8.57264 72.5109 8.60589 73.834 8.61783 75.1519C8.61783 75.2653 8.62806 75.3795 8.61783 75.4929C8.6076 75.6063 8.67068 75.781 8.53258 75.8407C8.39447 75.9004 8.31775 75.7367 8.24273 75.6472C7.11062 74.2969 5.87536 73.0411 4.70745 71.7257C4.63329 71.6405 4.57105 71.5476 4.51138 71.47C4.32809 71.5868 4.37328 71.713 4.37583 71.8161C4.398 72.7376 4.32042 73.66 4.43295 74.5807C4.48836 75.0334 4.71598 75.3053 5.15075 75.4221C5.26924 75.4537 5.46191 75.4699 5.44486 75.6114C5.42184 75.8041 5.21639 75.729 5.09022 75.7299C4.41505 75.7384 3.73988 75.7341 3.08516 75.7341C3.03146 75.5381 3.12864 75.5151 3.20622 75.4972C3.76716 75.3718 3.9547 74.9516 3.96834 74.4529C3.99648 73.3608 4.01523 72.2662 3.98539 71.1742C3.96238 70.3515 2.91211 69.8724 2.22159 70.3328C1.98204 70.4922 1.91128 70.7403 1.90958 70.9994C1.90105 72.2213 1.90105 73.4432 1.90958 74.6651C1.90958 75.0965 2.11247 75.3932 2.56514 75.481C2.65636 75.498 2.76889 75.4972 2.88227 75.7265C1.884 75.735 0.943707 75.7572 0 75.7077V75.5372C0.88318 75.3872 1.00338 75.2525 1.0085 74.3437C1.01418 73.3264 1.01418 72.3091 1.0085 71.2918C1.00253 70.4103 0.864425 70.2637 0.000852673 70.1674L0 69.9065Z" fill="white"/>
<path d="M178 70.158C177.512 70.2125 177.407 70.5723 177.343 70.9729C177.216 71.7632 177.268 72.5603 177.258 73.3539C177.258 74.0786 177.267 74.8032 177.271 75.5278C177.271 75.6369 177.333 75.7887 177.221 75.8432C177.071 75.914 177.009 75.7426 176.934 75.6548C175.786 74.3002 174.552 73.0215 173.365 71.7027C173.302 71.6186 173.247 71.5294 173.2 71.4358C173.012 71.6455 173.068 71.8084 173.068 71.955C173.068 72.7222 173.068 73.4895 173.079 74.2567C173.085 74.8305 173.255 75.2951 173.894 75.4357C173.988 75.4562 174.123 75.4911 174.115 75.6011C174.106 75.7597 173.945 75.7239 173.844 75.7239C173.144 75.7298 172.443 75.7239 171.679 75.7239C171.752 75.5977 171.765 75.5423 171.79 75.5363C172.522 75.3658 172.668 74.7972 172.678 74.1664C172.695 73.215 172.695 72.2628 172.688 71.3114C172.683 70.7061 172.46 70.4188 171.878 70.2031C171.779 70.1665 171.604 70.1886 171.622 70.0403C171.639 69.8698 171.817 69.921 171.934 69.9048C172.648 69.8076 173.182 70.0309 173.662 70.6174C174.562 71.7146 175.551 72.7393 176.505 73.7904C176.591 73.8816 176.668 74.0521 176.794 74.0095C176.958 73.9549 176.886 73.7623 176.886 73.6301C176.886 72.8629 176.887 72.0957 176.868 71.3284C176.851 70.6055 176.715 70.4333 176.032 70.1801C175.954 70.1511 175.839 70.146 175.848 70.0403C175.86 69.9124 175.987 69.9133 176.082 69.9116C176.721 69.9039 177.36 69.9022 177.999 69.8988L178 70.158Z" fill="white"/>
<path d="M89.9383 76.0447C89.3092 74.4608 88.6852 72.8752 88.0466 71.2955C87.8565 70.8249 87.6886 70.3203 87.1089 70.1626C87.0843 70.1522 87.0626 70.136 87.0457 70.1153C87.0287 70.0947 87.0171 70.0702 87.0117 70.0441C87.0117 69.9588 87.097 69.9307 87.1635 69.9307C87.8881 69.9239 88.6124 69.921 89.3365 69.9222C89.4217 69.9222 89.518 69.9443 89.507 70.0611C89.501 70.1464 89.4157 70.154 89.3501 70.1771C88.7593 70.3868 88.7107 70.4499 88.8881 71.0244C89.2504 72.2017 89.7653 73.3193 90.2077 74.4787C90.2853 74.4301 90.3211 74.4216 90.3288 74.4011C90.784 73.269 91.2989 72.1582 91.6314 70.9801C91.7729 70.4763 91.6629 70.322 91.1497 70.1933C91.0466 70.1677 90.8795 70.1933 90.8897 70.0432C90.8999 69.8932 91.0602 69.9188 91.1668 69.9179C91.7203 69.9128 92.2741 69.9128 92.8283 69.9179C92.9331 69.9179 93.084 69.8949 93.0985 70.05C93.1079 70.1771 92.9647 70.1736 92.876 70.2035C92.4566 70.3458 92.2639 70.6988 92.0985 71.0619C91.3577 72.691 90.7192 74.3619 90.1088 76.0447H89.9383Z" fill="white"/>
<path d="M88.996 66.2057H176.797C177.009 66.2057 177.223 66.2057 177.435 66.2168C177.557 66.221 177.658 66.2602 177.665 66.4111C177.672 66.562 177.58 66.614 177.461 66.6336C177.376 66.6476 177.291 66.6556 177.205 66.6575C177.02 66.6575 176.836 66.6575 176.651 66.6575H1.39408C1.13834 66.6575 0.882588 66.6532 0.626841 66.6387C0.492147 66.6311 0.371094 66.5825 0.371094 66.4128C0.371094 66.2432 0.503229 66.2125 0.639628 66.2091C0.838258 66.204 1.03689 66.2031 1.23637 66.2031L88.996 66.2057Z" fill="white"/>
<path d="M110.14 47.6237C111.602 47.6237 113.066 47.6356 114.529 47.6169C114.932 47.6126 115.058 47.7558 115.012 48.1429C114.927 48.8896 114.862 49.639 114.782 50.3866C114.768 50.5196 114.789 50.7046 114.588 50.7106C114.387 50.7165 114.405 50.5332 114.382 50.3986C114.382 50.3704 114.382 50.3414 114.374 50.3133C114.186 48.9834 113.647 48.4523 112.313 48.2861C111.423 48.1753 110.523 48.2008 109.633 48.1915C109.313 48.1915 109.211 48.3389 109.212 48.6348C109.217 50.2261 109.217 51.8174 109.212 53.4087C109.212 53.7062 109.315 53.858 109.638 53.8494C110.446 53.8264 111.258 53.8827 112.063 53.7727C113.052 53.6389 113.529 53.2322 113.768 52.2655C113.804 52.1231 113.78 51.91 114.013 51.9475C114.2 51.9774 114.176 52.1641 114.168 52.2979C114.082 53.6747 114.088 55.0514 114.09 56.4291C114.09 56.551 114.106 56.713 113.92 56.7172C113.733 56.7215 113.743 56.5638 113.718 56.441C113.48 55.2288 113.045 54.8392 111.752 54.7693C111.044 54.7309 110.332 54.7599 109.621 54.7556C109.395 54.7556 109.217 54.8136 109.22 55.0787C109.23 56.2722 109.151 57.4657 109.279 58.6549C109.374 59.5355 109.876 60.0351 110.729 60.2039C111.035 60.2644 111.343 60.3105 111.649 60.3744C111.789 60.4034 111.942 60.4426 111.914 60.6395C111.891 60.8143 111.744 60.8032 111.618 60.81C111.492 60.8168 111.391 60.8143 111.277 60.8143H105.779C105.651 60.8143 105.523 60.8143 105.395 60.8092C105.268 60.8041 105.164 60.7827 105.14 60.6387C105.116 60.4682 105.238 60.417 105.369 60.3906C105.605 60.3429 105.846 60.3164 106.08 60.261C106.856 60.0769 107.166 59.7495 107.279 58.9618C107.338 58.5687 107.37 58.1719 107.375 57.7743C107.383 55.4163 107.383 53.0578 107.375 50.6986C107.371 50.301 107.336 49.9043 107.272 49.512C107.136 48.6595 106.772 48.3321 105.833 48.1267C105.611 48.0781 105.212 48.1787 105.255 47.8087C105.292 47.4839 105.656 47.6382 105.869 47.6382C107.298 47.616 108.718 47.6237 110.14 47.6237Z" fill="white"/>
<path d="M66.7954 47.6484H69.3528C69.4799 47.6484 69.6086 47.6484 69.7356 47.6544C69.8626 47.6604 69.9914 47.7056 69.9914 47.8761C69.9914 48.0167 69.8942 48.0704 69.774 48.0968C69.525 48.1514 69.2744 48.2008 69.0255 48.2588C68.2795 48.4293 67.8942 48.9195 67.8081 49.6629C67.755 50.0854 67.7265 50.5107 67.7229 50.9365C67.728 53.465 67.7229 55.9935 67.7229 58.5237C67.7213 59.0492 67.682 59.574 67.6052 60.0939C67.4643 61.1486 66.9186 62.107 66.0835 62.7665C65.3498 63.3533 64.5219 63.8116 63.6352 64.122C63.4698 64.1816 63.2729 64.2984 63.1544 64.0529C63.0359 63.8074 63.2618 63.7579 63.3939 63.6812C65.0648 62.7068 65.832 61.2474 65.9011 59.325C66.0077 56.3566 65.9258 53.3883 65.9523 50.4207C65.9455 50.1224 65.9099 49.8255 65.8457 49.5341C65.7161 48.8564 65.3206 48.414 64.6386 48.2554C64.3905 48.1974 64.1381 48.1565 63.8867 48.1122C63.7213 48.0832 63.5107 48.096 63.5346 47.8471C63.5559 47.6314 63.7511 47.6527 63.902 47.6518C64.867 47.6518 65.8329 47.6518 66.8005 47.6518L66.7954 47.6484Z" fill="white"/>
<path d="M80.5174 60.8075C79.5668 60.8075 78.6155 60.8075 77.6649 60.8075C77.5098 60.8075 77.2805 60.8698 77.2643 60.6149C77.2481 60.36 77.4808 60.3779 77.6351 60.3591C79.271 60.1775 79.5438 59.6268 79.5788 58.0727C79.635 55.5153 79.5975 52.9638 79.589 50.408C79.5791 50.0964 79.5449 49.786 79.4867 49.4796C79.3776 48.8045 78.9906 48.3799 78.3145 48.2384C78.0511 48.1838 77.7851 48.1412 77.52 48.096C77.387 48.073 77.2583 48.0398 77.254 47.8761C77.2489 47.6817 77.3947 47.6527 77.5439 47.6425C77.6428 47.6357 77.7425 47.6357 77.8423 47.6357H83.207C83.278 47.6319 83.3491 47.6319 83.4201 47.6357C83.5821 47.6536 83.796 47.6135 83.7995 47.865C83.7995 48.0841 83.6136 48.0773 83.4585 48.1012C81.8839 48.3518 81.5608 48.6979 81.5037 50.2895C81.4082 52.9703 81.4102 55.6519 81.5097 58.3345C81.5139 58.5045 81.5301 58.674 81.5583 58.8417C81.7288 59.7897 82.1056 60.1537 83.0603 60.3131C83.2002 60.3361 83.3442 60.3378 83.4815 60.3685C83.6187 60.3992 83.8225 60.4009 83.7901 60.6319C83.7619 60.8322 83.5872 60.8024 83.4533 60.8024C82.8856 60.8067 82.3178 60.8024 81.7484 60.8024H80.5174V60.8075Z" fill="white"/>
<path d="M93.4895 54.2079C93.4528 52.832 93.527 51.4552 93.4247 50.0793C93.3275 48.7639 92.9856 48.359 91.6856 48.1339C91.6003 48.1194 91.5151 48.1152 91.4298 48.1032C91.2866 48.0828 91.1289 48.0666 91.1289 47.8739C91.1289 47.648 91.3122 47.6591 91.4656 47.6429C91.5219 47.6378 91.579 47.6429 91.6361 47.6429H97.1722C97.2285 47.6429 97.2856 47.6429 97.3427 47.6429C97.5004 47.6557 97.6837 47.6557 97.676 47.8773C97.676 48.0666 97.5141 48.0794 97.3717 48.1058C97.0793 48.1595 96.7843 48.2081 96.497 48.2823C95.937 48.4289 95.5934 48.7938 95.4741 49.3632C95.3868 49.7507 95.3388 50.146 95.3308 50.5431C95.3308 52.9991 95.3308 55.4551 95.3359 57.9103C95.3409 58.265 95.3763 58.6187 95.4417 58.9674C95.5968 59.8258 96.0316 60.1941 96.9975 60.3314C97.168 60.3552 97.3385 60.38 97.5013 60.4166C97.5262 60.4189 97.5505 60.4262 97.5725 60.4382C97.5945 60.4502 97.6139 60.4665 97.6293 60.4863C97.6448 60.506 97.6561 60.5286 97.6625 60.5529C97.669 60.5771 97.6704 60.6024 97.6667 60.6272C97.6659 60.6522 97.6601 60.6769 97.6497 60.6996C97.6392 60.7224 97.6242 60.7428 97.6057 60.7597C97.5871 60.7766 97.5654 60.7895 97.5418 60.7978C97.5181 60.8061 97.493 60.8095 97.468 60.8079C97.3555 60.8164 97.2413 60.8198 97.127 60.8198H91.6822C91.5833 60.8198 91.4835 60.8198 91.3847 60.8139C91.2704 60.8054 91.1511 60.7968 91.134 60.6434C91.1144 60.4729 91.2346 60.4251 91.365 60.3987C91.4955 60.3723 91.6208 60.3561 91.7436 60.3382C92.8876 60.1771 93.3164 59.7048 93.4136 58.5565C93.5329 57.103 93.4536 55.6546 93.4895 54.2079Z" fill="white"/>
<path d="M72.7628 74.1919C72.7628 73.0751 72.7807 72.0964 72.756 71.1229C72.7432 70.6353 72.484 70.296 71.9743 70.1937C71.8822 70.1758 71.7398 70.1732 71.7492 70.047C71.7611 69.897 71.9197 69.9166 72.0211 69.9158C73.0859 69.9158 74.1524 69.9158 75.2171 69.9158C75.4788 69.9158 75.6195 70.1025 75.7712 70.2696C76.8386 71.4494 77.9062 72.629 78.9741 73.8082C79.0661 73.9105 79.1335 74.0444 79.275 74.0896C79.3474 74.0589 79.3466 73.9983 79.3457 73.9429C79.3457 73.0623 79.3534 72.1817 79.3321 71.3002C79.3168 70.6276 79.142 70.4102 78.5401 70.1996C78.4498 70.1681 78.3057 70.1775 78.3108 70.0547C78.3168 69.8996 78.4736 69.9209 78.5768 69.9192C79.1309 69.9141 79.685 69.9192 80.2383 69.9192C80.3235 69.9192 80.4318 69.9192 80.4591 70.0121C80.5026 70.1536 80.367 70.1596 80.2792 70.1911C79.986 70.296 79.8845 70.5423 79.8274 70.8143C79.7565 71.1624 79.7233 71.5171 79.7285 71.8722C79.7342 73.0799 79.7342 74.2876 79.7285 75.4953C79.7285 75.6147 79.7907 75.786 79.6492 75.8363C79.5077 75.8866 79.4404 75.7195 79.3628 75.6275C78.2776 74.3334 77.102 73.116 75.969 71.8612C75.8693 71.7503 75.7781 71.5398 75.6229 71.5909C75.4524 71.6463 75.5317 71.8654 75.5317 72.012C75.5317 72.7793 75.5462 73.5465 75.5505 74.3138C75.5505 74.867 75.7388 75.2839 76.3305 75.4263C76.4336 75.451 76.5922 75.4757 76.5751 75.613C76.5581 75.7502 76.3953 75.7212 76.2904 75.7221C75.5888 75.7263 74.8864 75.7221 74.1779 75.7221C74.1774 75.6699 74.1828 75.6179 74.1941 75.5669C74.9699 75.3802 75.1378 74.7852 75.1489 74.1092C75.166 73.1433 75.1779 72.1766 75.1489 71.2107C75.1293 70.5142 74.5061 70.0607 73.8148 70.1749C73.455 70.2346 73.3263 70.4946 73.2675 70.7998C73.2002 71.1341 73.1657 71.4741 73.1643 71.8151C73.1711 73.037 73.1711 74.2589 73.1643 75.4808C73.1643 75.601 73.2257 75.7732 73.0902 75.8278C72.9546 75.8824 72.8847 75.7093 72.8046 75.6198C71.66 74.3564 70.5168 73.0921 69.375 71.827C69.2838 71.7265 69.2002 71.5389 69.0562 71.5841C68.8959 71.6352 68.9709 71.833 68.9709 71.9652C68.9709 72.7179 68.9846 73.4715 68.9829 74.2243C68.9829 74.821 69.1482 75.2899 69.8072 75.4356C69.8976 75.4553 70.0289 75.4885 70.0161 75.6061C70.0033 75.7238 69.8652 75.7144 69.7723 75.7144C68.1241 75.7144 66.476 75.7124 64.8278 75.7084C64.7766 75.7004 64.7268 75.6846 64.6803 75.6616C64.6633 75.4911 64.7895 75.4911 64.8739 75.4774C65.3939 75.3981 65.5951 75.0512 65.5993 74.578C65.6113 73.3988 65.6113 72.2198 65.5993 71.0411C65.5934 70.5867 65.4024 70.244 64.8952 70.1758C64.8014 70.163 64.659 70.1579 64.6684 70.0334C64.6786 69.8859 64.8338 69.8987 64.9395 69.8987C66.1748 69.8987 67.4117 69.8987 68.647 69.8987C68.9087 69.8987 69.0519 70.0777 69.2045 70.2465L72.4065 73.7869L72.7628 74.1919ZM66.4979 72.8185C66.4979 73.3868 66.4979 73.9552 66.4979 74.5235C66.4979 74.5942 66.5072 74.665 66.5106 74.7357C66.5243 74.9719 66.5874 75.1842 66.7928 75.3282C67.4748 75.8065 68.3998 75.4322 68.5183 74.6147C68.6845 73.457 68.5779 72.2908 68.5848 71.1289C68.578 71.0155 68.549 70.9046 68.4995 70.8024C68.2992 70.336 67.7595 70.0931 67.1713 70.1962C66.6803 70.2815 66.5226 70.4844 66.5047 71.1169C66.4859 71.6821 66.4987 72.2507 66.4979 72.8185Z" fill="white"/>
<path d="M140.185 71.5143C140.193 72.5995 140.099 73.6882 140.284 74.7691C140.35 75.1553 140.642 75.325 140.99 75.4264C141.101 75.4579 141.284 75.4665 141.246 75.637C141.218 75.7691 141.055 75.7222 140.949 75.7222C140.352 75.7273 139.755 75.7273 139.158 75.7222C139.053 75.7222 138.926 75.7563 138.856 75.6122C138.879 75.5824 138.898 75.527 138.927 75.527C139.652 75.3701 139.78 74.8305 139.794 74.2039C139.809 73.3088 139.841 72.4137 139.849 71.5211C139.856 70.7164 139.486 70.2424 138.833 70.1861C138.376 70.1461 138.137 70.3208 138.042 70.7667C137.975 71.1298 137.944 71.4988 137.95 71.8681C137.943 72.5066 137.95 73.1468 137.884 73.7828C137.737 75.1152 137.135 75.7384 135.803 75.8757C135.363 75.9189 134.919 75.8734 134.498 75.7418C133.786 75.5242 133.385 75.0445 133.294 74.3028C133.168 73.2687 133.257 72.2313 133.23 71.1963C133.21 70.4683 133.211 70.4598 132.52 70.1819C132.442 70.1503 132.332 70.135 132.349 70.0301C132.366 69.9253 132.474 69.9202 132.558 69.9193C133.339 69.9159 134.12 69.9159 134.901 69.9193C134.986 69.9193 135.099 69.9338 135.108 70.0301C135.121 70.1648 134.99 70.1597 134.897 70.1844C134.255 70.3549 134.122 70.4964 134.113 71.1478C134.1 72.0565 134.097 72.9661 134.118 73.8757C134.139 74.7521 134.645 75.267 135.515 75.3497C136.829 75.475 137.428 74.9507 137.492 73.6379C137.539 72.8429 137.539 72.0459 137.492 71.2509C137.443 70.5689 137.278 70.3515 136.624 70.1827C136.533 70.1589 136.395 70.1759 136.4 70.0404C136.406 69.9048 136.539 69.9142 136.634 69.9142C137.728 69.9142 138.822 69.9142 139.914 69.9142C140.159 69.9142 140.287 70.0941 140.43 70.2552C141.534 71.4777 142.638 72.6996 143.744 73.9209C143.809 73.9917 143.884 74.053 144 74.1596C144.085 73.7478 144.044 73.383 144.041 73.0232C144.041 72.4128 144.064 71.8042 144 71.1929C143.942 70.6448 143.717 70.2816 143.148 70.1836C143.063 70.1691 142.968 70.1452 142.977 70.037C142.987 70.0121 143.003 69.9901 143.023 69.973C143.044 69.9558 143.068 69.9441 143.094 69.9389C143.776 69.9193 144.466 69.8682 145.176 70.0148C144.388 70.3609 144.436 71.0455 144.431 71.6925C144.421 72.9559 144.431 74.2201 144.431 75.4844C144.431 75.6063 144.486 75.7785 144.358 75.8364C144.187 75.9106 144.121 75.7205 144.037 75.6208C142.915 74.2807 141.686 73.0369 140.531 71.7266C140.461 71.6368 140.398 71.5419 140.342 71.4427L140.185 71.5143Z" fill="white"/>
<path d="M61.1476 71.9274C61.4597 71.9274 61.7717 71.9274 62.0854 71.9274C62.1655 71.9274 62.2755 71.9155 62.2959 72.0229C62.3207 72.1448 62.2013 72.1508 62.1254 72.1644C61.1877 72.3349 60.7009 73.0289 60.2235 73.7467C60.0923 73.9436 60.1127 74.0876 60.2508 74.2803C60.7521 74.9734 61.3292 75.4951 62.2721 75.3348C62.348 75.3221 62.4647 75.2973 62.4895 75.4056C62.521 75.5394 62.3863 75.559 62.3019 75.5923C61.7397 75.8021 61.1341 75.8686 60.5398 75.7858C60.1988 75.7474 60.1136 75.4397 59.9661 75.2061C59.6345 74.6878 59.637 74.6861 59.1989 75.1209C58.9342 75.4001 58.604 75.6088 58.2381 75.7278C57.568 75.9231 56.9594 75.8131 56.4922 75.276C56.025 74.739 55.9619 74.132 56.2407 73.4858C56.4099 73.107 56.6823 72.7835 57.0267 72.5523C57.2663 72.3818 57.3166 72.2335 57.0889 72.0178C56.9884 71.9164 56.9024 71.8017 56.8332 71.6768C56.4624 71.0511 56.6687 70.3427 57.32 70.0196C57.7045 69.8254 58.1463 69.777 58.5637 69.8832C58.99 69.9863 59.3259 70.2122 59.4239 70.6683C59.5219 71.1244 59.3387 71.4961 58.961 71.7765C58.4248 72.1712 58.4325 72.1704 58.8817 72.6495C59.1528 72.9393 59.4171 73.2377 59.6652 73.5472C59.822 73.7415 59.926 73.7296 60.0377 73.5199C60.1494 73.3102 60.2559 73.1218 60.3616 72.9231C60.5321 72.6043 60.5739 72.3264 60.1306 72.1951C60.0573 72.1738 59.9507 72.138 59.9891 72.0246C60.0224 71.9274 60.1264 71.9351 60.2082 71.9343C60.5202 71.9343 60.8322 71.9343 61.1459 71.9343L61.1476 71.9274ZM58.1835 75.0816C58.5399 75.1004 58.8655 74.9461 59.1596 74.7023C59.3301 74.5591 59.3676 74.4167 59.2142 74.2326C58.7634 73.6846 58.2812 73.1631 57.7701 72.6708C57.6311 72.5378 57.5143 72.5387 57.3609 72.6563C56.9542 72.9734 56.7514 73.7151 56.9346 74.253C57.1085 74.7671 57.5749 75.0851 58.1835 75.0859V75.0816ZM57.3899 70.8192C57.3899 71.1602 57.7735 71.7169 58.0761 71.8183C58.1155 71.8317 58.1578 71.8344 58.1986 71.826C58.2393 71.8176 58.2771 71.7985 58.308 71.7706C58.6396 71.5285 58.7897 70.9181 58.6064 70.5438C58.4444 70.2131 58.1673 70.1176 57.8306 70.1901C57.4939 70.2625 57.3856 70.508 57.3899 70.8226V70.8192Z" fill="white"/>
<path d="M147.027 75.7265C146.601 75.7265 146.175 75.7265 145.748 75.7265C145.668 75.7265 145.558 75.7419 145.535 75.6361C145.509 75.5159 145.62 75.5023 145.7 75.4904C146.382 75.3923 146.499 74.8987 146.501 74.3352C146.501 73.3123 146.507 72.2893 146.501 71.2663C146.501 70.7548 146.4 70.291 145.777 70.1862C145.692 70.1717 145.596 70.1401 145.607 70.0327C145.618 69.9253 145.72 69.9083 145.803 69.9083C147.021 69.9083 148.25 69.7378 149.446 70.0915C150.97 70.5391 151.723 71.6593 151.589 73.2381C151.477 74.556 150.356 75.5543 148.81 75.7231C148.218 75.7922 147.62 75.7933 147.027 75.7265ZM150.533 72.9883C150.533 71.3686 149.463 70.2603 147.838 70.1802C147.471 70.1623 147.326 70.2782 147.332 70.6576C147.348 71.8511 147.332 73.0446 147.343 74.2381C147.351 74.4648 147.381 74.6903 147.435 74.9107C147.457 75.0314 147.516 75.1424 147.603 75.2288C147.69 75.3151 147.801 75.3725 147.922 75.3932C148.706 75.5364 149.423 75.4315 149.973 74.776C150.408 74.256 150.55 73.6515 150.533 72.9883Z" fill="white"/>
<path d="M165.363 72.8114C165.363 71.0084 166.601 69.7987 168.445 69.8047C170.221 69.8115 171.438 71.0493 171.45 72.86C171.461 74.6451 170.187 75.8847 168.361 75.8659C166.563 75.8472 165.366 74.6272 165.363 72.8114ZM166.426 72.681C166.406 73.4142 166.547 74.0842 166.958 74.6784C167.79 75.8804 169.456 75.7866 170.072 74.4661C170.624 73.2837 170.556 72.0792 169.824 70.9837C168.997 69.7442 167.336 69.9045 166.697 71.2539C166.491 71.7003 166.398 72.1904 166.426 72.681Z" fill="white"/>
<path d="M105.855 72.8072C105.855 71.0169 107.075 69.8064 108.892 69.8047C110.709 69.803 111.923 71.0314 111.937 72.8634C111.951 74.6255 110.706 75.8471 108.884 75.8659C107.078 75.8821 105.855 74.6477 105.855 72.8072ZM106.915 72.6537C106.898 73.5062 107.056 74.2538 107.597 74.8762C108.428 75.8284 109.825 75.7022 110.483 74.6204C111.141 73.5386 110.982 71.6912 110.132 70.7467C109.957 70.5446 109.738 70.3857 109.492 70.2822C109.245 70.1787 108.978 70.1334 108.712 70.1499C108.445 70.1664 108.186 70.2442 107.954 70.3773C107.722 70.5104 107.524 70.6951 107.375 70.9172C107.008 71.456 106.89 72.0604 106.916 72.6537H106.915Z" fill="white"/>
<path d="M80.9609 72.8311C80.9609 71.017 82.1544 69.8158 83.9762 69.8048C85.798 69.7937 87.0051 71.0119 87.0273 72.8618C87.0486 74.6256 85.7869 75.866 83.9728 75.866C82.1587 75.866 80.9643 74.6546 80.9609 72.8311ZM82.0172 72.7083C81.9933 73.433 82.1271 74.1329 82.5849 74.739C83.4587 75.8949 85.0716 75.7577 85.6718 74.4398C86.2072 73.265 86.1321 72.0784 85.4161 70.994C84.59 69.7476 82.9438 69.8968 82.2883 71.2446C82.0632 71.7041 82.0044 72.1909 82.0172 72.7083Z" fill="white"/>
<path d="M131.997 72.8771C131.997 74.675 130.764 75.8855 128.952 75.8659C127.141 75.8463 125.969 74.6545 125.969 72.8157C125.969 70.9956 127.157 69.8098 128.988 69.8047C130.8 69.8004 131.997 71.0221 131.997 72.8771ZM128.916 70.1738C128.274 70.1508 127.808 70.4389 127.461 70.9325C126.722 71.9777 126.858 73.9751 127.727 74.9171C128.57 75.8275 129.952 75.6792 130.582 74.611C131.223 73.5216 131.093 71.8132 130.3 70.8371C129.94 70.3946 129.486 70.1397 128.916 70.1738Z" fill="white"/>
<path d="M46.7672 72.8771C46.7672 74.6477 45.566 75.842 43.7511 75.865C41.9361 75.8881 40.7196 74.6639 40.7188 72.814C40.7188 71.005 41.9216 69.8072 43.7434 69.8047C45.5652 69.8021 46.7629 71.0272 46.7672 72.8771ZM45.7536 72.9717C45.7195 72.1746 45.5532 71.4253 45.0247 70.7961C44.8528 70.5814 44.6324 70.4105 44.3816 70.2976C44.1308 70.1847 43.8568 70.133 43.5821 70.1467C43.3074 70.1605 43.0399 70.2393 42.8016 70.3766C42.5633 70.514 42.361 70.706 42.2115 70.9368C41.5286 71.9487 41.6139 73.8498 42.3811 74.796C43.2685 75.8864 44.8013 75.7159 45.4279 74.455C45.6598 73.9879 45.7297 73.4832 45.7536 72.9717Z" fill="white"/>
<path d="M25.1383 72.6719C25.2875 72.735 25.4418 72.7972 25.5944 72.8654C26.3352 73.1954 26.7027 73.7589 26.6072 74.4178C26.51 75.0998 25.9439 75.6267 25.1631 75.7111C24.1716 75.8193 23.1768 75.7111 22.1794 75.7264C22.1001 75.7264 21.985 75.7383 21.9645 75.636C21.9364 75.4945 22.0805 75.4988 22.1623 75.4655C22.8579 75.1893 22.9057 75.1245 22.9074 74.3778C22.9074 73.2832 22.9014 72.1894 22.9074 71.0957C22.9074 70.6311 22.7752 70.2858 22.2672 70.1912C22.1725 70.1733 22.0404 70.1588 22.0609 70.0275C22.0796 69.9124 22.2083 69.9056 22.3064 69.9048C23.2143 69.8971 24.1256 69.8195 25.0241 70.0113C25.8118 70.1818 26.1946 70.5501 26.2517 71.1733C26.3063 71.77 26.007 72.1886 25.2961 72.5279C25.2432 72.5568 25.1639 72.5577 25.1383 72.6719ZM25.6498 74.3437C25.6536 74.1488 25.617 73.9553 25.5424 73.7753C25.4677 73.5952 25.3567 73.4326 25.2162 73.2975C25.0757 73.1625 24.9088 73.0579 24.7259 72.9905C24.5431 72.923 24.3483 72.8941 24.1537 72.9055C23.9073 72.9166 23.782 73.0232 23.7837 73.2644C23.7837 73.8151 23.7914 74.3667 23.8119 74.9174C23.809 75.0322 23.846 75.1444 23.9166 75.235C23.9871 75.3256 24.0869 75.389 24.1989 75.4144C24.9857 75.6352 25.6464 75.1493 25.6524 74.3437H25.6498ZM23.782 71.3736C23.782 71.6703 23.782 71.9703 23.782 72.2644C23.782 72.4349 23.8383 72.6012 24.0378 72.5833C24.464 72.5449 24.8903 72.4571 25.1673 72.0871C25.4231 71.7419 25.4444 71.3514 25.2824 70.9601C25.1204 70.5688 24.5203 70.1929 24.0821 70.1989C23.8571 70.1989 23.7846 70.3327 23.7812 70.5254C23.7812 70.8075 23.7854 71.0906 23.7846 71.3736H23.782Z" fill="white"/>
<path d="M117.379 74.0893C117.353 73.0143 117.447 71.9581 117.303 70.9036C117.244 70.4773 116.941 70.2847 116.553 70.1917C116.461 70.1696 116.323 70.1653 116.337 70.0366C116.351 69.9079 116.483 69.9172 116.578 69.9164C117.146 69.9164 117.714 69.9164 118.283 69.9164C118.368 69.9164 118.471 69.9249 118.495 70.0221C118.518 70.1193 118.423 70.1602 118.341 70.1841C118.021 70.2796 117.907 70.5413 117.86 70.8286C117.802 71.1495 117.769 71.4744 117.761 71.8004C117.751 73.022 117.761 74.2428 117.756 75.4661C117.756 75.5957 117.833 75.7866 117.666 75.8403C117.538 75.8804 117.468 75.7065 117.386 75.6144C116.249 74.3613 115.116 73.1075 113.987 71.8533C113.923 71.7776 113.854 71.7061 113.78 71.6393C113.646 71.5216 113.566 71.5822 113.567 71.7365C113.572 72.7288 113.502 73.7245 113.631 74.7134C113.683 75.1157 113.965 75.3161 114.334 75.426C114.444 75.4593 114.629 75.4644 114.599 75.6332C114.575 75.7696 114.41 75.7278 114.305 75.7287C113.694 75.7338 113.084 75.7338 112.473 75.7287C112.381 75.7287 112.247 75.7636 112.218 75.6434C112.181 75.4951 112.334 75.5062 112.416 75.4832C112.86 75.3621 113.061 75.0569 113.115 74.6196C113.259 73.4449 113.193 72.2659 113.166 71.0894C113.155 70.6137 112.799 70.3452 112.355 70.2097C112.253 70.179 112.086 70.1858 112.112 70.0323C112.134 69.8985 112.291 69.9266 112.4 69.9121C113.108 69.8218 113.65 70.0093 114.136 70.6061C115.041 71.7143 116.043 72.7475 117.008 73.8089C117.097 73.9052 117.163 74.0424 117.379 74.0893Z" fill="white"/>
<path d="M52.2083 74.0803C52.2083 73.1041 52.2279 72.1272 52.2006 71.1511C52.1869 70.6524 51.9346 70.2892 51.4001 70.192C51.3055 70.175 51.1691 70.1562 51.1963 70.0284C51.2194 69.9209 51.3532 69.9201 51.4521 69.9201C52.0056 69.9167 52.5595 69.9167 53.1136 69.9201C53.2074 69.9201 53.3352 69.9124 53.3531 70.0403C53.3685 70.1469 53.2551 70.1631 53.1767 70.1886C52.8988 70.279 52.7845 70.5023 52.724 70.7607C52.6558 71.0512 52.6215 71.3488 52.6217 71.6472C52.6257 72.9396 52.6257 74.2323 52.6217 75.5252C52.6217 75.6343 52.666 75.7869 52.5535 75.8381C52.4018 75.908 52.3421 75.7366 52.262 75.6488C51.1327 74.3923 50.0023 73.1351 48.8708 71.8774C48.7488 71.7419 48.6321 71.6004 48.5229 71.4733C48.4471 71.516 48.4053 71.5279 48.4044 71.5424C48.326 72.5927 48.3874 73.6412 48.4752 74.6872C48.511 75.1075 48.8162 75.3189 49.2041 75.4246C49.3098 75.4545 49.4743 75.4817 49.4598 75.6054C49.4411 75.7759 49.2595 75.7239 49.1436 75.7256C48.4539 75.7315 47.7642 75.7256 47.0925 75.7256C47.0456 75.5337 47.1359 75.5107 47.2186 75.492C47.748 75.3692 47.9236 74.9899 47.9859 74.4946C48.1154 73.417 48.0447 72.3378 48.0438 71.2594C48.0438 70.718 47.7463 70.3583 47.2161 70.204C47.1155 70.175 46.9475 70.1844 46.9663 70.0335C46.9833 69.8937 47.1368 69.9192 47.2485 69.9082C47.9305 69.8366 48.4701 69.9704 48.9534 70.568C49.9014 71.735 50.9568 72.8143 51.9653 73.9328C52.0166 74.0016 52.0606 74.0756 52.0966 74.1536L52.2083 74.0803Z" fill="white"/>
<path d="M16.1926 72.327C16.1926 71.9008 16.1807 71.4745 16.1926 71.0483C16.2088 70.5803 16.017 70.2896 15.5498 70.1958C15.4569 70.1762 15.3145 70.1779 15.3205 70.0543C15.3273 69.9017 15.4825 69.9196 15.5873 69.9188C16.3261 69.9125 17.065 69.9125 17.8038 69.9188C17.9095 69.9188 18.0595 69.8991 18.0723 70.0526C18.0809 70.1847 17.9368 70.1668 17.8456 70.1898C17.242 70.3416 17.086 70.5129 17.0783 71.1276C17.0664 72.0355 17.0613 72.9442 17.0783 73.8556C17.0954 74.7669 17.6094 75.2767 18.4952 75.3585C19.7739 75.4761 20.3383 74.9979 20.4559 73.7191C20.5403 72.8571 20.536 71.9887 20.4431 71.1276C20.3775 70.553 20.1874 70.3339 19.623 70.1984C19.519 70.1736 19.3519 70.1984 19.3673 70.0466C19.3792 69.9085 19.5378 69.9264 19.6486 69.9256C20.2308 69.9205 20.8131 69.9256 21.3945 69.9256C21.4908 69.9256 21.6178 69.9119 21.6502 70.0245C21.6963 70.166 21.559 70.1745 21.4712 70.2043C21.1413 70.3169 21.045 70.5794 20.9896 70.8923C20.8796 71.541 20.912 72.194 20.9103 72.8462C20.9056 73.3146 20.8657 73.7819 20.7909 74.2443C20.7541 74.4981 20.6646 74.7414 20.5284 74.9587C19.8276 76.0669 17.5225 76.2485 16.6572 75.2605C16.4181 74.9758 16.2765 74.6221 16.2531 74.2511C16.1917 73.6041 16.1969 72.9656 16.1926 72.327Z" fill="white"/>
<path d="M153.814 75.5713C153.766 75.7222 153.689 75.7247 153.622 75.7256C153.041 75.729 152.459 75.729 151.877 75.7256C151.797 75.7256 151.691 75.7392 151.661 75.6403C151.632 75.5414 151.736 75.492 151.808 75.4698C152.212 75.3573 152.392 75.0436 152.523 74.6872C153.061 73.2227 153.61 71.7623 154.123 70.2892C154.221 70.0122 154.408 69.863 154.615 69.7411C154.876 69.5842 154.88 69.8707 154.928 69.9968C155.333 71.1051 155.724 72.2133 156.122 73.3216C156.292 73.7887 156.458 74.2593 156.633 74.7196C156.769 75.0734 156.956 75.3854 157.361 75.4869C157.438 75.5065 157.547 75.5218 157.514 75.6429C157.491 75.7239 157.402 75.7213 157.335 75.7213C156.696 75.7213 156.058 75.7213 155.419 75.7213C155.351 75.7213 155.265 75.7213 155.239 75.6429C155.199 75.5244 155.308 75.5005 155.38 75.4724C155.762 75.3266 155.776 75.0316 155.7 74.7C155.406 73.4094 154.987 73.1314 153.672 73.3437C153.512 73.3693 153.407 73.4383 153.362 73.5901C153.254 73.9567 153.121 74.319 153.052 74.6932C152.956 75.2098 153.061 75.3385 153.563 75.4852C153.648 75.5142 153.724 75.5423 153.814 75.5713ZM154.375 70.9772H154.274C154.158 71.3029 154.036 71.6268 153.924 71.9542C153.603 72.8919 153.401 72.903 154.638 72.8859C154.68 72.8859 154.723 72.8859 154.765 72.8791C154.95 72.8646 155.02 72.764 154.959 72.5918C154.767 72.0539 154.569 71.516 154.375 70.9772Z" fill="white"/>
<path d="M98.0064 75.5725C97.9451 75.743 97.8359 75.7251 97.7396 75.726C97.1576 75.7294 96.5757 75.7294 95.9937 75.726C95.8999 75.726 95.7712 75.7567 95.7311 75.6407C95.6817 75.5001 95.83 75.4856 95.9085 75.4532C96.2495 75.3134 96.2793 75.0389 96.1983 74.7456C96.0926 74.3637 95.9485 73.992 95.8241 73.6152C95.8036 73.5316 95.7537 73.4582 95.6836 73.4083C95.6135 73.3583 95.5278 73.3353 95.4421 73.3433C95.0449 73.3433 94.6476 73.3484 94.2487 73.3433C94.0347 73.3433 93.8949 73.4285 93.8343 73.6331C93.7346 73.9741 93.6161 74.3083 93.5419 74.6561C93.4226 75.2128 93.5036 75.3279 94.0398 75.4856C94.125 75.5111 94.2452 75.4907 94.287 75.6134C94.2751 75.7055 94.2018 75.7217 94.1319 75.7217C93.5505 75.7257 92.9685 75.7274 92.386 75.7268C92.293 75.7268 92.1626 75.7473 92.1456 75.6143C92.1328 75.5154 92.2419 75.4779 92.3161 75.4566C92.7056 75.3483 92.8727 75.044 92.9981 74.7004C93.5385 73.2214 94.0875 71.7448 94.611 70.2598C94.7082 69.9836 94.9145 69.8438 95.1225 69.7261C95.3305 69.6085 95.3612 69.8566 95.408 69.9819C95.6877 70.7406 95.957 71.5036 96.229 72.2649C96.4387 72.8531 96.6416 73.4439 96.8581 74.0295C97.0968 74.6587 97.2187 75.3696 98.0064 75.5725ZM94.8667 70.9691L94.7644 70.9742C94.6493 71.2871 94.5257 71.5965 94.4234 71.9119C94.0961 72.8966 93.871 72.9017 95.1813 72.8787C95.2239 72.8777 95.2663 72.8737 95.3083 72.8667C95.4515 72.8446 95.5044 72.7516 95.46 72.6229C95.2648 72.0748 95.067 71.5241 94.8667 70.9733V70.9691Z" fill="white"/>
<path d="M32.8434 75.6769H30.5741C30.5801 75.6181 30.5741 75.5772 30.586 75.5678C31.1828 75.1689 31.2007 75.1416 30.9518 74.4323C30.4897 73.1237 30.8 73.3701 29.448 73.3471C28.7702 73.336 28.766 73.3471 28.5699 73.989C28.5153 74.1655 28.4616 74.3419 28.419 74.521C28.2485 75.22 28.3099 75.3189 29.0013 75.509C29.0565 75.5284 29.1103 75.5514 29.1624 75.578C29.1334 75.6318 29.1189 75.6914 29.0967 75.694C28.4471 75.7673 27.795 75.7221 27.1445 75.7179C27.1177 75.7158 27.0918 75.7076 27.0686 75.6941C27.0454 75.6805 27.0256 75.6618 27.0107 75.6394C26.9706 75.5542 27.0516 75.5047 27.1138 75.4885C27.6543 75.3496 27.7958 74.8918 27.9553 74.4485C28.4667 73.0362 28.976 71.6219 29.4829 70.2057C29.5741 69.9499 29.7915 69.8271 29.9944 69.7231C30.2109 69.6098 30.2254 69.8715 30.2706 69.9942C30.6517 71.0334 31.0208 72.076 31.3925 73.1186C31.4931 73.3991 31.5817 73.6838 31.6909 73.9609C31.9466 74.6037 32.0378 75.3624 32.8997 75.5806L32.8434 75.6769ZM29.7156 70.9882H29.6048C29.4931 71.3054 29.3798 71.6216 29.2689 71.9396C28.9279 72.9242 29.0405 73.0479 30.0993 72.8884C30.3167 72.8543 30.3627 72.7546 30.2962 72.5713C30.1078 72.0368 29.9092 71.5134 29.7156 70.9848V70.9882Z" fill="white"/>
<path d="M124.961 71.7518V73.8881C124.889 73.8719 124.844 73.8728 124.838 73.8591C124.696 73.5301 124.432 73.2686 124.102 73.1283C123.772 72.9881 123.4 72.9799 123.064 73.1055C123.003 73.1256 122.951 73.1662 122.916 73.2203C122.881 73.2745 122.866 73.339 122.873 73.403C122.873 73.8293 122.862 74.2555 122.891 74.6818C122.919 75.108 123.142 75.3638 123.573 75.4354C123.664 75.4406 123.753 75.465 123.834 75.5068C123.916 75.5487 123.987 75.6071 124.045 75.6783H121.125C121.135 75.536 121.21 75.5078 121.275 75.5019C121.787 75.4311 122.003 75.1182 122.016 74.6264C122.05 73.3919 122.086 72.1541 121.994 70.9248C121.964 70.5216 121.786 70.2556 121.368 70.184C121.272 70.167 121.143 70.1474 121.156 70.0221C121.168 69.8967 121.299 69.8984 121.395 69.8984C122.631 69.8984 123.866 69.8999 125.102 69.9027C125.152 69.8973 125.202 69.9059 125.247 69.9276C125.292 69.9493 125.331 69.9832 125.358 70.0255C125.407 70.1107 125.338 71.126 125.272 71.1993C125.151 71.334 125.092 71.2266 125.072 71.1286C125.006 70.8157 124.934 70.5029 124.596 70.3733C124.12 70.19 123.619 70.2309 123.123 70.2607C122.957 70.271 122.878 70.3963 122.877 70.5566C122.873 71.1391 122.873 71.7213 122.877 72.3033C122.877 72.4636 122.947 72.594 123.117 72.6008C123.513 72.6162 123.908 72.652 124.302 72.5471C124.662 72.4482 124.72 72.0919 124.961 71.7518Z" fill="white"/>
<path d="M13.0994 69.7989C13.6115 69.7878 14.1207 69.8776 14.5981 70.0632C14.8402 70.1484 14.9681 70.2976 14.9527 70.5704C14.9374 70.8432 14.9527 71.1373 14.9442 71.4229C14.9442 71.4903 14.9484 71.5806 14.8658 71.6011C14.7473 71.6309 14.7387 71.5158 14.7072 71.4468C14.6901 71.4076 14.6782 71.3666 14.6646 71.3266C14.2221 70.0692 12.8675 69.6821 11.8147 70.5133C10.4192 71.6113 10.5402 74.2293 12.0346 75.196C13.0687 75.8661 14.1497 75.5711 14.7626 74.4654C14.8589 74.2949 14.9118 73.9267 15.1036 74.0094C15.3261 74.1048 15.0993 74.4066 15.0746 74.618C14.9808 75.4117 14.4779 75.7314 13.7319 75.8328C13.1849 75.9197 12.6261 75.8997 12.0866 75.774C10.5675 75.3913 9.64766 74.1219 9.80196 72.6249C9.96308 71.0342 11.1659 69.885 12.7592 69.7998C12.8726 69.7938 12.986 69.7989 13.0994 69.7989Z" fill="white"/>
<path d="M35.2226 72.6567C35.2226 73.267 35.2132 73.8774 35.2226 74.4878C35.2337 75.0846 35.3471 75.2235 35.8935 75.4256C36.0018 75.4673 36.1876 75.4656 36.1637 75.6276C36.1433 75.7623 35.9753 75.7205 35.8705 75.7214C35.1175 75.7265 34.365 75.7265 33.6131 75.7214C33.5099 75.7214 33.3522 75.7648 33.3369 75.6063C33.3249 75.4886 33.4699 75.4801 33.5577 75.446C34.2397 75.1783 34.3207 75.0735 34.3249 74.3565C34.3317 73.1494 34.3207 71.9431 34.3334 70.736C34.3377 70.3865 34.2115 70.2501 33.8595 70.2654C33.203 70.2944 32.6046 70.3967 32.3506 71.123C32.3233 71.1998 32.2917 71.3003 32.1801 71.2645C32.0948 71.239 32.1033 71.1512 32.1084 71.083C32.14 70.6874 32.1707 70.2919 32.2116 69.8972C32.2278 69.7394 32.3207 69.6499 32.4725 69.759C32.6881 69.9142 32.9302 69.892 33.1689 69.8929C34.2624 69.8929 35.3559 69.8929 36.4493 69.8929C36.6198 69.8929 36.8048 69.9278 36.9489 69.829C37.2362 69.6329 37.3197 69.7684 37.3427 70.0387C37.3709 70.3797 37.399 70.7207 37.422 71.0565C37.4271 71.1418 37.4314 71.2449 37.3282 71.2697C37.2251 71.2944 37.1816 71.1955 37.1577 71.1196C36.902 70.3882 36.3053 70.2876 35.6488 70.2671C35.3385 70.2578 35.2107 70.3865 35.2149 70.6934C35.2226 71.3464 35.2149 71.9994 35.2149 72.6541L35.2226 72.6567Z" fill="white"/>
<path d="M100.361 72.6448C100.361 73.2416 100.355 73.8383 100.361 74.4351C100.371 75.0736 100.482 75.2168 101.076 75.4342C101.177 75.4717 101.35 75.4768 101.341 75.6047C101.328 75.7854 101.144 75.724 101.031 75.7249C100.278 75.7311 99.5251 75.7311 98.7715 75.7249C98.6683 75.7249 98.5081 75.7743 98.4833 75.626C98.4586 75.4777 98.6308 75.4811 98.7263 75.4461C99.3588 75.2134 99.4577 75.0966 99.4637 74.4231C99.4748 73.2015 99.4637 71.979 99.4773 70.7574C99.4773 70.3866 99.3435 70.2459 98.9744 70.2672C98.3342 70.303 97.7485 70.4062 97.5047 71.1197C97.4791 71.193 97.4382 71.2902 97.3248 71.2519C97.2464 71.2237 97.2396 71.1376 97.2498 71.0703C97.283 70.6739 97.3137 70.2775 97.3632 69.8836C97.3836 69.7216 97.4928 69.6662 97.6377 69.7754C97.8244 69.9143 98.0418 69.8947 98.2532 69.8956C99.3614 69.8956 100.47 69.8956 101.578 69.8956C101.733 69.8956 101.919 69.9194 102.038 69.8478C102.436 69.6091 102.487 69.8129 102.496 70.1487C102.504 70.4318 102.548 70.7139 102.567 71.0012C102.573 71.0942 102.603 71.2229 102.482 71.2638C102.346 71.3107 102.316 71.17 102.29 71.0882C102.051 70.3585 101.284 70.2613 100.664 70.28C100.388 70.2877 100.349 70.4718 100.353 70.6892C100.353 70.7182 100.353 70.7463 100.353 70.7745V72.6499L100.361 72.6448Z" fill="white"/>
<path d="M158.006 75.6419C158.016 75.5962 158.04 75.5548 158.075 75.5241C158.11 75.4933 158.154 75.4748 158.2 75.4714C158.825 75.3477 158.998 74.9368 158.989 74.3495C158.97 73.156 158.979 71.9625 158.989 70.769C158.993 70.4041 158.86 70.2524 158.488 70.2754C157.868 70.3129 157.289 70.3999 157.039 71.087C157.007 71.1722 156.978 71.3018 156.842 71.2575C156.743 71.226 156.756 71.1185 156.761 71.0375C156.791 70.6701 156.821 70.3019 156.867 69.9361C156.892 69.7375 156.993 69.6557 157.184 69.7989C157.344 69.9182 157.535 69.9003 157.718 69.9003C158.854 69.9003 159.99 69.9003 161.128 69.9003C161.282 69.9003 161.469 69.9148 161.585 69.8415C161.938 69.625 161.993 69.7929 162.006 70.1032C162.019 70.428 162.059 70.7528 162.079 71.0785C162.084 71.1595 162.079 71.266 161.969 71.2754C161.891 71.2822 161.854 71.1995 161.83 71.1339C161.552 70.3743 160.924 70.2763 160.236 70.2814C159.99 70.2814 159.87 70.3854 159.871 70.6369C159.871 71.9574 159.871 73.2796 159.882 74.5975C159.882 75.0519 160.125 75.3341 160.576 75.4432C160.683 75.4696 160.882 75.4688 160.848 75.6384C160.818 75.7944 160.633 75.7331 160.517 75.7339C159.807 75.7407 159.097 75.739 158.385 75.7339C158.264 75.7314 158.13 75.7612 158.006 75.6419Z" fill="white"/>
<path d="M105.45 75.6937H102.702C102.702 75.484 102.847 75.495 102.939 75.4797C103.45 75.3944 103.621 75.0415 103.621 74.594C103.635 73.4164 103.635 72.2388 103.621 71.0612C103.616 70.5847 103.407 70.2437 102.883 70.1832C102.797 70.1738 102.691 70.1576 102.688 70.0553C102.688 69.918 102.818 69.9172 102.907 69.9163C103.687 69.9112 104.467 69.9163 105.248 69.9163C105.333 69.9163 105.436 69.9359 105.445 70.0374C105.455 70.1388 105.352 70.1559 105.275 70.184C104.588 70.4202 104.531 70.479 104.523 71.207C104.511 72.2988 104.511 73.3911 104.523 74.484C104.532 75.2035 104.602 75.2768 105.29 75.5027C105.357 75.5249 105.429 75.5334 105.45 75.6937Z" fill="white"/>
<path d="M164.943 75.6812H162.215C162.225 75.5362 162.3 75.5277 162.366 75.5047C163.044 75.2643 163.138 75.1449 163.143 74.4348C163.15 73.3715 163.15 72.3081 163.143 71.2448C163.143 70.527 163.064 70.4324 162.376 70.1826C162.29 70.1528 162.188 70.134 162.205 70.0309C162.222 69.9277 162.328 69.9175 162.413 69.9175C163.193 69.9129 163.973 69.9129 164.752 69.9175C164.837 69.9175 164.942 69.9277 164.961 70.0257C164.989 70.169 164.859 70.1638 164.768 70.1962C164.133 70.3983 164.05 70.4912 164.042 71.1553C164.03 72.2613 164.03 73.3672 164.042 74.4732C164.048 75.2055 164.115 75.2771 164.832 75.5183C164.881 75.5396 164.927 75.5659 164.97 75.5968L164.943 75.6812Z" fill="white"/>
<path d="M40.3724 75.6256C40.2215 75.6844 40.1729 75.7194 40.1234 75.7202C39.3278 75.7253 38.5321 75.7276 37.7365 75.7271C37.658 75.7271 37.5455 75.7441 37.5302 75.6324C37.5148 75.5207 37.6282 75.5071 37.7058 75.4977C38.2701 75.4295 38.4611 75.0621 38.473 74.5506C38.502 73.3571 38.5318 72.1636 38.4551 70.9753C38.427 70.532 38.2207 70.26 37.7731 70.1901C37.6691 70.1739 37.5037 70.1833 37.5302 70.0256C37.5523 69.8926 37.71 69.9097 37.8192 69.9088C38.558 69.9054 39.2968 69.9054 40.0356 69.9088C40.1405 69.9088 40.2914 69.8918 40.3042 70.0444C40.3127 70.1748 40.172 70.1739 40.0791 70.185C39.5744 70.2481 39.3767 70.5789 39.3588 71.0375C39.3122 72.231 39.3122 73.4228 39.3588 74.6128C39.3775 75.0971 39.5864 75.4227 40.0996 75.496C40.1644 75.5071 40.2181 75.5523 40.3724 75.6256Z" fill="white"/>
<path d="M161.488 21.5111C161.467 24.0413 161.092 26.4982 159.846 28.7454C158.457 31.2474 156.449 32.9686 153.553 33.4341C149.498 34.0871 146.392 32.5577 144.131 29.1955C142.72 27.0915 142.061 24.7284 141.829 22.2289C141.633 20.0636 141.706 17.9128 142.264 15.8003C142.899 13.3997 144.083 11.3358 146.089 9.80813C149.104 7.51067 154.528 7.32398 157.843 11.0869C159.829 13.3434 160.894 15.9802 161.309 18.9161C161.441 19.7746 161.501 20.6426 161.488 21.5111Z" fill="white"/>
</g>
<defs>
<clipPath id="clip0_945_2125">
<rect width="178" height="76.0421" fill="white"/>
</clipPath>
</defs>
</svg>
