<svg width="220" height="45" viewBox="0 0 220 45" fill="none" xmlns="http://www.w3.org/2000/svg">
<g clip-path="url(#clip0_945_993)">
<mask id="mask0_945_993" style="mask-type:alpha" maskUnits="userSpaceOnUse" x="0" y="0" width="220" height="45">
<path d="M99.4706 0.415731L91.8442 1.0024L98.9817 7.06462C102.893 10.2913 108.075 14.7891 110.52 17.038C112.964 19.1891 115.213 21.0469 115.702 21.0469C116.093 21.0469 116.386 21.6335 116.386 22.318C116.386 23.3935 111.008 28.1847 93.7998 42.4602L91.4531 44.4158L102.893 44.5135H114.333L121.08 38.6469C124.893 35.4202 128.217 32.7802 128.608 32.7802C128.999 32.7802 132.031 35.1269 135.257 38.0602C138.582 40.8958 142.199 43.7313 143.275 44.2202C144.937 45.0024 164.102 45.1002 164.884 44.318C164.982 44.1224 162.244 41.5802 158.724 38.6469C155.302 35.7135 151.195 32.2913 149.826 31.0202C148.36 29.7491 145.719 27.598 144.057 26.2291C142.297 24.8602 140.831 23.2958 140.928 22.6113C140.928 22.0247 144.546 18.5047 148.946 14.8869C153.346 11.1713 158.919 6.47795 161.364 4.32684L165.764 0.513511H154.422H143.177L136.333 6.38018C132.617 9.50906 129.195 12.1491 128.804 12.2469C128.315 12.2469 124.697 9.60684 120.786 6.38018C112.866 -0.268714 111.693 -0.562046 99.4706 0.415731Z" fill="black"/>
<path d="M5.21122 8.04189C0.908997 8.82411 -1.63322 16.0597 1.20234 18.8953C1.88678 19.5797 4.03789 20.0686 5.99345 20.0686C11.0779 20.0686 14.6957 21.633 14.6957 23.7841C14.6957 26.8153 12.5446 27.8908 6.67789 27.8908C0.811219 27.8908 -0.948781 29.3575 3.549 30.433C7.55789 31.5086 14.8913 30.2375 16.3579 28.2819C18.2157 25.8375 17.9224 21.633 15.869 19.7753C14.8913 18.7975 12.4468 18.113 10.3935 18.113C5.79789 18.113 2.96234 16.6464 2.96234 14.2997C2.96234 11.1708 5.50456 9.99748 11.2735 10.4864C17.5313 10.9753 18.9979 9.01966 13.0335 7.94411C9.12234 7.35744 8.73122 7.35744 5.21122 8.04189Z" fill="black"/>
<path d="M216.12 11.7581C216.12 15.1803 216.12 15.1803 211.916 15.1803C206.538 15.1803 204.387 17.3315 204.387 22.6115C204.387 24.6648 204.778 26.9137 205.169 27.5003C207.027 30.3359 213.578 31.7048 217.489 30.2381C219.738 29.3581 219.836 8.33594 217.587 8.33594C216.609 8.33594 216.12 9.41149 216.12 11.7581ZM215.924 22.7092L216.218 27.8915H212.991C209.08 27.8915 207.32 26.4248 207.32 23.1981C207.32 18.9937 209.08 17.0381 212.502 17.3315C215.533 17.6248 215.631 17.8203 215.924 22.7092Z" fill="black"/>
<path d="M20.5625 19.1936C20.5625 28.5803 21.5403 30.8292 25.4514 30.8292C29.0692 30.8292 29.2647 29.5581 25.9403 28.0914C23.7892 27.1136 23.4958 26.3314 23.4958 22.0292C23.4958 17.4336 23.6914 17.1403 25.9403 17.1403C27.4069 17.1403 28.3847 16.5536 28.3847 15.7714C28.3847 14.8914 27.7003 14.5003 26.4292 14.6959C25.2558 14.8914 24.0825 14.3047 23.4958 13.1314C21.4425 9.4159 20.5625 11.3714 20.5625 19.1936Z" fill="black"/>
<path d="M58.6992 20.4645C58.6992 30.1445 58.9925 30.829 63.6859 30.829C66.1303 30.829 66.0325 29.1668 63.5881 28.3845C61.9259 27.8957 61.6326 26.9179 61.6326 22.4201C61.6326 17.8245 61.8281 17.1401 63.5881 17.1401C66.3259 17.1401 66.0325 15.3801 63.0992 14.5979C61.7303 14.3045 60.6548 13.4245 60.6548 12.6423C60.6548 11.8601 60.2637 11.2734 59.677 11.2734C59.0903 11.2734 58.6992 14.989 58.6992 20.4645Z" fill="black"/>
<path d="M89.7925 14.9839L87.0547 15.2772V26.5217C87.0547 35.5172 87.348 37.6684 88.4236 37.6684C89.4014 37.6684 89.988 36.3972 90.1836 33.9528C90.4769 30.4328 90.5747 30.335 94.0947 30.6284C98.9833 31.1172 102.699 27.5972 102.699 22.5128C102.699 18.7972 99.9611 15.2772 97.1258 15.0817C96.148 15.0817 94.6814 14.9839 93.8991 14.7884C93.1169 14.6906 91.2591 14.7884 89.7925 14.9839ZM98.2011 18.6995C100.352 20.7528 100.157 24.5661 97.81 26.9128C95.5614 29.1617 94.5836 29.2595 91.8458 27.8906C90.3791 27.1084 89.988 25.7395 89.988 22.0239V17.135H93.3125C95.1702 17.135 97.4191 17.8195 98.2011 18.6995Z" fill="black"/>
<path d="M156.472 15.4757C153.441 17.0402 152.659 20.9513 155.103 22.7113C156.081 23.3957 158.33 23.9824 160.09 23.9824C162.241 23.9824 163.61 24.5691 164.001 25.5469C164.881 27.7957 162.437 29.0669 158.135 28.3824C155.299 27.9913 154.419 28.1869 154.712 29.0669C155.299 30.7291 162.632 31.218 165.272 29.8491C166.739 29.0669 167.228 27.9913 167.032 26.2313C166.739 23.298 165.272 22.418 160.188 21.538C157.939 21.1469 156.472 20.4624 156.472 19.5824C156.472 17.5291 159.406 16.3557 163.121 16.8446C166.641 17.4313 167.423 15.7691 164.099 14.7913C160.775 13.9113 159.21 14.1069 156.472 15.4757Z" fill="black"/>
<path d="M172.903 15.671C169.676 17.431 168.601 20.951 169.872 25.2533C170.947 28.9688 174.076 30.8266 179.747 30.8266C182.876 30.8266 183.854 30.4355 183.854 29.2621C183.854 27.991 183.17 27.7955 180.921 28.2844C177.303 28.9688 173.099 27.5021 173.099 25.5466C173.099 24.471 174.565 23.9821 178.77 23.7866C184.245 23.4933 184.343 23.4933 184.147 20.6577C184.05 19.0933 183.365 17.2355 182.681 16.4533C180.627 14.4977 175.836 14.0088 172.903 15.671ZM180.823 18.9955C182.192 21.3421 181.312 22.0266 177.01 22.0266C172.707 22.0266 171.827 21.3421 173.196 18.9955C173.783 17.8221 175.25 17.1377 177.01 17.1377C178.77 17.1377 180.236 17.8221 180.823 18.9955Z" fill="black"/>
<path d="M190.989 15.1756C186.687 16.9356 185.318 23.9756 188.545 27.8867C190.891 30.8201 200.473 31.9934 200.473 29.3534C200.473 28.0823 199.887 27.8867 197.54 28.3756C195.487 28.8645 193.727 28.5712 192.162 27.4956C188.349 24.9534 189.327 23.9756 195.585 23.9756H201.451V20.6512C201.451 18.8912 200.865 16.9356 200.278 16.349C198.322 14.8823 193.336 14.1978 190.989 15.1756ZM198.322 19.9667C198.616 21.7267 198.225 22.0201 194.705 22.0201C190.011 22.0201 189.033 20.749 191.576 18.2067C194.02 15.7623 197.833 16.7401 198.322 19.9667Z" fill="black"/>
<path d="M31.3176 16.0558C31.3176 16.6424 33.371 17.1313 36.011 17.3269C39.9221 17.6202 40.6065 17.9135 40.8998 19.7713C41.1932 21.8246 40.8021 22.0202 37.3798 22.0202C31.7087 22.0202 30.3398 22.8024 30.3398 26.0291C30.3398 29.5491 32.3932 30.7224 38.9443 30.5269C42.8554 30.3313 44.2243 29.9402 44.6154 28.6691C45.2998 26.4202 44.0287 18.0113 42.8554 16.3491C41.6821 14.9802 31.3176 14.6869 31.3176 16.0558ZM41.0954 25.3446C41.0954 28.7669 34.8376 30.5269 33.6643 27.398C32.5887 24.6602 34.0554 22.998 37.6732 22.998C40.6065 22.998 41.0954 23.2913 41.0954 25.3446Z" fill="black"/>
<path d="M48.918 23.197C48.918 29.357 49.2113 30.8236 50.3846 30.8236C51.558 30.8236 51.8513 29.4548 51.8513 24.5659C51.8513 19.0903 52.1446 18.1125 53.8069 17.6236C56.838 16.6459 56.0557 15.5703 52.3402 15.5703H48.918V23.197Z" fill="black"/>
<path d="M68.4766 21.4375C68.4766 30.0419 70.6277 32.193 76.8855 29.8464C78.7432 29.0641 79.8188 29.0641 80.601 29.8464C82.6543 31.8997 83.1432 30.6286 83.1432 23.0019C83.1432 16.7441 82.8499 15.1797 81.6766 15.1797C80.5032 15.1797 80.2099 16.4508 80.2099 20.9486C80.2099 26.5219 80.1121 26.7175 77.1788 27.793C72.681 29.3575 71.4099 27.8908 71.4099 20.9486C71.4099 16.4508 71.1166 15.1797 69.9432 15.1797C68.7699 15.1797 68.4766 16.5486 68.4766 21.4375Z" fill="black"/>
</mask>
<g mask="url(#mask0_945_993)">
<path d="M233.691 -15.6406H-14.6641V63.5594H233.691V-15.6406Z" fill="white"/>
</g>
</g>
<defs>
<clipPath id="clip0_945_993">
<rect width="220" height="44.9778" fill="white"/>
</clipPath>
</defs>
</svg>
