<svg width="134" height="73" viewBox="0 0 134 73" fill="none" xmlns="http://www.w3.org/2000/svg">
<g clip-path="url(#clip0_945_1317)">
<path d="M67.1216 0C69.0992 0.0187155 71.9003 1.09175 74.1867 3.35945C78.1357 7.271 82.0816 11.1888 85.9807 15.1534C88.1604 17.3305 89.3924 20.2801 89.4088 23.3609C89.4251 26.4416 88.2245 29.4042 86.068 31.6043C82.1502 35.6219 78.1825 39.5896 74.1649 43.5074C71.9718 45.6696 69.0147 46.8799 65.9349 46.8758C62.8552 46.8717 59.9013 45.6536 57.7139 43.4856C56.7064 42.5093 55.6958 41.5329 54.7413 40.5036C54.1174 39.8423 53.6651 39.8797 53.0818 40.5223C52.3831 41.2896 51.6002 41.9821 50.8984 42.737C50.3151 43.3608 49.7785 43.4294 49.2015 42.7557C49.1017 42.6371 48.9738 42.5436 48.8708 42.425C47.9101 41.3458 46.1789 40.5535 46.0635 39.2372C45.9481 37.9208 47.7261 37.1566 48.6681 36.1553C49.3387 35.441 49.267 34.97 48.6026 34.3524C47.6512 33.4665 46.731 32.5339 45.8452 31.5981C43.7154 29.4121 42.5234 26.4808 42.5234 23.4288C42.5234 20.3768 43.7154 17.4454 45.8452 15.2594C49.7661 11.2418 53.7556 7.29595 57.7451 3.35009C59.9723 1.13854 62.8108 0.0155963 67.1216 0ZM83.0735 23.4381C83.0709 22.6833 82.919 21.9365 82.6267 21.2406C82.3345 20.5447 81.9075 19.9134 81.3704 19.3831C77.593 15.5963 73.8312 11.7939 70.0163 8.04146C67.6425 5.70825 64.2862 5.69577 61.9062 8.02273C58.0924 11.7658 54.3108 15.5474 50.5615 19.3675C48.2189 21.7506 48.2127 25.0913 50.5428 27.4776C54.2859 31.2914 58.0685 35.074 61.8906 38.8254C64.2706 41.168 67.602 41.1836 70.0007 38.8473C73.8218 35.1041 77.5805 31.2955 81.3579 27.5087C81.898 26.9768 82.3276 26.3433 82.6221 25.6447C82.9165 24.9461 83.0699 24.1962 83.0735 23.4381Z" fill="white"/>
<path d="M30.1433 64.7467C30.1433 66.7742 30.1433 68.8017 30.1433 70.823C30.1433 72.5978 29.1732 73.2997 27.5792 72.4949C26.8836 72.1425 26.4594 72.2891 25.8761 72.4949C23.1811 73.4775 20.5328 72.6665 18.8204 70.3613C18.0417 69.3108 17.6128 68.0422 17.5944 66.7346C17.5759 65.4271 17.9688 64.1469 18.7174 63.0748C20.2771 60.8133 23.1281 59.7621 25.7326 60.7759C27.2174 61.3529 27.2923 60.7759 27.2237 59.628C27.1893 59.1632 27.2486 58.6922 27.2237 58.2274C27.1457 57.1045 27.7477 56.7926 28.7552 56.805C29.7627 56.8175 30.2275 57.1887 30.1526 58.1962C30.1526 58.2992 30.1526 58.4052 30.1526 58.5082L30.1433 64.7467ZM23.8736 69.8779C25.7233 69.9122 27.0271 68.6957 27.102 66.874C27.1769 64.9338 25.8075 63.4428 23.9453 63.4116C22.0831 63.3804 20.7668 64.7248 20.7512 66.6307C20.7231 68.6146 21.9178 69.8436 23.8736 69.8779Z" fill="white"/>
<path d="M49.1511 66.6956C49.1511 68.0931 49.173 69.503 49.1511 70.8942C49.1511 71.4837 49.3726 72.2479 48.6333 72.5411C47.8941 72.8343 47.0082 72.9903 46.4499 72.3321C45.9882 71.7769 45.7574 72.0202 45.3269 72.2448C43.8897 72.9491 42.233 73.0593 40.7153 72.5514C39.1975 72.0436 37.9407 70.9585 37.2169 69.531C35.6978 66.5116 36.8394 62.6999 39.7123 61.1465C40.7355 60.6313 41.8791 60.4028 43.0218 60.4852C44.5658 60.5257 45.9944 61.6861 47.7007 60.6599C48.4836 60.1889 49.201 60.9344 49.1699 62.0292C49.1106 63.5826 49.148 65.1391 49.1511 66.6956ZM42.766 63.4204C41.9309 63.4284 41.1307 63.7563 40.5301 64.3366C39.9295 64.9169 39.5743 65.7053 39.5376 66.5397C39.5351 67.3981 39.8644 68.2243 40.4567 68.8457C41.049 69.4671 41.8585 69.8355 42.7161 69.8741C43.5699 69.8808 44.3913 69.548 44.9997 68.949C45.608 68.3499 45.9535 67.5338 45.9601 66.68C45.9668 65.8263 45.6339 65.0049 45.0349 64.3965C44.4359 63.7881 43.6198 63.4426 42.766 63.436V63.4204Z" fill="white"/>
<path d="M58.5089 56.7269C61.8809 56.6489 64.3669 57.9746 65.7612 60.8693C67.1555 63.764 67.2117 66.8302 65.1966 69.572C64.3856 70.6762 64.7007 70.9913 65.8485 71.1067C66.41 71.1597 66.9029 71.3001 66.8561 72.0113C66.8124 72.6351 66.2541 72.9252 65.8735 72.7194C63.3968 71.375 61.0698 72.9034 58.6743 72.9595C54.3073 73.0656 50.6391 69.2164 50.6328 64.7185C50.6297 60.7383 54.1326 56.3401 58.5089 56.7269ZM52.5824 64.7434C52.3921 65.9069 52.782 66.5464 54.2605 65.9069C54.5664 65.8302 54.881 65.7945 55.1963 65.8008C58.0504 65.4452 60.1871 66.7928 62.1117 68.6768C62.5765 69.1322 62.932 69.5907 63.5715 68.7673C65.1093 66.7896 65.312 63.4208 63.9146 61.2966C62.33 58.8886 59.6693 57.8654 57.0273 58.6234C54.3853 59.3814 52.6229 61.724 52.5886 64.7434H52.5824ZM58.5089 71.1441C59.1796 71.1223 59.8596 71.1722 60.5053 70.9039C60.9763 70.7074 61.1291 70.4641 60.8172 69.9682C59.7473 68.2838 56.5064 67.0392 54.5787 67.6007C53.6086 67.8814 53.3871 68.3368 54.1357 69.1166C55.346 70.355 56.7185 71.1816 58.5121 71.1441H58.5089Z" fill="white"/>
<path d="M5.44328 66.636C5.44328 65.1824 5.44328 63.7257 5.44328 62.269C5.44328 61.6452 5.3497 60.9277 6.13887 60.7094C6.83447 60.516 7.74218 60.2914 8.17888 60.9309C8.61558 61.5703 8.85264 61.2927 9.27374 61.0962C12.6051 59.5365 15.74 61.274 15.9957 64.9204C16.1517 67.1039 16.0332 69.2874 16.055 71.4708C16.055 72.4409 15.5185 72.7185 14.6638 72.7185C13.8091 72.7185 13.1666 72.5189 13.1385 71.4365C13.0917 69.4683 13.3101 67.4907 12.9295 65.5286C12.6862 64.2809 12.209 63.3795 10.7242 63.4294C9.29868 63.4762 8.76529 64.2997 8.54071 65.5879C8.22878 67.4595 8.30677 69.331 8.31301 71.187C8.31301 72.2101 8.00107 72.7466 6.88438 72.7217C5.76769 72.6967 5.42144 72.1696 5.43392 71.162C5.47447 69.6492 5.45888 68.1426 5.44328 66.636Z" fill="white"/>
<path d="M109.854 67.1999C108.557 67.1999 107.256 67.228 105.958 67.1999C104.779 67.1687 104.645 67.6834 105.048 68.6535C106.211 71.4608 110.123 72.1315 112.194 69.8607C112.44 69.5294 112.71 69.2166 113.002 68.9249C113.192 68.7414 113.44 68.63 113.704 68.6101C113.968 68.5902 114.23 68.6629 114.446 68.8157C114.942 69.2212 114.446 69.6828 114.234 70.0478C113.515 71.2359 112.411 72.1415 111.105 72.6133C109.799 73.0851 108.371 73.0945 107.059 72.6399C104.414 71.754 102.608 68.8438 102.942 66.0052C103.31 62.886 105.381 60.7524 108.329 60.4842C111.851 60.1722 114.568 62.2341 115.151 65.6434C115.335 66.7071 115.06 67.2342 113.903 67.203C112.552 67.175 111.202 67.203 109.848 67.203L109.854 67.1999ZM108.919 65.7807C110.004 65.7807 111.102 65.7807 112.178 65.7807C113.08 65.7994 113.242 65.4469 112.914 64.6359C112.241 62.9765 110.996 62.1405 109.025 62.1405C107.053 62.1405 105.777 62.9671 105.116 64.6047C104.804 65.3596 104.857 65.7962 105.815 65.7744C106.844 65.7619 107.88 65.7807 108.912 65.7807H108.919Z" fill="white"/>
<path d="M79.9219 66.5823C79.9219 63.1511 82.6326 60.2939 85.8922 60.2658C89.2547 60.2408 92.2181 63.2759 92.1713 66.6977C92.1245 70.0228 89.2953 72.9362 86.0825 72.9986C82.6295 73.0329 79.9063 70.2256 79.9219 66.5823ZM90.2467 66.6571C90.2467 63.9122 88.6215 62.1654 86.0076 62.1342C83.5839 62.103 81.6562 64.0838 81.6406 66.6228C81.625 69.1619 83.5403 71.1489 85.9733 71.1458C88.5779 71.1613 90.2373 69.4052 90.2467 66.6571Z" fill="white"/>
<path d="M78.451 66.6437C78.451 68.2532 78.451 69.8628 78.451 71.4723C78.451 72.4081 77.9083 73.0319 77.1129 72.5765C76.3174 72.1211 75.7341 72.4018 74.9949 72.6233C72.0815 73.4873 68.7002 72.7231 68.3664 68.3468C68.2105 66.2725 68.1263 64.2013 68.173 62.1083C68.173 61.4314 68.1731 60.6547 69.1525 60.6485C70.1319 60.6422 70.0664 61.4501 70.0883 62.1114C70.0883 64.0329 70.0571 65.9575 70.1132 67.8758C70.1819 70.2153 71.1707 71.1791 73.3292 71.1354C75.4191 71.0917 76.4765 70.0031 76.5233 67.7729C76.5607 65.9013 76.5233 64.0298 76.5607 62.1582C76.5607 61.4907 76.5015 60.6921 77.4965 60.6672C78.4916 60.6422 78.4697 61.4189 78.4791 62.1021C78.4635 63.6305 78.451 65.1371 78.451 66.6437Z" fill="white"/>
<path d="M0.023135 64.6285C0.023135 62.445 0.0636831 60.2772 0.00129792 58.103C-0.0267754 57.1205 0.400558 56.7805 1.28331 56.8241C2.11303 56.8678 3.23598 56.5465 3.24533 57.9252C3.27965 62.4794 3.26405 67.0366 3.24533 71.5938C3.24533 72.7386 2.39064 72.698 1.59211 72.7105C0.731197 72.7105 0.0324829 72.5577 0.0324829 71.4628C0.0511984 69.1826 0.0324829 66.9056 0.0324829 64.6285H0.023135Z" fill="white"/>
<path d="M116.737 66.4827C116.737 64.9231 116.7 63.3635 116.737 61.8038C116.778 60.5811 117.427 60.2099 118.25 61.0147C118.79 61.5418 119.043 61.2112 119.423 61.0427C123.213 59.3833 126.086 61.0427 126.597 65.1571C126.853 67.1783 126.722 69.2121 126.747 71.2209C126.747 71.8447 126.747 72.5715 125.855 72.5871C124.866 72.6058 124.897 71.8104 124.888 71.1367C124.863 69.2183 124.907 67.2969 124.854 65.3754C124.791 63.1919 123.856 62.2031 121.9 62.1594C119.944 62.1158 118.54 63.298 118.434 65.3504C118.335 67.3187 118.4 69.2963 118.375 71.277C118.375 71.9009 118.412 72.637 117.483 72.5965C116.666 72.559 116.725 71.8759 116.719 71.3113C116.728 69.7143 116.734 68.1047 116.737 66.4827Z" fill="white"/>
<path d="M94.6262 67.5227C94.6262 66.484 94.6044 65.4453 94.6262 64.4034C94.6481 63.3616 94.6668 62.3728 93.1727 62.4258C92.6736 62.4445 92.4771 62.0484 92.4583 61.5774C92.4396 61.1064 92.6205 60.6728 93.0822 60.6634C94.5919 60.6354 94.6418 59.6684 94.6231 58.5392C94.6231 57.8686 94.3829 56.9079 95.5027 56.8985C96.6226 56.8892 96.4759 57.8093 96.4666 58.508C96.4666 59.6247 96.4915 60.6104 97.9857 60.6915C98.4598 60.7165 98.6345 61.1656 98.6095 61.6273C98.5846 62.0889 98.3475 62.457 97.8578 62.4477C96.4541 62.4134 96.4666 63.3429 96.4728 64.3192C96.4915 66.5526 96.4915 68.7849 96.4728 71.0163C96.4728 71.7243 96.5508 72.6196 95.4747 72.6008C94.464 72.5852 94.6294 71.7243 94.6138 71.0818C94.6106 69.912 94.6294 68.7174 94.6262 67.5227Z" fill="white"/>
<path d="M35.119 66.6453C35.119 68.2049 35.0878 69.7646 35.119 71.3023C35.1502 72.419 34.5856 72.7278 33.5843 72.7185C32.583 72.7091 32.19 72.2974 32.1994 71.3086C32.2243 68.1893 32.2337 65.0981 32.1994 61.9945C32.1994 60.8715 32.739 60.569 33.7341 60.5783C34.7291 60.5877 35.144 60.9932 35.119 61.9882C35.094 63.5385 35.119 65.0919 35.119 66.6453Z" fill="white"/>
<path d="M129.84 67.4372C129.84 66.5015 129.84 65.5657 129.84 64.6299C129.856 63.5226 130.034 62.3466 128.315 62.409C127.891 62.409 127.729 62.0347 127.691 61.6385C127.663 61.1862 127.782 60.7028 128.275 60.7028C129.865 60.6529 129.912 59.6204 129.834 58.4475C129.82 58.1343 129.841 57.8204 129.897 57.5118C129.919 57.3256 130.013 57.1556 130.16 57.0388C130.306 56.9219 130.493 56.8677 130.68 56.8879C130.771 56.8767 130.864 56.8841 130.953 56.9096C131.042 56.9351 131.124 56.9783 131.196 57.0366C131.268 57.0948 131.327 57.1669 131.37 57.2486C131.413 57.3302 131.439 57.4198 131.447 57.5118C131.509 58.0292 131.529 58.5507 131.509 59.0714C131.466 59.9822 131.709 60.5905 132.757 60.5967C133.409 60.5967 133.855 60.9086 133.821 61.6479C133.789 62.3279 133.325 62.5182 132.748 62.487C131.647 62.4246 131.5 63.0796 131.5 63.978C131.525 66.4172 131.5 68.8565 131.5 71.2989C131.5 71.9227 131.537 72.6527 130.605 72.6121C129.794 72.5747 129.834 71.9009 129.828 71.3332C129.828 70.0356 129.828 68.738 129.828 67.4372H129.84Z" fill="white"/>
<path d="M101.262 66.6523C101.262 68.2587 101.262 69.8651 101.262 71.4715C101.262 72.008 101.218 72.5695 100.507 72.6101C99.6959 72.6568 99.6055 72.0611 99.6055 71.459C99.6055 68.2462 99.6055 65.0323 99.6055 61.8174C99.6055 61.284 99.6554 60.7225 100.367 60.682C101.174 60.6383 101.262 61.2216 101.265 61.833C101.265 63.4394 101.262 65.0458 101.262 66.6523Z" fill="white"/>
<path d="M60.2045 32.8671C59.6965 32.8779 59.1915 32.7871 58.719 32.6001C58.2466 32.413 57.8163 32.1334 57.4533 31.7778C57.0904 31.4221 56.8022 30.9976 56.6056 30.529C56.4091 30.0604 56.3081 29.5573 56.3086 29.0492C56.3338 28.0393 56.7519 27.079 57.4739 26.3725C58.1959 25.666 59.1651 25.2689 60.1753 25.2656C61.1855 25.2624 62.1571 25.6532 62.8837 26.3551C63.6103 27.057 64.0345 28.0145 64.0662 29.0242C64.0765 29.5333 63.9835 30.0392 63.7928 30.5113C63.6021 30.9834 63.3178 31.412 62.9568 31.7711C62.5959 32.1303 62.166 32.4126 61.6929 32.601C61.2199 32.7893 60.7136 32.8799 60.2045 32.8671Z" fill="white"/>
</g>
<defs>
<clipPath id="clip0_945_1317">
<rect width="133.85" height="73" fill="white"/>
</clipPath>
</defs>
</svg>
