<svg width="153" height="50" viewBox="0 0 153 50" fill="none" xmlns="http://www.w3.org/2000/svg">
<mask id="mask0_945_1333" style="mask-type:alpha" maskUnits="userSpaceOnUse" x="0" y="0" width="153" height="50">
<path d="M0.116794 0.154213C0.0500545 0.204267 0 8.17963 0 17.8402V35.426L1.30142 35.376L2.58615 35.3259L2.63621 28.7855L2.66957 22.2617L8.8096 22.1783C13.7984 22.1115 15.1665 22.0448 16.1843 21.8112C20.9228 20.7267 24.143 18.1238 25.3776 14.353C25.9449 12.6178 25.9616 9.36425 25.3943 7.59566C24.0595 3.34102 20.0552 0.68813 14.2322 0.204267C11.913 0.0207359 0.283642 -0.0293191 0.116794 0.154213ZM16.518 2.94059C19.9551 3.89162 22.2075 5.87712 22.9417 8.59675C23.3922 10.2652 23.242 12.9849 22.6413 14.303C21.9239 15.8213 21.0062 16.9392 19.7382 17.7568C16.9685 19.5754 15.7338 19.7923 8.39248 19.809C5.23904 19.809 2.66957 19.759 2.66957 19.6755C2.66957 19.6088 2.66957 15.7212 2.66957 11.0327V2.52346L9.05987 2.5902C14.5325 2.64026 15.5836 2.69031 16.518 2.94059Z" fill="black"/>
<path d="M33.7031 17.7026V35.4052H34.9545H36.2059V28.0639V20.7226H42.0122H47.8018L53.4413 28.0639L59.0808 35.4052H60.6658C61.5334 35.4052 62.2342 35.3718 62.2342 35.3218C62.2342 35.2384 53.8918 24.3765 51.6727 21.5735L50.6883 20.3221L51.7394 20.1052C53.191 19.8216 55.1265 19.1208 56.211 18.5035C57.6959 17.6692 59.3144 16.0174 59.9818 14.6493C62.6847 9.17666 60.0652 3.10338 54.1254 1.01777C51.8062 0.216902 51.2889 0.166849 42.2624 0.0834242L33.7031 0V17.7026ZM52.557 3.01995C56.6448 4.25463 58.5635 6.84078 58.3633 10.8118C58.2966 12.0798 58.1798 12.547 57.7627 13.448C56.7949 15.5169 54.7928 17.0853 52.0565 17.9028C50.8551 18.2699 50.5048 18.2866 43.5138 18.3533L36.2059 18.4034V10.4614V2.51941L43.7641 2.56946C51.022 2.6362 51.3557 2.65289 52.557 3.01995Z" fill="black"/>
<path d="M70.527 0.135258C70.4602 0.201996 70.4102 8.17735 70.4102 17.8379V35.4238L71.7116 35.3737L72.9963 35.3236V17.7211V0.118572L71.8284 0.0685172C71.1777 0.051834 70.5937 0.0685172 70.527 0.135258Z" fill="black"/>
<path d="M83.9258 17.7183V35.4209L85.1438 35.3709L86.3451 35.3208L86.4285 20.1042L86.5119 4.8876L93.4361 14.9652C97.2403 20.5213 100.394 25.0596 100.444 25.0596C100.494 25.0596 103.647 20.5213 107.451 14.9819L114.376 4.90429L114.459 20.1042L114.542 35.3208L115.844 35.3709L117.129 35.4209L117.095 17.7683L117.045 0.115732L115.911 0.0990492C115.243 0.0823632 114.709 0.149102 114.609 0.265897C114.409 0.466116 113.725 1.46721 106.05 12.7962C102.363 18.2188 100.494 20.8384 100.377 20.7216C100.294 20.6381 97.0901 15.9663 93.2693 10.3435L86.3284 0.115732L85.1271 0.0656774L83.9258 0.015625V17.7183Z" fill="black"/>
<path d="M127.637 1.28764V2.37215H140.15H152.664V1.28764V0.203125H140.15H127.637V1.28764Z" fill="black"/>
<path d="M127.637 25.8932V35.4035L140.284 35.3701L152.914 35.3201V34.1522V32.9842L141.519 32.9342L130.139 32.9008L130.173 25.8431L130.223 18.8021L140.317 18.752L150.412 18.7187L150.361 17.5507L150.295 16.3828H138.966H127.637V25.8932Z" fill="black"/>
<path d="M149.046 40.0809C148.378 40.4813 148.145 40.9151 148.128 41.7494C148.111 42.617 148.395 43.0007 149.863 44.2688C150.53 44.836 151.248 45.4868 151.448 45.737C152.366 46.8215 151.582 48.4233 150.147 48.4233C149.529 48.4233 149.346 48.3232 148.745 47.6892C148.161 47.1052 147.994 47.0051 147.777 47.1719C147.544 47.3388 147.561 47.4055 147.861 47.9061C148.061 48.2231 148.295 48.4066 148.428 48.3566C148.562 48.3065 148.645 48.3566 148.612 48.4567C148.545 48.7737 149.379 49.0907 150.314 49.0907C151.148 49.0907 151.248 49.0406 151.932 48.3566C152.583 47.7225 152.666 47.539 152.666 46.905C152.666 45.9706 152.282 45.3533 151.064 44.3188C149.162 42.7004 148.829 42.3166 148.829 41.766C148.829 41.4824 148.962 41.1153 149.146 40.9318C149.329 40.7483 149.429 40.5814 149.396 40.5314C149.296 40.4312 149.846 40.4146 150.447 40.5147C150.747 40.5647 151.198 40.815 151.448 41.082C151.865 41.5158 151.949 41.5491 152.232 41.3322C152.549 41.082 152.549 41.082 152.149 40.6482C151.281 39.7138 150.03 39.4802 149.046 40.0809Z" fill="black"/>
<path d="M0.481075 40.6904C0.764717 41.3912 2.66679 45.8961 3.66788 48.1652L4.01826 48.9828L4.35196 48.2487C4.55218 47.8316 5.30299 46.113 6.03713 44.4112C6.77126 42.7093 7.52208 41.0074 7.68893 40.607L7.98925 39.9062H7.6055C7.2718 39.9062 7.10496 40.1565 6.42088 41.6915C5.98707 42.6926 5.38642 44.0608 5.08609 44.7449C4.76908 45.4289 4.45207 46.1964 4.35196 46.4467C4.25185 46.7137 4.11837 46.9139 4.03495 46.9139C3.96821 46.9139 3.65119 46.2965 3.33418 45.529C3.03386 44.7782 2.53331 43.627 2.24967 42.9929C1.94934 42.3422 1.5489 41.3912 1.332 40.8573C1.01499 40.0898 0.864826 39.9062 0.547814 39.9062H0.164062L0.481075 40.6904Z" fill="black"/>
<path d="M12.3477 44.4112V48.9161H14.8504C17.2363 48.9161 17.3531 48.8994 17.3531 48.5824C17.3531 48.282 17.2196 48.2487 15.2341 48.2153L13.0985 48.1652L13.0484 46.2799L12.9984 44.4112H15.1841C17.2363 44.4112 17.3531 44.3945 17.3531 44.0775C17.3531 43.7604 17.2363 43.7438 15.1841 43.7438H13.015V42.1587V40.5736H15.1841C17.2363 40.5736 17.3531 40.557 17.3531 40.2399C17.3531 39.9229 17.2363 39.9062 14.8504 39.9062H12.3477V44.4112Z" fill="black"/>
<path d="M21.6875 44.382V48.9203H22.0713H22.4383V45.6668C22.4383 43.8648 22.4717 42.3298 22.5384 42.2297C22.5885 42.1296 23.2892 42.8137 24.0901 43.7313C24.9077 44.6657 25.6418 45.3664 25.7419 45.2997C25.8253 45.2496 25.8587 45.2663 25.8087 45.3664C25.6752 45.5667 27.4771 47.6856 27.7274 47.6189C27.8108 47.6022 27.8442 47.6356 27.8108 47.7023C27.7608 47.7857 27.9443 48.1027 28.2113 48.4198L28.6784 49.0037L28.6951 44.4488C28.6951 40.0273 28.6951 39.9105 28.3614 39.9105C28.0444 39.9105 28.0277 40.0273 28.0277 43.4143C28.0277 45.3331 27.9777 46.9181 27.9109 46.9014C27.8275 46.9014 26.9099 45.9003 25.8587 44.6657C24.8076 43.4477 23.8732 42.48 23.7731 42.53C23.6897 42.5968 23.6563 42.5801 23.7231 42.4966C23.8899 42.3131 22.8721 41.0451 22.6552 41.1785C22.5551 41.2453 22.5217 41.2286 22.5718 41.1285C22.6385 41.0284 22.455 40.7114 22.188 40.411L21.6875 39.8438V44.382Z" fill="black"/>
<path d="M32.7031 40.2399C32.7031 40.5069 32.8366 40.557 33.7543 40.607L34.7887 40.6571L34.8388 44.7782C34.8722 48.7659 34.8888 48.9161 35.2059 48.9161C35.5229 48.9161 35.5395 48.7659 35.5729 44.7782L35.623 40.6571L36.6741 40.607C37.2414 40.5736 37.7086 40.5236 37.7086 40.4902C37.7086 40.4568 37.6585 40.3234 37.6085 40.1732C37.525 39.9396 37.1413 39.9062 35.1057 39.9062C32.8366 39.9062 32.7031 39.9229 32.7031 40.2399Z" fill="black"/>
<path d="M41.7467 43.6437C41.7968 47.1308 41.8134 47.4311 42.1471 47.8482C42.7812 48.7158 43.3151 48.9828 44.5164 49.0495C45.4674 49.0996 45.7177 49.0495 46.2016 48.7158C47.3862 47.9317 47.4696 47.598 47.5197 43.5269C47.5697 40.0064 47.5697 39.9062 47.236 39.9062C46.919 39.9062 46.9023 40.0397 46.8523 43.4434C46.8022 46.5969 46.7688 47.0474 46.4852 47.4645C45.8345 48.4322 44.433 48.6992 43.4152 48.0818C42.4975 47.5145 42.3807 46.9973 42.3807 43.2432C42.3807 39.9897 42.364 39.9062 42.0303 39.9062C41.6966 39.9062 41.6966 39.973 41.7467 43.6437Z" fill="black"/>
<path d="M52.5557 44.3966L52.5724 48.9182H52.9896H53.39V46.7492C53.39 45.0139 53.44 44.5801 53.6236 44.5801C53.7404 44.5801 53.9406 44.6969 54.0574 44.8304C54.1742 44.9639 54.3243 45.0306 54.4078 44.9806C54.4912 44.9305 54.5412 44.9639 54.5246 45.064C54.4912 45.1474 55.1085 46.0651 55.876 47.0829C57.094 48.6846 57.3276 48.9182 57.7614 48.9182H58.2453L57.6446 48.1674C57.2942 47.7502 56.9439 47.4666 56.8438 47.5333C56.7436 47.5834 56.727 47.55 56.7937 47.4332C56.9272 47.233 55.4255 45.1975 55.242 45.3143C55.1919 45.3476 55.1252 45.1975 55.1252 44.9806C55.0918 44.6302 55.1586 44.5801 55.7092 44.5801C56.46 44.5801 57.3443 44.1296 57.7781 43.5623C58.2286 42.945 58.2119 41.5435 57.7781 40.9261C57.2275 40.192 56.6435 40.0085 54.5079 39.9417L52.5391 39.875L52.5557 44.3966ZM56.7603 40.7927C56.9105 40.8094 57.0106 40.8594 56.9605 40.9261C56.9272 40.9929 57.0106 41.2598 57.1608 41.5268C57.5779 42.2442 57.361 43.1619 56.6769 43.579C56.2598 43.846 55.8427 43.9127 54.7748 43.9127H53.39V42.2276V40.5257L54.9417 40.6425C55.7759 40.7092 56.6102 40.776 56.7603 40.7927Z" fill="black"/>
<path d="M62.9023 44.4112V48.9161H65.4051C67.791 48.9161 67.9078 48.8994 67.9078 48.5824C67.9078 48.282 67.7743 48.2487 65.7888 48.2153L63.6532 48.1652L63.6031 46.2799L63.5531 44.4112H65.7388C67.791 44.4112 67.9078 44.3945 67.9078 44.0775C67.9078 43.7771 67.7743 43.7438 65.7888 43.7104L63.6532 43.6603V42.1587V40.6571L65.7888 40.607C67.7743 40.5736 67.9078 40.5403 67.9078 40.2399C67.9078 39.9229 67.791 39.9062 65.4051 39.9062H62.9023V44.4112Z" fill="black"/>
<path d="M76.4141 44.3966C76.4141 48.7847 76.4307 48.9182 76.7478 48.9182C77.0481 48.9182 77.0815 48.7847 77.1148 46.7825L77.1649 44.6635L78.8334 44.5801C79.751 44.5301 80.6687 44.3966 80.8856 44.2798C81.4696 43.9461 81.9201 43.0785 81.9201 42.2776C81.9201 41.5769 81.5029 40.5758 81.2026 40.5758C81.1359 40.5758 81.1192 40.6592 81.1859 40.776C81.2527 40.8928 81.236 40.9095 81.1025 40.8427C81.0024 40.776 80.9523 40.6592 81.0024 40.5758C81.2026 40.2421 80.2349 40.0085 78.3829 39.9417L76.4141 39.875V44.3966ZM80.1348 40.7927C80.8189 41.093 81.0858 41.41 81.2026 42.1441C81.286 42.6614 81.2193 42.8115 80.7021 43.3288C80.1181 43.9127 80.1181 43.9127 78.5998 43.9127H77.0815V42.361C77.0815 41.4934 77.1315 40.7426 77.1983 40.6926C77.3985 40.4923 79.5842 40.5758 80.1348 40.7927Z" fill="black"/>
<path d="M89.5314 40.915C89.2812 41.4489 89.131 41.9995 89.1977 42.0996C89.2645 42.2164 89.2478 42.2498 89.1477 42.1997C88.9308 42.0663 88.7139 42.5334 88.8807 42.7837C88.9308 42.8838 88.9141 42.9172 88.814 42.8671C88.7139 42.8004 88.3468 43.401 87.9631 44.2186C87.596 45.0195 86.9453 46.4043 86.5282 47.2886L85.7773 48.9237H86.1778C86.5282 48.9237 86.6783 48.7569 87.012 47.9894C87.2456 47.4721 87.3791 46.9716 87.3124 46.8715C87.2623 46.7881 87.2957 46.7547 87.3791 46.8048C87.4792 46.8715 87.646 46.688 87.7628 46.421L87.9631 45.9205H90.0487H92.1176L92.8183 47.4221C93.3856 48.6735 93.5692 48.9237 93.8862 48.9237C94.1031 48.9237 94.2699 48.8904 94.2699 48.857C94.2699 48.8236 93.8361 47.8726 93.2855 46.738C92.7516 45.6034 91.8506 43.6513 91.2833 42.4166C90.7161 41.182 90.1821 40.1141 90.1154 40.0307C90.0487 39.964 89.7817 40.3644 89.5314 40.915ZM90.8996 43.3176C91.2833 44.1685 91.6004 44.9694 91.6004 45.0695C91.6004 45.1863 91.0664 45.2531 90.0153 45.2531C89.0809 45.2531 88.4302 45.1863 88.4302 45.0862C88.4302 44.8693 89.9819 41.7492 90.0987 41.7492C90.1488 41.7492 90.4992 42.45 90.8996 43.3176Z" fill="black"/>
<path d="M98.6094 44.4112C98.6094 48.7993 98.6094 48.9161 98.9431 48.9161C99.2601 48.9161 99.2768 48.7993 99.2768 46.747C99.2768 43.8772 99.3769 43.8772 101.546 46.747C102.964 48.5991 103.264 48.8994 103.665 48.9161C104.115 48.9161 104.082 48.8493 102.53 46.8305C101.513 45.4957 101.012 44.7115 101.145 44.6781C101.262 44.6281 101.713 44.5613 102.147 44.4946C104.583 44.1776 104.816 40.7572 102.43 40.0731C102.13 39.973 101.129 39.9062 100.244 39.9062H98.6094V44.4112ZM102.647 40.7739C102.797 40.7905 102.897 40.8406 102.864 40.874C102.831 40.924 102.897 41.1076 103.031 41.3078C103.465 41.9084 103.348 42.8762 102.797 43.4268C102.33 43.8939 102.247 43.9106 100.795 43.9106H99.2768V42.2254V40.5403L100.828 40.6404C101.663 40.6904 102.497 40.7572 102.647 40.7739Z" fill="black"/>
<path d="M107.949 40.2399C107.949 40.5403 108.066 40.5736 108.95 40.5736H109.951V44.7449C109.951 48.7993 109.968 48.9161 110.285 48.9161C110.602 48.9161 110.619 48.7826 110.652 44.7782L110.702 40.6571L111.753 40.607C112.654 40.557 112.788 40.5069 112.788 40.2399C112.788 39.9229 112.654 39.9062 110.369 39.9062C108.066 39.9062 107.949 39.9229 107.949 40.2399Z" fill="black"/>
<path d="M116.793 44.4122C116.793 48.8003 116.793 48.9171 117.127 48.9171C117.444 48.9171 117.46 48.8003 117.46 45.4967C117.46 43.6113 117.527 42.0763 117.611 42.0763C117.677 42.0763 118.929 43.4278 120.38 45.0963C121.832 46.7481 123.183 48.3165 123.4 48.5501L123.784 49.0006L123.801 44.4456C123.801 40.0241 123.801 39.9073 123.467 39.9073C123.15 39.9073 123.133 40.0241 123.133 43.4111C123.133 45.3299 123.083 46.9149 123.016 46.8983C122.933 46.8983 121.915 45.7637 120.714 44.3788C119.529 42.994 118.144 41.4256 117.677 40.875L116.793 39.8906V44.4122Z" fill="black"/>
<path d="M128.805 44.4112V48.9161H131.307C133.693 48.9161 133.81 48.8994 133.81 48.5824C133.81 48.282 133.677 48.2487 131.691 48.2153L129.556 48.1652L129.505 46.2799L129.455 44.4112H131.641C133.693 44.4112 133.81 44.3945 133.81 44.0775C133.81 43.7771 133.677 43.7438 131.691 43.7104L129.556 43.6603V42.1587V40.6571L131.691 40.607C133.677 40.5736 133.81 40.5403 133.81 40.2399C133.81 39.9229 133.693 39.9062 131.307 39.9062H128.805V44.4112Z" fill="black"/>
<path d="M138.152 44.3966V48.9182H138.569H138.987V46.7492C138.987 44.3632 139.07 44.1964 139.854 45.0306C140.071 45.2976 140.855 46.2653 141.573 47.1996C142.691 48.6846 142.941 48.9182 143.358 48.9182H143.842L142.891 47.7002C142.357 47.0495 141.639 46.1485 141.289 45.7314C140.939 45.2976 140.655 44.8638 140.655 44.7637C140.655 44.6636 140.939 44.5801 141.289 44.5801C142.057 44.5801 142.941 44.1463 143.391 43.5457C143.842 42.9116 143.842 41.5769 143.391 40.9428C142.824 40.192 142.24 40.0085 140.121 39.9417L138.152 39.875V44.3966ZM142.507 41.2098C143.058 41.8104 143.108 42.361 142.741 43.0952C142.39 43.7459 141.906 43.9127 140.305 43.9127H138.987V42.2276V40.5424L140.505 40.6091C141.973 40.6759 142.057 40.7092 142.507 41.2098Z" fill="black"/>
</mask>
<g mask="url(#mask0_945_1333)">
<path d="M170.354 -4.83594H-12.0117V57.5654H170.354V-4.83594Z" fill="white"/>
</g>
</svg>
