<svg width="192" height="51" viewBox="0 0 192 51" fill="none" xmlns="http://www.w3.org/2000/svg">
<g clip-path="url(#clip0_945_2078)">
<path d="M0 40.7973C1.96174 40.3381 3.13042 40.9225 4.03303 42.9208C5.92173 47.0947 11.5826 48.6599 15.6209 46.3955C16.4559 45.9229 17.1513 45.2382 17.6366 44.4105C18.122 43.5828 18.3801 42.6417 18.3849 41.6822C18.3896 40.7227 18.1409 39.779 17.6638 38.9466C17.1866 38.1141 16.4981 37.4225 15.6678 36.9416C14.2331 36.0912 12.6261 35.6999 11.0504 35.2042C9.29001 34.7272 7.56851 34.1168 5.90087 33.3782C0.187825 30.5764 -0.359988 23.7834 4.80523 20.0268C10.3722 15.9521 18.9757 18.3155 20.9165 24.4877C21.1983 25.3747 21.9913 26.606 20.4991 27.1642C19.1165 27.686 18.3183 26.9608 17.7444 25.599C15.9235 21.3051 12.5791 19.8599 8.27477 21.3051C6.41217 21.9416 5.14435 23.1468 4.86261 25.1816C4.57044 27.3677 5.28521 29.1103 7.2313 30.2738C8.90086 31.2651 10.753 31.7399 12.5948 32.2407C14.5462 32.7043 16.4101 33.4795 18.1148 34.5364C19.2972 35.2793 20.2674 36.3154 20.9312 37.544C21.5949 38.7726 21.9297 40.152 21.9029 41.5481C21.8761 42.9443 21.4887 44.3099 20.7784 45.5121C20.068 46.7143 19.0588 47.7125 17.8487 48.4095C11.1652 52.4425 3.24 49.7712 0 42.3886V40.7973Z" fill="white"/>
<path d="M191.999 45.4993C190.199 49.0837 187.006 50.195 183.333 50.1063C179.952 50.0333 176.973 48.9167 175.371 45.6298C174.886 44.6385 173.806 43.2245 175.21 42.4211C176.613 41.6176 177.604 42.5985 178.293 44.1376C179.707 47.315 183.933 48.468 186.97 46.7463C187.492 46.472 187.937 46.07 188.263 45.5777C188.588 45.0854 188.784 44.5188 188.832 43.9305C188.88 43.3423 188.778 42.7514 188.536 42.213C188.295 41.6745 187.921 41.2059 187.45 40.8506C186.461 40.138 185.345 39.6209 184.163 39.3271C182.415 38.8173 180.697 38.2093 179.018 37.5063C176.676 36.4628 175.324 34.5324 175.366 31.9654C175.408 29.2211 176.848 27.2019 179.342 26.0176C180.411 25.4834 181.576 25.1698 182.769 25.0954C183.961 25.021 185.157 25.1874 186.284 25.5847C187.411 25.9819 188.446 26.6019 189.329 27.4077C190.211 28.2135 190.922 29.1886 191.42 30.275C191.608 30.6663 191.811 31.0524 192.004 31.4385V32.4819C190.168 32.8732 188.749 32.7846 187.799 30.6454C186.756 28.2506 184.455 27.4576 181.877 28.0367C180.192 28.4124 179.039 29.3828 178.747 31.1306C178.595 31.9119 178.727 32.7218 179.119 33.4144C179.511 34.107 180.138 34.6367 180.886 34.908C182.33 35.4999 183.809 36.0017 185.316 36.4106C188.143 37.2559 190.679 38.4976 191.989 41.3567L191.999 45.4993Z" fill="white"/>
<path d="M127.305 40.015C127.305 42.4464 127.305 44.8777 127.305 47.3194C127.305 48.0864 127.352 48.9681 126.46 49.3385C125.567 49.709 124.675 49.8081 124.148 48.8794C123.449 47.6324 122.839 48.5977 122.254 48.8794C119.746 50.1319 116.875 50.4536 114.152 49.7872C111.355 49.109 109.524 47.4029 109.075 44.5124C108.821 43.2169 108.966 41.8746 109.492 40.6634C110.017 39.4522 110.898 38.4292 112.018 37.7298C114.46 36.0759 117.235 35.5907 120.162 35.3559C121.774 35.2255 124.112 35.8777 124.013 32.8464C123.924 29.9507 122.625 28.4898 119.807 28.3072C116.99 28.1246 114.59 28.662 113.547 31.7351C113.077 33.1698 112.007 33.3733 110.865 32.9298C109.555 32.4081 110.218 31.3072 110.505 30.4672C111.783 26.8151 116.072 24.5559 120.512 25.182C124.826 25.7872 127.033 28.1977 127.242 32.7264C127.352 35.1525 127.242 37.5838 127.242 40.0307L127.305 40.015ZM116.87 46.9959C121.044 47.0272 123.376 45.0811 123.955 41.4498C124.383 38.7942 123.893 38.2307 121.148 38.2412C119.329 38.1713 117.513 38.4439 115.795 39.0446C113.437 39.9681 112.388 41.6533 112.79 44.1211C113.218 46.7298 115.216 46.9333 116.87 46.9959Z" fill="white"/>
<path d="M69.5556 36.1463C69.9469 38.1706 68.8043 38.8176 66.7382 38.755C62.5643 38.6819 58.3903 38.7915 54.2425 38.7132C52.4895 38.6819 51.9365 39.235 52.2756 41.0089C52.9225 44.4002 55.0199 46.821 58.0147 47.3323C61.1452 47.8541 63.7173 46.5132 65.4756 43.3932C65.5591 43.2419 65.6321 43.0802 65.6999 42.9236C65.7935 42.6525 65.946 42.4055 66.1465 42.2003C66.347 41.9952 66.5905 41.837 66.8594 41.7373C67.1283 41.6375 67.416 41.5985 67.7018 41.6232C67.9876 41.648 68.2643 41.7357 68.5121 41.8802C69.7382 42.475 68.9452 43.555 68.5799 44.3584C66.1538 49.6697 59.1312 51.7567 53.8669 48.7671C49.8286 46.4715 47.6686 40.941 48.6025 35.2958C49.4999 29.8332 52.6304 26.3323 57.5086 25.341C63.9938 24.0263 69.4878 28.8471 69.5556 36.1463ZM58.8286 35.9949C60.4825 35.9949 62.1365 35.9271 63.7852 35.9949C66.1069 36.1149 66.4512 34.9515 65.8721 33.0524C64.8286 29.4732 62.246 27.5897 58.7399 27.8819C55.5104 28.1532 52.5939 31.1219 52.213 34.388C52.0773 35.5567 52.4634 35.995 53.5903 35.9532C55.3538 35.9741 57.0912 35.9897 58.8286 35.9949Z" fill="white"/>
<path d="M98.7935 23.3163C98.7935 29.8224 98.7935 36.3598 98.7935 42.8398C98.7935 44.6033 98.3865 46.6172 100.938 47.2068C101.496 47.3372 101.616 47.9424 101.527 48.5007C101.476 48.7517 101.355 48.983 101.178 49.1677C101.001 49.3525 100.774 49.483 100.526 49.5442C98.7465 50.2224 96.3883 49.1477 95.9552 47.259C95.6457 45.8172 95.4969 44.3456 95.5118 42.8711C95.4805 29.772 95.4805 16.6729 95.5118 3.57374C95.5118 3.052 95.5118 2.53026 95.5431 2.00852C95.6057 0.902431 95.7987 -0.0784299 97.2857 -0.0210386C98.6317 0.0311354 98.7622 0.938961 98.7831 1.95113C98.7831 2.64679 98.7831 3.34244 98.7831 4.03809L98.7935 23.3163Z" fill="white"/>
<path d="M78.6158 31.3114C78.6158 26.7097 78.6158 22.1027 78.6158 17.501C78.6158 16.348 78.2662 14.8349 80.1393 14.7827C82.1897 14.7253 81.8767 16.348 81.8819 17.5897C81.9132 26.2766 81.8819 34.9636 81.8819 43.6766C81.8819 45.1219 81.5897 46.7184 83.6558 47.1879C84.3341 47.3445 84.5271 47.9966 84.3862 48.6645C84.2454 49.3323 83.6662 49.5671 83.0401 49.7079C80.5775 50.2297 78.6575 48.6645 78.6106 45.9462C78.5375 41.0836 78.6106 36.2158 78.6106 31.3375L78.6158 31.3114Z" fill="white"/>
<path d="M32.2282 37.8674C32.2282 35.4361 32.2282 33.01 32.2282 30.5631C32.2282 29.4309 32.0821 28.4761 30.6212 28.4083C30.4704 28.4256 30.3176 28.4119 30.1723 28.3682C30.0269 28.3244 29.892 28.2515 29.7757 28.1538C29.6595 28.0562 29.5644 27.9358 29.4963 27.8002C29.4282 27.6645 29.3884 27.5164 29.3795 27.3648C29.3325 26.6605 29.656 26.1231 30.3812 26.1022C32.3168 26.0396 32.2177 24.7039 32.2438 23.3579C32.2438 22.2622 32.0821 20.9526 33.809 20.9005C35.6873 20.8379 35.609 22.2413 35.5412 23.4309C35.4368 25.2987 36.0995 26.2066 38.0612 26.0396C38.8438 25.9822 39.689 26.1126 39.6942 27.2239C39.6995 28.3352 38.8282 28.4605 38.0612 28.3874C35.7969 28.1683 35.5203 29.4674 35.5516 31.2779C35.6195 35.4518 35.5986 39.6257 35.5516 43.7631C35.5516 45.6257 35.9273 47.0448 38.1864 47.097C39.016 47.097 39.7516 47.4152 39.6734 48.4796C39.5951 49.5439 38.7864 49.6222 37.9882 49.7422C34.5029 50.264 32.4055 48.6465 32.249 45.13C32.1551 42.7039 32.249 40.2726 32.249 37.8257L32.2282 37.8674Z" fill="white"/>
<path d="M138.258 37.412C138.258 34.1981 138.258 30.979 138.258 27.7651C138.258 26.0381 139.573 24.9112 140.664 25.9755C142.229 27.4781 142.991 26.299 144.107 25.8816C144.671 25.6567 145.255 25.4821 145.85 25.3599C146.893 25.172 148.067 24.8746 148.458 26.2416C148.902 27.7181 147.676 27.8903 146.664 28.1981C143.163 29.2729 141.702 31.2294 141.571 35.4086C141.451 39.3164 141.535 43.2346 141.514 47.1425C141.514 48.2903 141.592 49.5529 139.891 49.506C138.191 49.459 138.258 48.212 138.258 47.059C138.222 43.8451 138.258 40.6312 138.258 37.412Z" fill="white"/>
<path d="M163.968 37.7109C163.968 40.9213 163.968 44.13 163.968 47.337C163.968 48.4326 163.916 49.497 162.403 49.5074C160.994 49.5074 160.681 48.5683 160.676 47.4204C160.676 40.9196 160.676 34.417 160.676 27.9126C160.676 26.817 160.817 25.7578 162.288 25.7422C163.931 25.7422 163.963 26.9057 163.963 28.09L163.968 37.7109Z" fill="white"/>
<path d="M162.032 10.9062C162.952 12.6532 164.351 14.1012 166.065 15.0802C164.849 16.2071 163.456 16.8019 162.804 18.2106C162.46 18.9828 161.917 18.941 161.515 18.1532C161.474 18.075 161.395 18.0123 161.38 17.9341C161.109 16.4262 158.082 16.4054 159.074 14.7097C159.752 13.5567 161.291 12.7062 162.032 10.9062Z" fill="white"/>
</g>
<defs>
<clipPath id="clip0_945_2078">
<rect width="192" height="50.2591" fill="white"/>
</clipPath>
</defs>
</svg>
