<svg width="214" height="51" viewBox="0 0 214 51" fill="none" xmlns="http://www.w3.org/2000/svg">
<g clip-path="url(#clip0_945_2097)">
<path d="M50.6575 25.3599C50.6575 32.0925 50.6575 38.8179 50.6575 45.5649C50.6575 49.7575 49.9358 50.5296 45.9381 50.5512C32.3575 50.6042 18.7768 50.6042 5.19617 50.5512C0.909824 50.5512 0.0727625 49.707 0.0583303 45.5C0.000601708 31.9193 0.058325 18.3387 0.0078125 4.75804C0.0078125 1.40257 1.35 0.00985003 4.74156 0.0314983C18.5628 0.118091 32.3839 0.118091 46.2051 0.0314983C49.3946 0.0314983 50.7801 1.17886 50.708 4.48383C50.5564 11.4257 50.6575 18.3964 50.6575 25.3599ZM46.7319 25.1651C46.7319 19.284 46.6525 13.3957 46.768 7.52181C46.8257 4.96732 46.0464 3.84881 43.3115 3.91375C31.5589 4.01959 19.7991 4.01959 8.03209 3.91375C5.18174 3.91375 4.25807 4.93842 4.27972 7.70939C4.37112 19.2263 4.37112 30.7479 4.27972 42.2744C4.27972 45.1609 5.1168 46.402 8.17642 46.3731C19.8184 46.2577 31.4603 46.2577 43.1022 46.3731C45.9886 46.3731 46.8402 45.2114 46.7752 42.4981C46.6381 36.6964 46.7319 30.9307 46.7319 25.1723V25.1651Z" fill="white"/>
<path d="M147.773 25.4458C147.773 16.3319 152.5 11.6632 161.304 12.1611C166.593 12.4569 170.107 15.5815 171.478 21.2245C174.105 31.9908 167.517 40.1522 157.472 38.543C151.244 37.6266 147.795 32.9217 147.773 25.4458ZM167.978 24.984C167.926 23.9262 167.806 22.8728 167.618 21.8306C166.68 17.6164 164.212 15.5526 160.12 15.4516C155.834 15.3434 153.2 17.3855 152.139 21.6791C151.418 24.3588 151.468 27.1879 152.284 29.8405C152.617 30.9659 153.196 32.0034 153.978 32.8782C154.761 33.753 155.728 34.4434 156.809 34.8996C157.891 35.3558 159.06 35.5665 160.233 35.5165C161.405 35.4664 162.552 35.1569 163.591 34.6103C167.365 32.6908 167.885 29.1188 168 24.984H167.978Z" fill="white"/>
<path d="M206.914 38.8277C203.233 38.6618 200.015 37.5649 198.341 33.9641C196.371 29.7355 196.602 25.4852 199.272 21.6968C201.199 18.9475 204.099 17.8795 207.505 18.5722C209.516 19.0086 211.292 20.1811 212.483 21.8593C213.674 23.5376 214.194 25.6004 213.942 27.6428C213.747 29.2592 212.802 29.6273 211.51 29.6561C208.999 29.7139 206.459 29.6561 203.962 29.7355C203.06 29.7355 201.877 29.4324 201.465 30.6087C201.134 31.5684 201.624 32.4993 202.187 33.293C203.941 35.7609 206.517 35.3785 209.042 35.2991C210.341 35.2991 212.448 33.5312 212.795 36.1506C213.062 38.2 210.882 38.2216 209.418 38.5535C208.589 38.6923 207.753 38.7839 206.914 38.8277Z" fill="white"/>
<path d="M62.65 25.0397C62.65 21.8069 62.65 18.5452 62.65 15.3413C62.65 13.2486 63.552 12.2167 65.6663 12.2817C67.9376 12.2449 70.2092 12.3316 72.471 12.5414C77.1398 13.263 79.5211 15.9258 79.5428 20.1544C79.5428 24.2603 77.046 27.1107 72.7308 28.1931C70.7969 28.6766 68.2857 27.4715 66.994 29.3766C65.8466 31.0507 66.6693 33.3454 66.5178 35.3659C66.4167 36.6864 66.5178 38.2523 64.6344 38.2523C62.751 38.2523 62.686 36.8091 62.6716 35.4525C62.6283 31.9888 62.65 28.5106 62.65 25.0397ZM66.5322 20.5585C66.6765 22.6439 65.724 25.3716 69.5701 25.184C73.4163 24.9964 75.5595 23.4233 75.6172 20.5008C75.675 17.5783 73.8204 16.1711 70.0681 15.9113C66.3157 15.6515 66.3807 17.9679 66.5322 20.5585Z" fill="white"/>
<path d="M82.7699 28.6883C82.7266 22.4031 86.3202 18.261 91.7828 18.2971C97.2454 18.3332 101.055 22.6268 101.034 28.6305C101.012 34.6343 97.368 38.7331 92.0714 38.798C86.4789 38.8918 82.806 34.8941 82.7699 28.6883ZM86.6017 28.4501C86.6017 33.2416 88.1892 35.3776 91.8549 35.3776C95.2393 35.3776 97.1443 33.0107 97.2021 28.746C97.2598 24.3081 95.2898 21.7969 91.7828 21.8258C88.2758 21.8546 86.6305 23.8607 86.5872 28.4501H86.6017Z" fill="white"/>
<path d="M114.095 28.2401C114.095 25.8372 113.994 23.4342 114.095 21.0241C114.203 19.0469 115.256 17.95 117.125 19.3644C118.193 20.1798 118.771 19.6819 119.658 19.3139C126.412 16.4851 130.742 19.3644 130.793 26.6743C130.793 29.4308 130.836 32.1945 130.793 34.9511C130.793 36.3077 131.139 38.2127 128.953 38.1406C126.918 38.0756 127.134 36.2067 127.091 34.8356C126.99 31.9492 127.091 29.0628 127.019 26.1763C127.019 23.9682 126.521 22.056 123.829 21.789C121.137 21.522 119.088 22.2652 118.294 25.1516C117.443 28.2257 118.02 31.3575 117.796 34.4532C117.688 35.8964 118.374 38.0612 116.043 38.1045C113.488 38.1478 114.145 35.8315 114.051 34.3017C113.936 32.2739 114.051 30.2246 114.051 28.1896L114.095 28.2401Z" fill="white"/>
<path d="M176.554 28.7539C176.554 26.2427 176.489 23.7026 176.554 21.2059C176.619 19.272 177.391 17.9659 179.441 19.5534C180.581 20.441 181.172 19.5967 181.981 19.2648C188.598 16.602 192.884 19.4019 192.949 26.4808C192.949 29.1147 193.043 31.7558 192.949 34.4185C192.877 35.8112 193.671 38.0266 191.354 38.1348C189.038 38.2431 189.673 35.97 189.608 34.5845C189.485 31.8351 189.608 29.0714 189.529 26.3149C189.464 23.9408 188.677 22.0718 185.877 21.8914C183.193 21.7182 181.194 22.4615 180.465 25.3984C179.737 28.3354 180.17 31.3661 179.946 34.3464C179.838 35.8329 180.74 38.2503 178.12 38.2214C175.674 38.2214 176.677 35.9122 176.605 34.5484C176.453 32.6434 176.605 30.7167 176.605 28.7755L176.554 28.7539Z" fill="white"/>
<path d="M142.389 38.7177C138.709 38.7826 136.616 37.0074 136.334 33.3633C136.14 30.8593 136.269 28.3121 136.241 25.8081C136.241 24.971 136.493 23.6866 136.06 23.3618C131.334 19.7971 137.157 18.159 137.503 15.5468C137.542 15.274 137.68 15.0251 137.892 14.8479C138.103 14.6707 138.372 14.5776 138.647 14.5865C138.923 14.5955 139.185 14.7058 139.384 14.8963C139.583 15.0869 139.705 15.3442 139.726 15.619C140.166 17.9859 141.27 18.9023 143.579 18.7796C143.79 18.7412 144.006 18.7517 144.212 18.8105C144.418 18.8692 144.607 18.9746 144.766 19.1183C144.924 19.2621 145.047 19.4404 145.126 19.6395C145.204 19.8385 145.235 20.053 145.217 20.2661C145.22 20.4775 145.177 20.6869 145.09 20.8795C145.003 21.0722 144.875 21.2434 144.714 21.3811C144.554 21.5187 144.365 21.6195 144.162 21.6762C143.958 21.7329 143.745 21.7443 143.536 21.7094C140.137 21.4857 139.928 23.6144 140.051 26.14C140.137 28.0595 140.051 29.979 140.051 31.9129C140.051 33.8468 140.556 35.2251 142.778 35.3982C143.911 35.4848 145.542 35.2756 145.369 37.0579C145.196 38.8403 143.5 38.5012 142.389 38.7177Z" fill="white"/>
<path d="M108.955 28.8973C108.955 31.2858 108.955 33.6744 108.955 36.0629C108.955 37.2319 108.522 38.2277 107.136 38.271C105.751 38.3143 105.267 37.3329 105.26 36.1062C105.231 31.0886 105.231 26.071 105.26 21.0534C105.26 19.8916 105.671 18.8886 107.071 18.8525C108.471 18.8164 108.926 19.8195 108.955 21.0173C108.998 23.644 108.955 26.2706 108.955 28.8973Z" fill="white"/>
<path d="M20.4138 18.7794C21.2437 16.8382 20.753 15.1713 20.9262 13.4972C21.0994 11.8231 20.6592 9.60051 23.091 9.66545C25.3713 9.7304 25.1043 12.0107 25.1765 13.6199C25.2919 16.1383 25.1764 18.6711 25.2486 21.1895C25.2578 22.1442 25.3962 23.0934 25.6599 24.011C25.862 24.6677 26.3815 25.3748 27.2258 25.2161C28.0701 25.0573 27.8608 24.2924 27.8753 23.7224C27.9258 22.041 27.8752 20.3525 27.9474 18.6711C27.9474 17.5454 28.2361 16.3692 29.5999 16.2682C31.2019 16.1527 31.5771 17.4588 31.6709 18.6783C31.8832 20.5954 31.9146 22.5282 31.7647 24.4512C31.2813 28.7448 32.4863 32.1724 36.0222 34.8279C37.0902 35.6289 38.5623 36.6536 37.8479 38.371C37.1335 40.0885 35.4882 39.8142 34.0738 39.8142C31.1874 39.872 28.301 39.7565 25.4146 39.8503C22.1745 39.9586 20.7891 38.4071 20.9406 35.2681C21.0056 33.9475 20.8107 32.6054 20.9406 31.3065C21.4602 27.0418 20.2767 23.5853 16.7553 20.8937C15.5502 19.97 13.5441 18.599 15.1172 16.8022C16.813 14.861 18.0036 17.1413 19.2376 18.0289C19.5262 18.231 19.8293 18.4113 20.4138 18.7794Z" fill="white"/>
</g>
<defs>
<clipPath id="clip0_945_2097">
<rect width="214" height="50.5775" fill="white"/>
</clipPath>
</defs>
</svg>
