<svg width="211" height="61" viewBox="0 0 211 61" fill="none" xmlns="http://www.w3.org/2000/svg">
<g clip-path="url(#clip0_945_970)">
<mask id="mask0_945_970" style="mask-type:alpha" maskUnits="userSpaceOnUse" x="-1" y="0" width="212" height="60">
<path d="M38.3427 0.405436C37.9424 0.618932 37.5421 1.07262 37.4621 1.39287C37.382 1.71312 36.7148 6.06317 35.9676 11.0537C35.247 16.0443 33.966 24.3174 33.1654 29.4681C31.5642 39.7961 31.4841 40.7836 32.2046 41.4241C32.9252 42.0912 33.1921 42.0112 34.8734 40.7035C37.9424 38.355 42.6127 35.3927 45.2014 34.1384C51.8999 30.8825 56.25 30.4288 60.7602 32.5371C62.228 33.231 63.082 33.8982 65.6173 36.5136C67.2986 38.2749 69.0866 39.8762 69.567 40.1431C70.6879 40.6768 72.3959 40.5967 72.5026 39.9562C72.6094 39.3424 68.7931 34.8856 66.3912 32.8841C64.2295 31.0427 61.5074 29.5748 59.2123 29.0411C57.0773 28.5073 53.1009 28.6141 50.4054 29.2813C46.002 30.3488 41.1182 32.8574 37.0084 36.1933C35.3538 37.5277 34.9268 37.7679 34.9268 37.3409C34.9268 35.9264 36.1544 27.5199 37.4621 19.994C39.3035 9.21228 40.3977 1.65974 40.2909 0.298684C40.2642 -0.128311 39.2234 -0.101626 38.3427 0.405436Z" fill="black"/>
<path d="M134.655 13.0572C134.175 13.4575 133.721 14.3649 133.107 16.233L132.227 18.875L131.026 19.0352C130.359 19.1152 126.382 19.3554 122.192 19.5956C113.706 20.0493 110.557 20.3695 109.969 20.8499C109.622 21.1435 109.676 21.2235 110.21 21.357C111.197 21.6505 117.362 21.5972 124.674 21.2502C128.33 21.0634 131.346 20.9567 131.373 20.9833C131.399 21.01 130.839 22.8248 130.118 24.9865C126.516 35.9016 126.382 41.933 129.718 43.641C131.72 44.6818 135.829 43.8278 139.512 41.6394C141.807 40.2784 145.117 37.8498 147.065 36.0618L148.559 34.674L148.533 36.0351C148.479 37.236 148.559 37.4762 149.28 38.0633C150.027 38.7305 150.134 38.7305 152.883 38.5971C155.925 38.437 158.514 37.7965 160.942 36.5955L162.49 35.8483L162.757 36.7023C163.131 37.8231 163.664 38.2501 164.465 38.0366C165.346 37.8231 165.452 37.4228 165.132 34.7541C164.785 31.5783 164.465 30.6709 163.744 30.6709C162.837 30.6709 162.49 31.0179 162.117 32.2989C161.823 33.2863 161.556 33.6065 160.355 34.3271C158.033 35.7415 154.564 36.729 152.429 36.5688C151.335 36.5155 151.175 35.6081 152.002 34.1136C153.043 32.1921 155.418 30.0838 158.087 28.7761C160.035 27.8154 160.649 27.6286 162.437 27.5485C164.305 27.4417 164.652 27.4951 166.066 28.2157C167.774 29.0697 168.441 29.043 169.109 28.0556C169.429 27.5485 169.376 27.4151 168.495 26.4276C167.08 24.8797 165.693 24.426 162.81 24.5861C158.674 24.8263 155.658 26.4276 148.079 32.4056C139.592 39.1041 136.31 41.079 133.374 41.2925C132.013 41.3993 131.8 41.3459 130.972 40.5986C130.145 39.8781 130.065 39.6646 129.985 37.9299C129.905 36.809 130.065 35.1544 130.332 33.82C130.839 31.258 134.121 21.0634 134.575 20.6364C134.735 20.4763 138.525 20.0226 143.275 19.6223C171.857 17.167 189.978 15.3523 190.272 14.8719C190.485 14.5517 190.298 13.8578 190.005 13.8578C188.911 13.8578 173.939 15.1922 164.225 16.1262C152.723 17.2738 135.269 18.7416 135.109 18.6082C135.082 18.5548 135.402 17.514 135.829 16.2597C136.79 13.3774 136.844 12.5234 135.963 12.5234C135.616 12.5234 135.029 12.7636 134.655 13.0572Z" fill="black"/>
<path d="M74.2928 13.9598C73.5189 15.1608 73.4922 16.335 74.2395 17.2157C74.7999 17.8562 75.0134 17.9363 75.4137 17.6961C76.0809 17.2958 76.2143 14.8672 75.6272 13.9598C75.0935 13.1592 74.8266 13.1592 74.2928 13.9598Z" fill="black"/>
<path d="M77.3592 15.1633C76.7187 16.3642 77.2524 18.6594 78.1598 18.6594C78.5601 18.6594 79.4942 17.2716 79.4942 16.6578C79.4942 15.9372 78.5334 14.6562 78.0264 14.6562C77.8129 14.6562 77.5193 14.8964 77.3592 15.1633Z" fill="black"/>
<path d="M71.6218 17.4292C71.088 18.7102 71.1147 19.6176 71.7552 20.2581C72.4224 20.9253 72.6893 20.9253 73.3831 20.2314C73.9969 19.6176 73.9169 18.8437 73.143 17.4826C72.4758 16.3617 72.0755 16.335 71.6218 17.4292Z" fill="black"/>
<path d="M79.3886 18.4423C78.8548 19.2162 78.8548 20.0969 79.3886 20.6306C80.2693 21.538 81.3368 20.8174 81.3635 19.2963C81.3635 17.8551 80.1625 17.3481 79.3886 18.4423Z" fill="black"/>
<path d="M74.8815 19.4835C74.6413 19.617 74.241 20.0973 74.0275 20.5243C73.814 20.9513 73.3337 21.5918 72.96 21.9654C72.1327 22.7928 72.0794 24.0471 72.8266 25.248C73.3603 26.1554 74.0809 26.3689 74.6413 25.8084C74.9082 25.5416 75.095 25.5416 75.4953 25.8084C76.2159 26.2354 76.9631 26.2087 77.3901 25.7017C77.6837 25.3281 77.7371 25.3281 77.9506 25.7017C78.3509 26.3956 79.2049 26.1821 79.7653 25.248C80.7794 23.6201 80.7528 23.2464 79.4718 21.9921C78.8313 21.3783 78.0573 20.5243 77.7638 20.124C77.15 19.3234 75.7088 19.0031 74.8815 19.4835Z" fill="black"/>
<path d="M180.028 23.569C177.519 24.2362 175.09 26.6648 173.916 29.6003C173.142 31.5485 173.089 35.1513 173.809 36.539C175.517 39.8216 178.346 40.9691 183.951 40.7289C189.475 40.4888 195.453 38.6206 203.192 34.6709C208.823 31.8153 210.798 30.5344 210.798 29.707C210.798 29.0665 210.745 29.0932 207.809 30.561C198.896 35.0178 190.329 37.9268 184.938 38.3004C179.734 38.674 176.532 36.6725 176.158 32.8028C176.105 32.1089 176.185 31.0948 176.371 30.5344C176.638 29.707 176.798 29.5736 177.279 29.7337C181.202 30.8813 185.445 29.0665 185.445 26.2111C185.445 23.6758 183.39 22.6617 180.028 23.569ZM182.109 26.0243C182.67 26.5847 182.51 26.9849 181.602 27.4119C180.748 27.8389 178.933 27.6254 179.12 27.1184C179.254 26.7181 180.882 25.5973 181.335 25.5973C181.522 25.5973 181.869 25.7841 182.109 26.0243Z" fill="black"/>
<path d="M116.188 24.7185C114.774 25.0655 111.998 26.3198 110.344 27.3872L108.502 28.5881L106.741 27.7608C103.965 26.4799 101.697 26.0529 98.4412 26.213C93.7709 26.4265 90.435 27.8676 87.2325 31.0434C86.3518 31.924 85.6046 32.5912 85.5512 32.5112C85.4978 32.4578 85.1776 31.7105 84.8573 30.8832C84.1634 29.1752 83.4696 28.4013 82.8024 28.6415C82.4554 28.7749 82.4021 29.0418 82.5355 29.9492C82.6156 30.563 82.8291 32.1642 83.0159 33.4986L83.3361 35.9271L82.5889 36.8879C80.614 39.4499 80.8809 42.6791 83.0959 43.1061C85.3377 43.5064 87.019 40.7576 86.4319 37.6085C86.2184 36.4342 86.245 36.0873 86.7254 35.1532C88.0331 32.6179 91.9028 30.0826 95.9326 29.2019C98.7081 28.5614 103.031 28.7482 105.193 29.5755C106.02 29.9225 106.714 30.2427 106.714 30.3228C106.714 30.4029 106.314 31.0167 105.807 31.7105C103.245 35.2333 102.978 37.4483 105.033 38.329C107.141 39.2097 112.852 38.3023 116.348 36.541C117.603 35.9005 117.923 35.8204 117.923 36.1406C117.923 37.048 118.724 38.1422 119.391 38.1422C120.218 38.1422 120.592 37.4483 120.592 35.8204C120.592 34.3793 119.951 31.5771 119.471 31.0167C118.75 30.136 117.656 30.9366 117.656 32.351C117.656 33.205 116.428 34.2458 114.187 35.2866C112.852 35.9271 111.998 36.1406 110.29 36.2207C106.848 36.4075 106.207 35.6603 107.808 33.2317C108.929 31.5504 111.198 29.7357 113.653 28.5614C115.468 27.6807 115.868 27.6007 117.923 27.6007C120.138 27.6007 121.179 27.8942 122.54 28.855C122.914 29.1485 123.127 29.1219 123.741 28.8016C125.235 27.9476 124.541 26.4265 122.14 25.2256C120.992 24.6385 120.405 24.5317 118.75 24.5584C117.629 24.5851 116.482 24.6385 116.188 24.7185Z" fill="black"/>
<path d="M15.6046 25.3597C10.4005 26.1069 6.18391 28.1617 2.92805 31.471C0.339373 34.0863 -0.621373 36.9686 0.392748 39.0769C1.62037 41.6922 7.49159 43.4269 12.7223 42.7064C15.4444 42.3327 20.2215 40.8116 21.6626 39.8508C22.65 39.2103 22.997 38.2496 22.3031 38.0094C22.1163 37.9293 21.0221 38.2229 19.8212 38.6499C15.4444 40.2511 10.1603 40.7582 6.82441 39.8775C4.84954 39.3704 4.12898 38.8634 3.56855 37.6891C3.14155 36.8085 3.14155 36.675 3.56855 35.6075C4.52929 33.0455 8.21216 30.27 12.3487 28.909C17.2859 27.3077 21.9829 27.0942 26.8666 28.2685C28.0942 28.562 29.3218 28.8022 29.5887 28.8022C30.1224 28.8022 30.5761 27.8148 30.2025 27.4679C29.7488 26.9875 25.1053 25.6265 23.1037 25.3597C20.7019 25.0127 17.873 25.0394 15.6046 25.3597Z" fill="black"/>
<path d="M75.9484 29.011C75.5748 29.4113 75.5481 30.1586 75.7883 35.7363C75.9217 39.1789 76.0819 42.1679 76.1619 42.3547C76.242 42.5415 76.5622 42.675 76.8825 42.6216C78.0033 42.4615 78.2435 41.0204 78.2168 34.989C78.1902 31.7598 78.0567 29.3847 77.8966 29.0644C77.5497 28.3972 76.5089 28.3705 75.9484 29.011Z" fill="black"/>
<path d="M116.111 51.2179C114.697 51.5381 113.923 52.4455 113.923 53.7799C113.923 55.0875 114.644 55.8615 116.138 56.155C118.06 56.5287 118.727 56.8489 118.727 57.3827C118.727 58.4768 116.458 58.5569 115.845 57.4894C115.658 57.1425 115.391 57.0891 114.644 57.2225C114.11 57.3293 113.656 57.5695 113.656 57.7563C113.656 58.4235 114.697 59.4109 115.738 59.7045C117.179 60.1315 117.873 60.1048 119.154 59.5176C120.008 59.144 120.355 58.7704 120.568 58.0765C121.155 56.3152 120.195 55.1676 117.606 54.5805C116.485 54.3403 116.165 54.1535 116.111 53.6998C115.925 52.4989 117.686 52.3654 118.593 53.513C118.887 53.8866 120.595 53.6998 120.595 53.2995C120.595 51.9117 118.14 50.7642 116.111 51.2179Z" fill="black"/>
<path d="M31.7266 51.4322C31.7266 51.539 32.5005 53.4338 33.4346 55.6222L35.1692 59.6253L36.1834 59.7053L37.1975 59.7854L38.6386 56.3694C39.4392 54.4746 40.2398 52.5531 40.4533 52.0727L40.8003 51.2188H39.6794H38.5318L37.4644 53.9142C36.8772 55.382 36.3168 56.663 36.2367 56.7164C36.13 56.7697 35.5429 55.5688 34.929 54.0209L33.8082 51.2188H32.7674C32.2069 51.2188 31.7266 51.3255 31.7266 51.4322Z" fill="black"/>
<path d="M44.8008 55.4887V59.7587H48.1367H51.4726V58.9581V58.1575H49.2042H46.9358V57.2234V56.2894H49.0708H51.2058V55.4887V54.6881H49.0708H46.9358V53.8875V53.0869H49.2042H51.4726V52.1528V51.2188H48.1367H44.8008V55.4887Z" fill="black"/>
<path d="M56.2773 55.4887V59.7587H57.3448H58.3857L58.4657 57.3302L58.5458 54.9283L60.6274 57.3302C62.5222 59.5185 62.8158 59.7587 63.6431 59.7587H64.5504V55.4887V51.2188H63.4829H62.4421L62.3621 53.7807L62.282 56.316L60.147 53.7807C58.2522 51.4856 57.932 51.2188 57.158 51.2188H56.2773V55.4887Z" fill="black"/>
<path d="M67.7578 52.1528V53.0869H69.0922H70.4266V56.4228V59.7587H71.494H72.5615V56.4228V53.0869H73.8959H75.2303V52.1528V51.2188H71.494H67.7578V52.1528Z" fill="black"/>
<path d="M78.6914 54.3145C78.6914 56.9832 78.7715 57.5437 79.2252 58.3176C80.2926 60.0256 83.0414 60.4793 84.6694 59.1983C85.9237 58.2108 86.1639 57.3835 86.1639 54.1544V51.2188H85.2298H84.2958V53.5939C84.2958 56.1826 83.9755 57.4903 83.2283 57.8906C82.4543 58.3176 81.9206 58.2108 81.2267 57.4903C80.6129 56.8765 80.5595 56.663 80.5595 54.0209V51.2188H79.6255H78.6914V54.3145Z" fill="black"/>
<path d="M90.7031 55.4607V59.7574H91.7706H92.8381V58.2896C92.8381 57.2488 92.9449 56.8218 93.1851 56.8218C93.3719 56.8218 94.1191 57.489 94.813 58.2896C95.9872 59.6773 96.1474 59.7574 97.2682 59.7574H98.4958L97.2682 58.3697C95.9872 56.9019 95.8271 56.5549 96.3875 56.5549C96.601 56.5549 97.028 56.2347 97.4017 55.861C98.3357 54.8469 98.309 53.0856 97.2949 52.0981C96.601 51.3776 96.4142 51.3509 93.6387 51.2708L90.7031 51.1641V55.4607ZM95.9872 53.8595C96.1207 54.7402 95.4268 55.2205 93.9857 55.2205H92.8381V54.153V53.0589L94.386 53.1389C95.7737 53.219 95.9072 53.2724 95.9872 53.8595Z" fill="black"/>
<path d="M102.711 55.4887V59.7587H105.993H109.303L109.169 58.9581L109.063 58.1842L106.874 58.1041L104.712 58.024L104.632 57.1434L104.552 56.2894H106.687H108.849V55.4887V54.6881H106.714H104.579V53.8875V53.0869H106.847H109.116V52.1528V51.2188H105.913H102.711V55.4887Z" fill="black"/>
</mask>
<g mask="url(#mask0_945_970)">
<path d="M235.109 -9.60938H-23.4922V73.9222H235.109V-9.60938Z" fill="white"/>
</g>
</g>
<defs>
<clipPath id="clip0_945_970">
<rect width="210.83" height="60.0466" fill="white"/>
</clipPath>
</defs>
</svg>
