<svg width="216" height="44" viewBox="0 0 216 44" fill="none" xmlns="http://www.w3.org/2000/svg">
<g clip-path="url(#clip0_945_1025)">
<path d="M17.4787 34.6499C12.6812 34.6499 7.87239 34.5821 3.08621 34.6499C0.967175 34.6895 0.000894851 34.0001 0.0121964 31.7511C0.0743546 21.8736 0.0122005 11.9735 0.0517558 2.11289C0.0517558 1.4009 -0.230786 0.417668 0.577272 0.0673212C1.48704 -0.350835 1.82044 0.666297 2.31206 1.15791C4.71363 3.54253 6.97957 6.07406 9.50545 8.31741C11.5171 10.1087 12.1952 12.1091 12.15 14.7649C12.0144 22.5291 12.1105 22.676 19.7503 22.4838C22.6378 22.4217 24.7455 23.2241 26.6272 25.4279C28.7011 27.8521 31.1139 29.9824 33.3516 32.2653C33.8489 32.7739 34.7643 33.2259 34.4479 34.0622C34.1314 34.8985 33.1426 34.6273 32.4419 34.6273C27.4523 34.6612 22.4683 34.6499 17.4787 34.6499Z" fill="white"/>
<path d="M75.6395 36.0207C72.622 33.1389 72.5711 32.4382 75.1761 29.3529C75.6847 28.7539 75.9616 28.3527 75.3626 27.7028C73.5205 25.7081 73.317 23.4591 74.7975 21.261C76.4928 18.7577 79.0639 17.9496 81.9514 18.2943C83.9687 18.5373 85.8617 19.3793 87.9807 18.3847C89.06 17.8762 89.4499 18.8877 89.0431 19.8765C88.7323 20.6281 88.0372 21.1253 88.0316 22.1368C88.0316 26.8778 86.1217 28.9177 81.4485 29.3472C80.8838 29.3785 80.3179 29.3785 79.7533 29.3472C79.1882 29.3472 78.4875 29.3472 78.4253 30.0535C78.3405 30.9577 79.1373 31.0424 79.7985 31.0707C81.1094 31.1215 82.4261 31.0707 83.754 31.1385C87.2518 31.291 89.3708 32.6246 89.9698 34.998C90.5688 37.3713 89.1392 40.1514 86.3985 41.745C83.7872 43.2976 80.7051 43.8611 77.7133 43.3328C75.7356 43.0051 73.69 42.666 73.0063 40.3831C72.3225 38.1002 74.2381 37.2865 75.6395 36.0207ZM81.9288 36.292V36.3937C81.176 36.3477 80.4212 36.3477 79.6685 36.3937C78.3236 36.5519 77.346 37.3091 77.2161 38.654C77.0861 39.9989 77.9733 40.9482 79.2673 41.2986C81.4089 41.8636 83.3358 41.2138 85.1045 40.0497C85.4193 39.8052 85.6551 39.4734 85.7825 39.0957C85.9098 38.7181 85.923 38.3112 85.8206 37.926C85.7181 37.5409 85.5044 37.1944 85.2062 36.9299C84.9081 36.6654 84.5386 36.4946 84.1439 36.4389C83.4087 36.3506 82.6692 36.3016 81.9288 36.292Z" fill="white"/>
<path d="M207.166 13.3526C214.76 9.99603 214.76 9.99604 214.76 17.5285C214.76 21.484 214.76 25.4395 214.76 29.3668C214.76 30.1183 215.009 30.9038 214.851 31.6271C214.619 32.6216 217.416 33.4353 215.02 34.4525C211.884 35.7691 209.607 35.3227 208.601 33.2037C205.86 35.2662 202.95 36.3624 199.876 33.9835C197.407 32.0848 196.424 28.0841 197.458 24.6936C198.024 22.9367 199.096 21.3858 200.539 20.235C201.983 19.0842 203.733 18.3845 205.572 18.2235C206.663 18.1162 208.189 19.3028 208.821 17.6584C209.454 16.0141 208.946 14.4827 207.166 13.3526ZM208.923 26.0272H208.878C208.94 24.7223 208.929 23.4149 208.844 22.1112C208.708 20.8624 207.816 20.1674 206.584 20.0035C206.074 19.9121 205.548 19.9808 205.078 20.2004C204.609 20.42 204.219 20.7795 203.962 21.2297C202.707 23.1849 202.832 28.5757 204.126 30.4518C204.426 30.9342 204.875 31.3056 205.405 31.5096C205.936 31.7136 206.518 31.7389 207.064 31.5819C207.577 31.4908 208.044 31.225 208.383 30.8296C208.723 30.4341 208.916 29.9333 208.929 29.412C208.985 28.2536 208.923 27.1574 208.923 26.0272Z" fill="white"/>
<path d="M99.4467 34.5316C96.8042 34.8451 94.1324 34.8205 91.4961 34.4581C92.8918 32.9607 92.7054 31.3502 92.7054 29.7737C92.7054 25.2531 93.5417 20.5291 92.4511 16.291C91.3605 12.0529 93.7677 12.2225 96.1467 11.4483C97.8871 10.8832 98.6104 11.324 98.5595 13.1887C98.4917 15.449 98.5595 17.7093 98.5595 19.9696C99.814 20.2352 100.385 19.2802 101.187 18.9299C105.143 17.2347 108.533 19.2011 108.748 23.4957C108.867 25.756 108.821 28.0163 108.748 30.2766C108.708 31.8927 108.748 33.4354 110.748 34.4977C108.008 35.4753 105.663 35.0289 103.402 35.0119C102.589 35.0119 102.091 34.8198 102.645 33.6049C104.058 30.5026 103.267 27.1574 103.142 23.9195C103.103 22.7894 102.057 22.2243 100.882 22.2243C99.7067 22.2243 98.7291 22.8628 98.6895 24.0043C98.5539 27.4512 97.8306 31.0055 99.4467 34.5316Z" fill="white"/>
<path d="M148.041 20.7175C150.612 18.5815 153.127 17.2366 156.139 19.2426C158.681 20.9379 160.032 24.8538 159.303 28.2838C158.991 30.0074 158.152 31.5919 156.902 32.8193C155.652 34.0467 154.053 34.8568 152.324 35.1382C152.134 35.1459 151.945 35.1686 151.759 35.206C150.454 35.6185 148.25 34.2567 147.939 36.3814C147.628 38.5061 146.809 41.1054 149.341 42.778C147.188 43.733 143.475 43.7839 140.633 42.8119C142.531 41.8739 142.328 40.2521 142.328 38.6925C142.328 34.2793 142.328 29.866 142.328 25.4528C142.246 24.7021 142.234 23.9453 142.294 23.1925C142.509 22.0963 140.39 21.1809 141.791 20.3106C143.348 19.4485 145.048 18.8743 146.809 18.6154C148.081 18.3894 147.527 19.8699 148.041 20.7175ZM147.696 27.6566H147.809C147.809 28.6907 147.73 29.7361 147.809 30.7589C147.945 32.149 148.504 33.3921 150.036 33.6521C151.567 33.912 152.516 32.8384 152.991 31.55C153.977 28.9799 153.977 26.1356 152.991 23.5655C152.832 23.0142 152.491 22.5327 152.025 22.1985C151.558 21.8643 150.993 21.6969 150.42 21.7233C148.951 21.7685 148.199 22.7744 147.922 24.0175C147.758 25.2234 147.683 26.4397 147.696 27.6566Z" fill="white"/>
<path d="M42.4531 34.7213C43.2848 26.7876 43.3 18.7894 42.4983 10.8525C44.866 10.5531 47.8383 10.6321 51.596 10.9373C49.5166 12.5591 49.7595 14.2769 49.7595 15.9382C49.7595 20.7357 49.7256 25.5445 49.7595 30.3363C49.7595 33.1617 50.8332 33.8398 53.4608 32.7436C55.7211 31.8055 56.8512 29.8843 57.9305 27.8556C58.3091 27.1267 58.6369 26.0192 59.6258 26.2508C60.7898 26.5164 60.1908 27.6522 60.1908 28.4207C59.8348 34.7157 59.8235 34.7157 53.6247 34.7213H42.4531Z" fill="white"/>
<path d="M176.862 30.1952C176.116 33.1675 174.308 34.5181 171.957 35.0379C168.742 35.7612 165.741 35.1679 163.549 32.4725C162.362 30.9915 161.697 29.1599 161.658 27.2623C161.619 25.3646 162.208 23.5073 163.334 21.9791C165.543 18.8825 169.866 17.4585 173.336 18.6225C174.056 18.8341 174.724 19.1951 175.295 19.6819C175.867 20.1687 176.329 20.7704 176.653 21.4479C177.913 24.1885 177.094 25.539 174.127 25.5616C172.72 25.5616 171.302 25.6068 169.9 25.5221C167.6 25.3751 167.391 26.477 168.041 28.3079C169.098 31.2632 171.595 32.4499 174.585 31.3084C175.246 31.0767 175.856 30.6982 176.862 30.1952Z" fill="white"/>
<path d="M194.294 30.5474C193.61 33.1355 191.807 34.5029 189.44 35.0228C186.349 35.6953 183.41 35.2545 181.201 32.6834C179.986 31.2285 179.278 29.4177 179.183 27.5246C179.088 25.6315 179.612 23.759 180.675 22.19C181.713 20.6711 183.186 19.5019 184.9 18.8363C186.615 18.1706 188.491 18.0395 190.282 18.4605C191.02 18.6123 191.721 18.9131 192.339 19.3445C192.958 19.7758 193.483 20.3287 193.881 20.9694C194.576 22.1448 195.011 23.4614 194.373 24.7272C193.734 25.9929 192.395 25.5013 191.327 25.5521C190.259 25.603 189.067 25.5521 187.936 25.5521C184.953 25.5861 184.433 26.4224 185.727 29.1065C186.897 31.5363 189.332 32.4235 191.886 31.4628C192.655 31.1973 193.141 30.2818 194.294 30.5474Z" fill="white"/>
<path d="M130.485 35.2518L127.688 34.828C125.123 34.4438 125.179 32.6581 125.654 30.7934C125.976 29.5558 126.744 29.1998 127.558 30.4599C128.276 31.5901 128.88 32.8107 130.101 33.4097C131.542 34.116 133.186 34.3081 134.056 32.6581C134.927 31.0081 133.491 30.2791 132.327 29.6632C130.994 28.9682 129.502 28.5331 128.259 27.725C124.93 25.6568 125.106 21.1249 128.49 19.1641C131.361 17.5084 134.373 18.4238 137.322 18.6668C138.453 18.7629 138.114 20.023 138.114 20.7972C138.114 21.7861 138.605 23.0575 137.65 23.7017C136.825 24.2667 136.401 23.21 135.955 22.6563C135.147 21.6391 134.621 20.3169 133.186 19.9835C132.129 19.7405 131.056 19.7518 130.525 20.9328C130.05 21.9951 130.655 22.7862 131.525 23.2779C132.582 23.8768 133.723 24.3233 134.836 24.8318C138.091 26.3123 139.402 28.2618 138.859 30.8159C138.317 33.3701 136.034 35.0766 132.723 35.2462C132.259 35.2688 131.79 35.2518 130.485 35.2518Z" fill="white"/>
<path d="M119.1 35.2506C116.303 35.2506 114.325 33.465 114.11 30.5831C113.975 28.7183 114.076 26.831 114.054 24.9323C114.054 23.384 114.455 21.5758 111.986 21.4345C111.421 21.4345 111.036 20.7282 111.421 20.4682C113.681 18.9651 114.161 15.4504 117.467 15.1904C117.749 15.1904 118.201 14.9983 118.275 15.1C119.524 16.9026 120.4 19.0556 122.959 19.4737C122.901 19.8986 122.715 20.2959 122.426 20.6135C122.138 20.9311 121.761 21.1542 121.343 21.2537C119.541 21.6831 119.315 22.9037 119.377 24.4351C119.439 25.8421 119.416 27.2604 119.377 28.6618C119.326 30.843 119.654 32.5891 122.49 32.6173C123.847 32.6173 123.394 33.4876 122.75 34.0357C121.726 34.8792 120.425 35.3122 119.1 35.2506Z" fill="white"/>
<path d="M71.8388 34.5641C69.0129 35.1681 66.0953 35.2046 63.2553 34.6714C64.7471 30.23 64.8996 25.8902 63.3965 21.5222C63.3344 21.3526 63.0462 21.1492 63.0857 21.0757C64.1198 19.0415 66.3688 19.4879 68.0245 18.7194C69.1546 18.1882 69.7649 18.8268 69.7593 20.0699C69.7593 23.3643 69.7593 26.653 69.7593 29.9474C69.7706 31.5861 69.4598 33.3153 71.8388 34.5641Z" fill="white"/>
<path d="M66.7533 10.8281C68.5954 11.0316 69.8782 11.93 69.946 13.7835C70.0194 15.733 68.8667 16.9988 66.9002 17.0722C65.0581 17.14 63.8714 16.0664 63.781 14.196C63.7019 12.19 64.9168 11.1615 66.7533 10.8281Z" fill="white"/>
</g>
<defs>
<clipPath id="clip0_945_1025">
<rect width="216" height="43.5447" fill="white"/>
</clipPath>
</defs>
</svg>
