<svg width="149" height="48" viewBox="0 0 149 48" fill="none" xmlns="http://www.w3.org/2000/svg">
<path d="M106.661 26.0607C109.508 26.0607 112.363 25.9063 115.197 26.09C122.752 26.5867 126.509 31.9338 124.434 38.9923C123.182 43.1915 120.031 44.8946 116.04 45.3412C110.092 46.0091 104.115 45.6334 98.1456 45.6793C96.6972 45.6793 95.9917 45.0574 96.0001 43.5463C96.0307 38.4093 96.0307 33.2723 96.0001 28.1353C96.0001 26.6618 96.6053 25.9814 98.1205 26.0106C100.967 26.0566 103.814 26.0106 106.661 26.0106V26.0607ZM108.978 41.0627C110.159 41.0627 111.34 41.1044 112.521 41.0627C116.103 40.9208 117.898 39.2928 118.01 36.1288C118.127 32.7143 116.341 30.6815 112.743 30.4812C110.042 30.3351 107.316 30.4519 104.62 30.4269C103.401 30.4269 102.846 30.9821 102.854 32.2009C102.874 34.5607 102.874 36.9261 102.854 39.297C102.854 40.5033 103.388 41.1044 104.607 41.1002C106.064 41.0585 107.521 41.0627 108.986 41.0627H108.978Z" fill="white"/>
<path d="M83.6055 0V0.413886H85.261L83.6055 0Z" fill="white"/>
<path d="M85.2617 0V0.413886H87.745L85.2617 0Z" fill="white"/>
<path d="M87.7422 0V0.413886H89.8116L87.7422 0ZM129.821 0.137821L130.096 0.276065L129.821 0.137821Z" fill="white"/>
<path d="M130.375 0V0.413886H135.756L130.375 0Z" fill="white"/>
<path d="M135.754 0V0.413886H136.996L135.754 0Z" fill="white"/>
<path d="M0.414062 0.414062V20.6945H0.827949C0.827949 14.9878 2.61139 5.65055 0.414062 0.414062Z" fill="white"/>
<path d="M0.828125 0.416904V0.83079L10.7614 1.24468C8.44364 -0.511029 3.66325 0.416904 0.828125 0.416904Z" fill="white"/>
<path d="M10.3477 0.414062L10.7615 0.827949L10.3477 0.414062ZM23.592 0.414062L24.0059 0.827949L23.592 0.414062Z" fill="white"/>
<path d="M23.5938 0.829816V1.2437L33.1131 0.829816V20.6964C34.772 16.7433 33.527 10.0893 33.527 5.79645C33.527 4.4923 34.0303 1.76561 32.8636 0.841405C31.1724 -0.497932 25.5254 0.258653 23.5938 0.829816Z" fill="white"/>
<path d="M33.1094 0.414062L33.5233 0.827949L33.1094 0.414062Z" fill="white"/>
<path d="M49.2539 0.414062V0.827949H57.9455L49.2539 0.414062Z" fill="white"/>
<path d="M57.9453 0.414062L58.3592 0.827949L57.9453 0.414062ZM80.7091 0.414062L81.123 0.827949L80.7091 0.414062Z" fill="white"/>
<path d="M81.3984 0.554688L81.6741 0.692925L81.3984 0.554688Z" fill="white"/>
<path d="M82.2266 0.554688L82.5022 0.692925L82.2266 0.554688Z" fill="white"/>
<path d="M95.1923 18.6288V20.6983H100.987V9.10945H85.2591V12.8344H94.3646C91.4144 16.5673 77.7644 17.5883 78.5218 10.3511C79.4233 1.73896 91.0266 7.28876 95.1923 7.81274C97.0801 8.05031 99.0853 7.86779 100.987 7.86779C98.0875 -1.89289 79.4171 -1.98313 73.3445 4.59518C68.4453 9.90245 71.8508 17.9968 78.223 19.964C80.5354 20.678 82.866 20.6983 85.2591 20.6983C88.8814 20.6979 91.8266 19.9272 95.1923 18.6288Z" fill="white"/>
<path d="M90.918 0.554688L91.1936 0.692925L90.918 0.554688Z" fill="white"/>
<path d="M91.4688 0.414062L91.8826 0.827949L91.4688 0.414062Z" fill="white"/>
<path d="M91.8828 0.414062L92.2967 0.827949L91.8828 0.414062Z" fill="white"/>
<path d="M105.543 0.414062L105.957 0.827949L105.543 0.414062Z" fill="white"/>
<path d="M105.541 20.6923H105.954V0.825768H113.404C111.946 0.21363 107.084 -0.336426 105.966 1.07534C105.002 2.29217 105.541 5.15875 105.541 6.62018V20.6923Z" fill="white"/>
<path d="M126.648 0.414062L127.062 0.827949L126.648 0.414062Z" fill="white"/>
<path d="M127.34 0.554688L127.615 0.692925L127.34 0.554688Z" fill="white"/>
<path d="M128.168 0.554688L128.444 0.692925L128.168 0.554688Z" fill="white"/>
<path d="M148.585 12.4212C146.49 12.4212 144.005 12.0537 141.963 12.5524C137.215 13.7121 134.526 16.5022 129.133 14.8131C120.088 11.9809 128.111 5.40668 134.099 5.83629C137.164 6.05648 138.635 7.80846 141.253 8.8618C143.293 9.68213 146.409 9.11014 148.585 9.11014C148.146 4.84131 144.676 2.21106 140.722 1.20325C132.917 -0.785475 116.982 -0.458917 117.138 10.7657C117.289 21.6592 132.627 21.8578 140.308 20.1977C144.43 19.3062 148.124 16.9016 148.585 12.4212Z" fill="white"/>
<path d="M138.102 0.554688L138.377 0.692925L138.102 0.554688Z" fill="white"/>
<path d="M138.652 0.414062L139.066 0.827949L138.652 0.414062Z" fill="white"/>
<path d="M139.066 0.414062L139.48 0.827949L139.066 0.414062Z" fill="white"/>
<path d="M0.828125 0.823746V20.6903H7.8642V10.3431H8.27808C9.59424 14.5027 14.13 24.2299 20.0283 20.2648C23.0956 18.2033 23.8402 12.956 26.4891 10.3431V20.6903H33.1113V0.823746C30.5928 0.823746 26.8119 0.113522 24.4631 1.07332C21.4761 2.29429 18.5847 9.54268 17.3836 12.4126H16.5558C15.7342 9.61925 12.652 2.25125 9.85706 1.07332C7.447 0.0580611 3.42526 0.823746 0.828125 0.823746Z" fill="white"/>
<path d="M48.8398 0.828125L49.2537 1.24201L48.8398 0.828125Z" fill="white"/>
<path d="M36.0078 20.6936L43.3336 20.4441L47.189 17.5142L57.9438 17.3846L63.0673 20.4441L70.7743 20.6936C68.3833 15.6393 64.7448 10.8775 61.6675 6.20762C60.6754 4.70232 59.5224 1.84236 57.8076 1.07667C56.1036 0.316359 50.9508 0.329191 49.3283 1.25257C47.4249 2.33571 46.1596 5.26189 44.9755 7.03539C41.9922 11.5021 38.3103 15.8268 36.0078 20.6936Z" fill="white"/>
<path d="M79.0547 0.828125L79.4686 1.24201L79.0547 0.828125Z" fill="white"/>
<path d="M79.4648 0.828125L79.8787 1.24201L79.4648 0.828125Z" fill="white"/>
<path d="M79.8789 0.828125L80.2928 1.24201L79.8789 0.828125ZM92.7094 0.828125L93.1233 1.24201L92.7094 0.828125Z" fill="white"/>
<path d="M93.125 0.828125L93.5389 1.24201L93.125 0.828125Z" fill="white"/>
<path d="M93.5391 0.828125L93.9529 1.24201L93.5391 0.828125Z" fill="white"/>
<path d="M105.957 0.828125V20.6947H113.407V0.828125H105.957Z" fill="white"/>
<path d="M124.992 0.828125L125.406 1.24201L124.992 0.828125Z" fill="white"/>
<path d="M125.41 0.828125L125.824 1.24201L125.41 0.828125Z" fill="white"/>
<path d="M125.82 0.828125L126.234 1.24201L125.82 0.828125ZM139.892 0.828125L140.306 1.24201L139.892 0.828125Z" fill="white"/>
<path d="M140.309 0.828125L140.722 1.24201L140.309 0.828125Z" fill="white"/>
<path d="M140.722 0.828125L141.136 1.24201L140.722 0.828125ZM10.7617 1.24201L11.1756 1.6559L10.7617 1.24201Z" fill="white"/>
<path d="M23.1797 1.24219L23.5936 1.65607L23.1797 1.24219Z" fill="white"/>
<path d="M48.4258 1.24219L48.8397 1.65607L48.4258 1.24219Z" fill="white"/>
<path d="M58.3594 1.24219L58.7733 1.65607L58.3594 1.24219Z" fill="white"/>
<path d="M77.8125 1.24219L78.2264 1.65607L77.8125 1.24219Z" fill="white"/>
<path d="M78.2266 1.24219L78.6404 1.65607L78.2266 1.24219ZM94.3681 1.24219L94.782 1.65607L94.3681 1.24219Z" fill="white"/>
<path d="M94.7812 1.24219L95.1951 1.65607L94.7812 1.24219ZM123.753 1.24219L124.167 1.65607L123.753 1.24219Z" fill="white"/>
<path d="M124.168 1.24219L124.582 1.65607L124.168 1.24219Z" fill="white"/>
<path d="M141.551 1.24219L141.965 1.65607L141.551 1.24219Z" fill="white"/>
<path d="M141.965 1.24219L142.379 1.65607L141.965 1.24219Z" fill="white"/>
<path d="M10.7617 1.65625L11.1756 2.07014L10.7617 1.65625Z" fill="white"/>
<path d="M58.7734 1.65625L59.1873 2.07014L58.7734 1.65625Z" fill="white"/>
<path d="M76.9844 1.65625L77.3983 2.07014L76.9844 1.65625Z" fill="white"/>
<path d="M77.3945 1.65625L77.8084 2.07014L77.3945 1.65625Z" fill="white"/>
<path d="M95.6094 1.65625L96.0233 2.07014L95.6094 1.65625ZM122.926 1.65625L123.34 2.07014L122.926 1.65625Z" fill="white"/>
<path d="M123.34 1.65625L123.754 2.07014L123.34 1.65625Z" fill="white"/>
<path d="M142.792 1.65625L143.206 2.07014L142.792 1.65625ZM11.1758 2.07014L11.5897 2.48402L11.1758 2.07014ZM22.7646 2.07014L23.1785 2.48402L22.7646 2.07014Z" fill="white"/>
<path d="M48.0117 2.07031L48.4256 2.4842L48.0117 2.07031Z" fill="white"/>
<path d="M76.1562 2.07031L76.5701 2.4842L76.1562 2.07031ZM96.4367 2.07031L96.8506 2.4842L96.4367 2.07031ZM122.098 2.07031L122.512 2.4842L122.098 2.07031ZM143.62 2.07031L144.034 2.4842L143.62 2.07031Z" fill="white"/>
<path d="M22.3516 2.48438L22.7654 2.89826L22.3516 2.48438ZM47.5986 2.48438L48.0125 2.89826L47.5986 2.48438Z" fill="white"/>
<path d="M59.1875 2.48438L59.6014 2.89826L59.1875 2.48438ZM75.3291 2.48438L75.743 2.89826L75.3291 2.48438Z" fill="white"/>
<path d="M97.2617 2.48438L97.6756 2.89826L97.2617 2.48438ZM121.267 2.48438L121.681 2.89826L121.267 2.48438ZM144.445 2.48438L144.859 2.89826L144.445 2.48438Z" fill="white"/>
<path d="M11.5898 2.89844L12.0037 3.31232L11.5898 2.89844Z" fill="white"/>
<path d="M22.3516 2.89844L22.7654 3.31232L22.3516 2.89844Z" fill="white"/>
<path d="M59.6016 2.89844L60.0154 3.31232L59.6016 2.89844Z" fill="white"/>
<path d="M74.9141 2.89844L75.3279 3.31232L74.9141 2.89844Z" fill="white"/>
<path d="M97.6797 2.89844L98.0936 3.31232L97.6797 2.89844Z" fill="white"/>
<path d="M120.855 2.89844L121.269 3.31232L120.855 2.89844Z" fill="white"/>
<path d="M144.859 2.89844L145.273 3.31232L144.859 2.89844Z" fill="white"/>
<path d="M21.9375 3.3125L22.3514 3.72639L21.9375 3.3125Z" fill="white"/>
<path d="M47.1836 3.3125L47.5975 3.72639L47.1836 3.3125ZM59.6002 3.3125L60.0141 3.72639L59.6002 3.3125Z" fill="white"/>
<path d="M74.0859 3.3125L74.4998 3.72639L74.0859 3.3125Z" fill="white"/>
<path d="M98.0898 3.3125L98.5037 3.72639L98.0898 3.3125Z" fill="white"/>
<path d="M120.027 3.3125L120.441 3.72639L120.027 3.3125Z" fill="white"/>
<path d="M145.273 3.3125L145.687 3.72639L145.273 3.3125Z" fill="white"/>
<path d="M145.688 3.3125L146.101 3.72639L145.688 3.3125Z" fill="white"/>
<path d="M12.0039 3.72656L12.4178 4.14045L12.0039 3.72656Z" fill="white"/>
<path d="M21.9375 3.72656L22.3514 4.14045L21.9375 3.72656Z" fill="white"/>
<path d="M46.7695 3.72656L47.1834 4.14045L46.7695 3.72656Z" fill="white"/>
<path d="M60.0117 3.72656L60.4256 4.14045L60.0117 3.72656ZM73.67 3.72656L74.0839 4.14045L73.67 3.72656Z" fill="white"/>
<path d="M98.5039 3.72656L98.9178 4.14045L98.5039 3.72656Z" fill="white"/>
<path d="M119.615 3.72656L120.028 4.14045L119.615 3.72656ZM146.103 3.72656L146.517 4.14045L146.103 3.72656ZM12.418 4.14045L12.8319 4.55434L12.418 4.14045Z" fill="white"/>
<path d="M21.5234 4.14062L21.9373 4.55451L21.5234 4.14062Z" fill="white"/>
<path d="M60.4297 4.14062L60.8436 4.55451L60.4297 4.14062Z" fill="white"/>
<path d="M73.2578 4.14062L73.6717 4.55451L73.2578 4.14062Z" fill="white"/>
<path d="M98.9219 4.14062L99.3358 4.55451L98.9219 4.14062Z" fill="white"/>
<path d="M119.199 4.14062L119.613 4.55451L119.199 4.14062Z" fill="white"/>
<path d="M146.516 4.14062L146.93 4.55451L146.516 4.14062Z" fill="white"/>
<path d="M12.418 4.55469L12.8319 4.96857L12.418 4.55469ZM46.3567 4.55469L46.7705 4.96857L46.3567 4.55469ZM60.4288 4.55469L60.8427 4.96857L60.4288 4.55469Z" fill="white"/>
<path d="M72.8438 4.55469L73.2576 4.96857L72.8438 4.55469Z" fill="white"/>
<path d="M99.332 4.55469L99.7459 4.96857L99.332 4.55469Z" fill="white"/>
<path d="M118.787 4.55469L119.201 4.96857L118.787 4.55469ZM146.931 4.55469L147.345 4.96857L146.931 4.55469ZM12.832 4.96857L13.2459 5.38246L12.832 4.96857Z" fill="white"/>
<path d="M21.1094 4.96875L21.5233 5.38264L21.1094 4.96875ZM45.9426 4.96875L46.3564 5.38264L45.9426 4.96875ZM60.8425 4.96875L61.2564 5.38264L60.8425 4.96875Z" fill="white"/>
<path d="M72.4297 4.96875L72.8436 5.38264L72.4297 4.96875Z" fill="white"/>
<path d="M99.7461 4.96875L100.16 5.38264L99.7461 4.96875Z" fill="white"/>
<path d="M118.371 4.96875L118.785 5.38264L118.371 4.96875Z" fill="white"/>
<path d="M146.931 4.96875L147.345 5.38264L146.931 4.96875ZM12.832 5.38264L13.2459 5.79652L12.832 5.38264Z" fill="white"/>
<path d="M20.6953 5.38281L21.1092 5.7967L20.6953 5.38281ZM45.5285 5.38281L45.9424 5.7967L45.5285 5.38281ZM61.2562 5.38281L61.6701 5.7967L61.2562 5.38281Z" fill="white"/>
<path d="M84.8477 5.38281V5.7967H88.1587L84.8477 5.38281Z" fill="white"/>
<path d="M100.16 5.38281L100.574 5.7967L100.16 5.38281Z" fill="white"/>
<path d="M147.344 5.38281L147.758 5.7967L147.344 5.38281Z" fill="white"/>
<path d="M13.2461 5.79688L13.66 6.21076L13.2461 5.79688Z" fill="white"/>
<path d="M20.6953 5.79688L21.1092 6.21076L20.6953 5.79688ZM45.5285 5.79688L45.9424 6.21076L45.5285 5.79688ZM61.2562 5.79688L61.6701 6.21076L61.2562 5.79688ZM72.0172 5.79688L72.4311 6.21076L72.0172 5.79688ZM82.3644 5.79688L82.7783 6.21076L82.3644 5.79688Z" fill="white"/>
<path d="M82.7773 5.79688L83.1912 6.21076L82.7773 5.79688Z" fill="white"/>
<path d="M83.4688 5.9347L83.7444 6.07294L83.4688 5.9347ZM89.401 5.79688L89.8149 6.21076L89.401 5.79688Z" fill="white"/>
<path d="M90.0898 5.92969L90.3655 6.06793L90.0898 5.92969Z" fill="white"/>
<path d="M100.16 5.79688L100.574 6.21076L100.16 5.79688Z" fill="white"/>
<path d="M117.957 5.79688L118.371 6.21076L117.957 5.79688Z" fill="white"/>
<path d="M130.648 5.92969L130.924 6.06793L130.648 5.92969Z" fill="white"/>
<path d="M131.203 5.79688V6.21076H134.928L131.203 5.79688Z" fill="white"/>
<path d="M135.203 5.92969L135.479 6.06793L135.203 5.92969Z" fill="white"/>
<path d="M147.758 5.79688L148.172 6.21076L147.758 5.79688ZM20.2812 6.21076L20.6951 6.62465L20.2812 6.21076Z" fill="white"/>
<path d="M45.1133 6.21094L45.5272 6.62482L45.1133 6.21094ZM53.2532 6.34876L53.5288 6.487L53.2532 6.34876Z" fill="white"/>
<path d="M61.6719 6.21094L62.0858 6.62482L61.6719 6.21094ZM71.6052 6.21094L72.019 6.62482L71.6052 6.21094Z" fill="white"/>
<path d="M81.1211 6.21094L81.535 6.62482L81.1211 6.21094Z" fill="white"/>
<path d="M81.5352 6.21094L81.949 6.62482L81.5352 6.21094Z" fill="white"/>
<path d="M91.0547 6.21094L91.4686 6.62482L91.0547 6.21094Z" fill="white"/>
<path d="M91.4688 6.21094L91.8826 6.62482L91.4688 6.21094Z" fill="white"/>
<path d="M100.574 6.21094L100.988 6.62482L100.574 6.21094Z" fill="white"/>
<path d="M128.719 6.21094L129.133 6.62482L128.719 6.21094Z" fill="white"/>
<path d="M129.41 6.34876L129.686 6.487L129.41 6.34876ZM136.17 6.21094L136.584 6.62482L136.17 6.21094Z" fill="white"/>
<path d="M136.582 6.21094L136.996 6.62482L136.582 6.21094Z" fill="white"/>
<path d="M136.996 6.21094L137.41 6.62482L136.996 6.21094ZM147.757 6.21094L148.171 6.62482L147.757 6.21094Z" fill="white"/>
<path d="M13.6602 6.625L14.074 7.03889L13.6602 6.625Z" fill="white"/>
<path d="M44.6992 6.625L45.1131 7.03889L44.6992 6.625Z" fill="white"/>
<path d="M71.6016 6.625L72.0154 7.03889L71.6016 6.625ZM80.2932 6.625L80.7071 7.03889L80.2932 6.625Z" fill="white"/>
<path d="M80.707 6.625L81.1209 7.03889L80.707 6.625Z" fill="white"/>
<path d="M92.2969 6.625L92.7108 7.03889L92.2969 6.625Z" fill="white"/>
<path d="M100.574 6.625L100.988 7.03889L100.574 6.625Z" fill="white"/>
<path d="M117.543 6.625L117.957 7.03889L117.543 6.625Z" fill="white"/>
<path d="M127.477 6.625L127.89 7.03889L127.477 6.625Z" fill="white"/>
<path d="M127.891 6.625L128.305 7.03889L127.891 6.625ZM137.824 6.625L138.238 7.03889L137.824 6.625Z" fill="white"/>
<path d="M138.238 6.625L138.652 7.03889L138.238 6.625Z" fill="white"/>
<path d="M148.172 6.625L148.586 7.03889L148.172 6.625Z" fill="white"/>
<path d="M19.8672 7.03906L20.2811 7.45295L19.8672 7.03906Z" fill="white"/>
<path d="M44.6992 7.03906L45.1131 7.45295L44.6992 7.03906Z" fill="white"/>
<path d="M52.5625 7.03906L52.9764 7.45295L52.5625 7.03906ZM53.8042 7.03906L54.218 7.45295L53.8042 7.03906Z" fill="white"/>
<path d="M62.082 7.03906L62.4959 7.45295L62.082 7.03906Z" fill="white"/>
<path d="M71.1875 7.03906L71.6014 7.45295L71.1875 7.03906Z" fill="white"/>
<path d="M79.8789 7.03906L80.2928 7.45295L79.8789 7.03906Z" fill="white"/>
<path d="M93.125 7.03906L93.5389 7.45295L93.125 7.03906ZM126.65 7.03906L127.064 7.45295L126.65 7.03906Z" fill="white"/>
<path d="M138.652 7.03906L139.066 7.45295L138.652 7.03906Z" fill="white"/>
<path d="M139.066 7.03906L139.48 7.45295L139.066 7.03906ZM148.172 7.03906L148.586 7.45295L148.172 7.03906Z" fill="white"/>
<path d="M14.0742 7.45312L14.4881 7.86701L14.0742 7.45312ZM44.2879 7.45312L44.7018 7.86701L44.2879 7.45312ZM52.1518 7.45312L52.5657 7.86701L52.1518 7.45312Z" fill="white"/>
<path d="M54.2188 7.45312L54.6326 7.86701L54.2188 7.45312Z" fill="white"/>
<path d="M62.4961 7.45312L62.91 7.86701L62.4961 7.45312Z" fill="white"/>
<path d="M71.1875 7.45312L71.6014 7.86701L71.1875 7.45312Z" fill="white"/>
<path d="M79.4648 7.45312L79.8787 7.86701L79.4648 7.45312Z" fill="white"/>
<path d="M93.5391 7.45312L93.9529 7.86701L93.5391 7.45312Z" fill="white"/>
<path d="M100.987 7.45312L101.401 7.86701L100.987 7.45312ZM117.128 7.45312L117.542 7.86701L117.128 7.45312ZM126.234 7.45312L126.648 7.86701L126.234 7.45312ZM139.478 7.45312L139.892 7.86701L139.478 7.45312ZM14.4844 7.86701L14.8983 8.2809L14.4844 7.86701Z" fill="white"/>
<path d="M19.4531 7.86719L19.867 8.28107L19.4531 7.86719Z" fill="white"/>
<path d="M43.8711 7.86719L44.285 8.28107L43.8711 7.86719Z" fill="white"/>
<path d="M79.0547 7.86719L79.4686 8.28107L79.0547 7.86719Z" fill="white"/>
<path d="M117.129 7.86719L117.543 8.28107L117.129 7.86719Z" fill="white"/>
<path d="M125.82 7.86719L126.234 8.28107L125.82 7.86719ZM139.892 7.86719L140.306 8.28107L139.892 7.86719ZM148.584 7.86719L148.998 8.28107L148.584 7.86719Z" fill="white"/>
<path d="M14.4844 8.28125L14.8983 8.69514L14.4844 8.28125Z" fill="white"/>
<path d="M19.0391 8.28125L19.4529 8.69514L19.0391 8.28125Z" fill="white"/>
<path d="M43.8711 8.28125L44.285 8.69514L43.8711 8.28125Z" fill="white"/>
<path d="M51.7344 8.28125L52.1483 8.69514L51.7344 8.28125ZM54.6316 8.28125L55.0455 8.69514L54.6316 8.28125Z" fill="white"/>
<path d="M62.9102 8.28125L63.324 8.69514L62.9102 8.28125Z" fill="white"/>
<path d="M70.7734 8.28125L71.1873 8.69514L70.7734 8.28125ZM125.406 8.28125L125.82 8.69514L125.406 8.28125Z" fill="white"/>
<path d="M140.309 8.28125L140.722 8.69514L140.309 8.28125ZM148.586 8.28125L149 8.69514L148.586 8.28125Z" fill="white"/>
<path d="M14.8984 8.69531L15.3123 9.1092L14.8984 8.69531Z" fill="white"/>
<path d="M19.0391 8.69531L19.4529 9.1092L19.0391 8.69531Z" fill="white"/>
<path d="M43.457 8.69531L43.8709 9.1092L43.457 8.69531ZM51.3209 8.69531L51.7348 9.1092L51.3209 8.69531Z" fill="white"/>
<path d="M55.0469 8.69531L55.4608 9.1092L55.0469 8.69531Z" fill="white"/>
<path d="M63.3242 8.69531L63.7381 9.1092L63.3242 8.69531Z" fill="white"/>
<path d="M70.9141 8.97138L71.0523 9.24702L70.9141 8.97138ZM78.6401 8.69531L79.054 9.1092L78.6401 8.69531Z" fill="white"/>
<path d="M84.8477 8.69531V13.2481H85.2615L84.8477 8.69531Z" fill="white"/>
<path d="M85.2617 8.69531V9.1092H100.989V20.698L101.403 16.1453L100.978 9.35877L96.8505 8.69531H85.2617Z" fill="white"/>
<path d="M100.988 8.69531L101.402 9.1092L100.988 8.69531Z" fill="white"/>
<path d="M124.992 8.69531L125.406 9.1092L124.992 8.69531ZM148.584 8.69531L148.998 9.1092L148.584 8.69531ZM14.8984 9.1092L15.3123 9.52309L14.8984 9.1092Z" fill="white"/>
<path d="M18.625 9.10156L19.0389 9.51545L18.625 9.10156ZM43.0443 9.10156L43.4582 9.51545L43.0443 9.10156ZM55.047 9.10156L55.4609 9.51545L55.047 9.10156Z" fill="white"/>
<path d="M63.3242 9.10156L63.7381 9.51545L63.3242 9.10156Z" fill="white"/>
<path d="M78.641 9.10156L79.0549 9.51545L78.641 9.10156ZM116.856 9.37763L116.995 9.65327L116.856 9.37763ZM124.996 9.10156L125.41 9.51545L124.996 9.10156ZM15.3164 9.51545L15.7303 9.92934L15.3164 9.51545Z" fill="white"/>
<path d="M43.0469 9.51562L43.4608 9.92951L43.0469 9.51562Z" fill="white"/>
<path d="M50.9102 9.51562L51.324 9.92951L50.9102 9.51562Z" fill="white"/>
<path d="M55.4609 9.51562L55.8748 9.92951L55.4609 9.51562ZM63.7387 9.51562L64.1526 9.92951L63.7387 9.51562Z" fill="white"/>
<path d="M70.7734 9.51562V11.9989H71.1873L70.7734 9.51562ZM124.579 9.51562V11.5851H124.993L124.579 9.51562Z" fill="white"/>
<path d="M18.2109 9.92969L18.6248 10.3436L18.2109 9.92969ZM42.6302 9.92969L43.0441 10.3436L42.6302 9.92969ZM50.4941 9.92969L50.908 10.3436L50.4941 9.92969Z" fill="white"/>
<path d="M55.875 9.92969L56.2889 10.3436L55.875 9.92969Z" fill="white"/>
<path d="M64.1523 9.92969L64.5662 10.3436L64.1523 9.92969Z" fill="white"/>
<path d="M78.2266 9.92969V11.5852H78.6404L78.2266 9.92969Z" fill="white"/>
<path d="M116.715 9.92969V11.1713H117.129L116.715 9.92969Z" fill="white"/>
<path d="M7.86328 10.3438L8.27717 10.7576L7.86328 10.3438Z" fill="white"/>
<path d="M15.7266 10.3438L16.1404 10.7576L15.7266 10.3438Z" fill="white"/>
<path d="M25.6641 10.3438L26.0779 20.6909H26.4918C26.4918 18.1997 27.5965 12.0324 25.6641 10.3438Z" fill="white"/>
<path d="M42.2188 10.3438L42.6326 10.7576L42.2188 10.3438Z" fill="white"/>
<path d="M50.082 10.3438L50.4959 10.7576L50.082 10.3438Z" fill="white"/>
<path d="M55.875 10.3438L56.2889 10.7576L55.875 10.3438Z" fill="white"/>
<path d="M64.1523 10.3438L64.5662 10.7576L64.1523 10.3438Z" fill="white"/>
<path d="M7.86328 10.7578V20.6911H8.27717L7.86328 10.7578Z" fill="white"/>
<path d="M17.7969 10.7578L18.2108 11.1717L17.7969 10.7578Z" fill="white"/>
<path d="M25.6641 10.7578L26.0779 11.1717L25.6641 10.7578ZM50.0834 10.7578L50.4972 11.1717L50.0834 10.7578Z" fill="white"/>
<path d="M56.2882 10.7578L56.7021 11.1717L56.2882 10.7578ZM64.5659 10.7578L64.9798 11.1717L64.5659 10.7578ZM8.27734 11.1717L8.69123 11.5856L8.27734 11.1717ZM16.1412 11.1717L16.5551 11.5856L16.1412 11.1717Z" fill="white"/>
<path d="M17.3828 11.1719L17.7967 11.5858L17.3828 11.1719Z" fill="white"/>
<path d="M25.2461 11.1719L25.66 11.5858L25.2461 11.1719Z" fill="white"/>
<path d="M41.8047 11.1719L42.2186 11.5858L41.8047 11.1719ZM49.6685 11.1719L50.0824 11.5858L49.6685 11.1719Z" fill="white"/>
<path d="M56.7031 11.1719L57.117 11.5858L56.7031 11.1719Z" fill="white"/>
<path d="M64.9805 11.1719L65.3944 11.5858L64.9805 11.1719ZM116.716 11.1719V12.4135H117.13L116.716 11.1719Z" fill="white"/>
<path d="M17.3828 11.5859L17.7967 11.9998L17.3828 11.5859Z" fill="white"/>
<path d="M25.2461 11.5859L25.66 11.9998L25.2461 11.5859ZM41.3877 11.5859L41.8016 11.9998L41.3877 11.5859Z" fill="white"/>
<path d="M49.2539 11.5859L49.6678 11.9998L49.2539 11.5859Z" fill="white"/>
<path d="M56.7031 11.5859L57.117 11.9998L56.7031 11.5859Z" fill="white"/>
<path d="M64.9805 11.5859L65.3944 11.9998L64.9805 11.5859Z" fill="white"/>
<path d="M124.993 11.5859L125.407 11.9998L124.993 11.5859ZM8.69141 11.9998L9.10529 12.4137L8.69141 11.9998Z" fill="white"/>
<path d="M16.5547 12L16.9686 12.4139L16.5547 12Z" fill="white"/>
<path d="M16.9688 12L17.3826 12.4139L16.9688 12Z" fill="white"/>
<path d="M24.832 12L25.2459 12.4139L24.832 12Z" fill="white"/>
<path d="M57.1172 12L57.5311 12.4139L57.1172 12ZM65.3949 12L65.8088 12.4139L65.3949 12ZM70.9133 12.2761L71.0515 12.5517L70.9133 12.2761ZM78.6393 12L79.0532 12.4139L78.6393 12ZM124.995 12L125.408 12.4139L124.995 12Z" fill="white"/>
<path d="M140.723 12L141.137 12.4139L140.723 12Z" fill="white"/>
<path d="M141.137 12V12.4139H149.001L141.137 12Z" fill="white"/>
<path d="M9.10547 12.4141L9.51936 12.8279L9.10547 12.4141Z" fill="white"/>
<path d="M40.9766 12.4141L41.3904 12.8279L40.9766 12.4141Z" fill="white"/>
<path d="M48.8398 12.4141L49.2537 12.8279L48.8398 12.4141ZM78.6397 12.4141L79.0536 12.8279L78.6397 12.4141Z" fill="white"/>
<path d="M125.41 12.4141L125.824 12.8279L125.41 12.4141Z" fill="white"/>
<path d="M140.723 12.4141L141.137 12.8279L140.723 12.4141ZM148.586 12.4141L149 12.8279L148.586 12.4141Z" fill="white"/>
<path d="M9.10547 12.8281L9.51936 13.242L9.10547 12.8281Z" fill="white"/>
<path d="M24.4219 12.8281L24.8358 13.242L24.4219 12.8281Z" fill="white"/>
<path d="M40.5625 12.8281L40.9764 13.242L40.5625 12.8281Z" fill="white"/>
<path d="M65.8086 12.8281L66.2225 13.242L65.8086 12.8281Z" fill="white"/>
<path d="M70.7734 12.8281L71.1873 13.242L70.7734 12.8281ZM79.0512 12.8281L79.4651 13.242L79.0512 12.8281Z" fill="white"/>
<path d="M85.2617 12.8281V13.242H94.3672L85.2617 12.8281ZM117.131 12.8281L117.545 13.242L117.131 12.8281ZM125.409 12.8281L125.823 13.242L125.409 12.8281Z" fill="white"/>
<path d="M140.309 12.8281L140.722 13.242L140.309 12.8281ZM148.586 12.8281L149 13.242L148.586 12.8281Z" fill="white"/>
<path d="M9.51953 13.2422L9.93342 13.6561L9.51953 13.2422ZM24.0056 13.2422L24.4194 13.6561L24.0056 13.2422Z" fill="white"/>
<path d="M66.2227 13.2422L66.6365 13.6561L66.2227 13.2422ZM79.467 13.2422L79.8809 13.6561L79.467 13.2422Z" fill="white"/>
<path d="M93.9531 13.2422L94.367 13.6561L93.9531 13.2422ZM117.131 13.2422L117.545 13.6561L117.131 13.2422Z" fill="white"/>
<path d="M125.82 13.2422L126.234 13.6561L125.82 13.2422Z" fill="white"/>
<path d="M126.234 13.2422L126.648 13.6561L126.234 13.2422ZM139.892 13.2422L140.306 13.6561L139.892 13.2422ZM148.584 13.2422L148.998 13.6561L148.584 13.2422ZM24.0039 13.6561L24.4178 14.07L24.0039 13.6561Z" fill="white"/>
<path d="M40.1484 13.6562L40.5623 14.0701L40.1484 13.6562ZM71.1899 13.6562L71.6038 14.0701L71.1899 13.6562Z" fill="white"/>
<path d="M79.8789 13.6562L80.2928 14.0701L79.8789 13.6562Z" fill="white"/>
<path d="M93.5387 13.6562L93.9525 14.0701L93.5387 13.6562ZM126.65 13.6562L127.063 14.0701L126.65 13.6562ZM139.48 13.6562L139.894 14.0701L139.48 13.6562ZM9.93359 14.0701L10.3475 14.484L9.93359 14.0701Z" fill="white"/>
<path d="M23.5938 14.0703L24.0076 14.4842L23.5938 14.0703Z" fill="white"/>
<path d="M39.7344 14.0703L40.1483 14.4842L39.7344 14.0703Z" fill="white"/>
<path d="M66.6367 14.0703L67.0506 14.4842L66.6367 14.0703Z" fill="white"/>
<path d="M71.1875 14.0703L71.6014 14.4842L71.1875 14.0703Z" fill="white"/>
<path d="M80.2969 14.0703L80.7108 14.4842L80.2969 14.0703Z" fill="white"/>
<path d="M92.7109 14.0703L93.1248 14.4842L92.7109 14.0703Z" fill="white"/>
<path d="M93.125 14.0703L93.5389 14.4842L93.125 14.0703ZM117.544 14.0703L117.958 14.4842L117.544 14.0703Z" fill="white"/>
<path d="M127.477 14.0703L127.89 14.4842L127.477 14.0703Z" fill="white"/>
<path d="M138.652 14.0703L139.066 14.4842L138.652 14.0703Z" fill="white"/>
<path d="M139.066 14.0703L139.48 14.4842L139.066 14.0703Z" fill="white"/>
<path d="M148.172 14.0703L148.586 14.4842L148.172 14.0703Z" fill="white"/>
<path d="M23.5938 14.4844L24.0076 14.8983L23.5938 14.4844ZM67.0518 14.4844L67.4657 14.8983L67.0518 14.4844Z" fill="white"/>
<path d="M71.6016 14.4844L72.0154 14.8983L71.6016 14.4844Z" fill="white"/>
<path d="M81.1211 14.4844L81.535 14.8983L81.1211 14.4844Z" fill="white"/>
<path d="M91.8828 14.4844L92.2967 14.8983L91.8828 14.4844Z" fill="white"/>
<path d="M92.2969 14.4844L92.7108 14.8983L92.2969 14.4844Z" fill="white"/>
<path d="M117.543 14.4844L117.957 14.8983L117.543 14.4844Z" fill="white"/>
<path d="M128.305 14.4844L128.719 14.8983L128.305 14.4844Z" fill="white"/>
<path d="M128.719 14.4844L129.133 14.8983L128.719 14.4844Z" fill="white"/>
<path d="M129.133 14.4844L129.547 14.8983L129.133 14.4844ZM137.411 14.4844L137.824 14.8983L137.411 14.4844Z" fill="white"/>
<path d="M137.824 14.4844L138.238 14.8983L137.824 14.4844Z" fill="white"/>
<path d="M148.172 14.4844L148.586 14.8983L148.172 14.4844Z" fill="white"/>
<path d="M10.3477 14.8984L10.7615 15.3123L10.3477 14.8984ZM23.1781 14.8984L23.592 15.3123L23.1781 14.8984Z" fill="white"/>
<path d="M39.3203 14.8984L39.7342 15.3123L39.3203 14.8984Z" fill="white"/>
<path d="M71.6016 14.8984L72.0154 15.3123L71.6016 14.8984Z" fill="white"/>
<path d="M81.9492 14.8984L82.3631 15.3123L81.9492 14.8984Z" fill="white"/>
<path d="M82.3633 14.8984L82.7772 15.3123L82.3633 14.8984Z" fill="white"/>
<path d="M82.7773 14.8984L83.1912 15.3123L82.7773 14.8984ZM90.2273 14.8984L90.6412 15.3123L90.2273 14.8984Z" fill="white"/>
<path d="M90.6406 14.8984L91.0545 15.3123L90.6406 14.8984Z" fill="white"/>
<path d="M91.0547 14.8984L91.4686 15.3123L91.0547 14.8984ZM117.957 14.8984L118.371 15.3123L117.957 14.8984ZM129.96 14.8984L130.374 15.3123L129.96 14.8984Z" fill="white"/>
<path d="M130.375 14.8984V15.3123H131.617L130.375 14.8984Z" fill="white"/>
<path d="M131.617 14.8984V15.3123H135.342L131.617 14.8984Z" fill="white"/>
<path d="M135.617 15.0391L135.893 15.1773L135.617 15.0391Z" fill="white"/>
<path d="M136.445 15.0363L136.721 15.1745L136.445 15.0363ZM147.758 14.8984L148.172 15.3123L147.758 14.8984ZM10.7617 15.3123L11.1756 15.7262L10.7617 15.3123Z" fill="white"/>
<path d="M38.9062 15.3125L39.3201 15.7264L38.9062 15.3125Z" fill="white"/>
<path d="M67.4648 15.3125L67.8787 15.7264L67.4648 15.3125Z" fill="white"/>
<path d="M83.8828 15.4531L84.1585 15.5914L83.8828 15.4531Z" fill="white"/>
<path d="M84.4336 15.3125V15.7264H88.5725L84.4336 15.3125Z" fill="white"/>
<path d="M88.8477 15.4531L89.1233 15.5914L88.8477 15.4531Z" fill="white"/>
<path d="M117.958 15.3125L118.372 15.7264L117.958 15.3125ZM147.758 15.3125L148.172 15.7264L147.758 15.3125ZM10.7617 15.7264L11.1756 16.1403L10.7617 15.7264Z" fill="white"/>
<path d="M22.7617 15.7266L23.1756 16.1404L22.7617 15.7266Z" fill="white"/>
<path d="M67.8789 15.7266L68.2928 16.1404L67.8789 15.7266ZM72.0178 15.7266L72.4317 16.1404L72.0178 15.7266Z" fill="white"/>
<path d="M118.371 15.7266L118.785 16.1404L118.371 15.7266ZM147.343 15.7266L147.757 16.1404L147.343 15.7266Z" fill="white"/>
<path d="M11.1758 16.1406L11.5897 16.5545L11.1758 16.1406ZM22.3507 16.1406L22.7646 16.5545L22.3507 16.1406ZM38.4923 16.1406L38.9062 16.5545L38.4923 16.1406ZM67.8782 16.1406L68.2921 16.5545L67.8782 16.1406Z" fill="white"/>
<path d="M72.4297 16.1406L72.8436 16.5545L72.4297 16.1406Z" fill="white"/>
<path d="M118.785 16.1406L119.613 16.9684L118.785 16.1406ZM146.929 16.1406L147.343 16.5545L146.929 16.1406Z" fill="white"/>
<path d="M11.1758 16.5547L11.5897 16.9686L11.1758 16.5547ZM22.3507 16.5547L22.7646 16.9686L22.3507 16.5547Z" fill="white"/>
<path d="M38.0781 16.5547L38.492 16.9686L38.0781 16.5547ZM68.2918 16.5547L68.7057 16.9686L68.2918 16.5547Z" fill="white"/>
<path d="M72.8438 16.5547L73.2576 16.9686L72.8438 16.5547Z" fill="white"/>
<path d="M118.785 16.5547L119.199 16.9686L118.785 16.5547ZM146.929 16.5547L147.343 16.9686L146.929 16.5547Z" fill="white"/>
<path d="M11.5898 16.9688L12.0037 17.3826L11.5898 16.9688Z" fill="white"/>
<path d="M21.9375 16.9688L22.3514 17.3826L21.9375 16.9688Z" fill="white"/>
<path d="M37.6641 16.9688L38.0779 17.3826L37.6641 16.9688ZM68.7055 16.9688L69.1194 17.3826L68.7055 16.9688Z" fill="white"/>
<path d="M73.2578 16.9688L74.0856 17.7965L73.2578 16.9688ZM119.613 16.9688L120.441 17.7965L119.613 16.9688Z" fill="white"/>
<path d="M146.516 16.9688L146.93 17.3826L146.516 16.9688Z" fill="white"/>
<path d="M37.6641 17.3828L38.0779 17.7967L37.6641 17.3828Z" fill="white"/>
<path d="M45.9414 17.3828V17.7967H60.4274L45.9414 17.3828Z" fill="white"/>
<path d="M60.4297 17.3828L60.8436 17.7967L60.4297 17.3828ZM68.7074 17.3828L69.1213 17.7967L68.7074 17.3828Z" fill="white"/>
<path d="M73.2578 17.3828L73.6717 17.7967L73.2578 17.3828ZM119.613 17.3828L120.027 17.7967L119.613 17.3828ZM146.102 17.3828L146.516 17.7967L146.102 17.3828Z" fill="white"/>
<path d="M12.0039 17.7969L12.4178 18.2108L12.0039 17.7969ZM21.5233 17.7969L21.9372 18.2108L21.5233 17.7969ZM37.251 17.7969L37.6649 18.2108L37.251 17.7969Z" fill="white"/>
<path d="M45.5273 17.7969L45.9412 18.2108L45.5273 17.7969Z" fill="white"/>
<path d="M60.8398 17.7969L61.2537 18.2108L60.8398 17.7969Z" fill="white"/>
<path d="M69.1172 17.7969L69.5311 18.2108L69.1172 17.7969Z" fill="white"/>
<path d="M74.0859 17.7969L74.4998 18.2108L74.0859 17.7969Z" fill="white"/>
<path d="M120.441 17.7969L120.855 18.2108L120.441 17.7969Z" fill="white"/>
<path d="M145.276 17.7969L145.689 18.2108L145.276 17.7969ZM12.418 18.2108L12.8319 18.6246L12.418 18.2108Z" fill="white"/>
<path d="M36.8359 18.2109L37.2498 18.6248L36.8359 18.2109Z" fill="white"/>
<path d="M45.1133 18.2109L45.5272 18.6248L45.1133 18.2109Z" fill="white"/>
<path d="M60.8398 18.2109L61.2537 18.6248L60.8398 18.2109ZM69.5315 18.2109L69.9453 18.6248L69.5315 18.2109ZM74.4981 18.2109L74.912 18.6248L74.4981 18.2109ZM120.853 18.2109L121.267 18.6248L120.853 18.2109Z" fill="white"/>
<path d="M121.27 18.2109L121.683 18.6248L121.27 18.2109Z" fill="white"/>
<path d="M144.859 18.2109L145.273 18.6248L144.859 18.2109Z" fill="white"/>
<path d="M12.418 18.625L12.8319 19.0389L12.418 18.625ZM21.1096 18.625L21.5235 19.0389L21.1096 18.625Z" fill="white"/>
<path d="M36.8359 18.625L37.2498 19.0389L36.8359 18.625Z" fill="white"/>
<path d="M61.2539 18.625L61.6678 19.0389L61.2539 18.625Z" fill="white"/>
<path d="M69.5352 18.625L69.949 19.0389L69.5352 18.625Z" fill="white"/>
<path d="M74.9141 18.625L75.3279 19.0389L74.9141 18.625Z" fill="white"/>
<path d="M75.3281 18.625L75.742 19.0389L75.3281 18.625Z" fill="white"/>
<path d="M94.3672 18.625L94.7811 19.0389L94.3672 18.625Z" fill="white"/>
<path d="M94.7812 18.625V20.2805H95.1951L94.7812 18.625ZM121.684 18.625L122.098 19.0389L121.684 18.625Z" fill="white"/>
<path d="M144.035 18.625L144.449 19.0389L144.035 18.625Z" fill="white"/>
<path d="M144.445 18.625L144.859 19.0389L144.445 18.625Z" fill="white"/>
<path d="M12.832 19.0391L13.2459 19.4529L12.832 19.0391ZM20.6959 19.0391L21.1098 19.4529L20.6959 19.0391Z" fill="white"/>
<path d="M36.4219 19.0391L36.8358 19.4529L36.4219 19.0391Z" fill="white"/>
<path d="M44.6992 19.0391L45.1131 19.4529L44.6992 19.0391Z" fill="white"/>
<path d="M61.6719 19.0391L62.0858 19.4529L61.6719 19.0391Z" fill="white"/>
<path d="M69.9492 19.0391L70.3631 19.4529L69.9492 19.0391ZM75.7436 19.0391L76.1575 19.4529L75.7436 19.0391Z" fill="white"/>
<path d="M76.1562 19.0391L76.5701 19.4529L76.1562 19.0391Z" fill="white"/>
<path d="M93.5391 19.0391L93.9529 19.4529L93.5391 19.0391ZM122.511 19.0391L122.925 19.4529L122.511 19.0391Z" fill="white"/>
<path d="M122.926 19.0391L123.34 19.4529L122.926 19.0391ZM143.206 19.0391L143.62 19.4529L143.206 19.0391Z" fill="white"/>
<path d="M143.62 19.0391L144.034 19.4529L143.62 19.0391ZM12.832 19.4529L13.2459 19.8668L12.832 19.4529ZM20.6959 19.4529L21.1098 19.8668L20.6959 19.4529ZM36.0097 19.4529L36.4236 19.8668L36.0097 19.4529Z" fill="white"/>
<path d="M44.2852 19.4531L44.699 19.867L44.2852 19.4531Z" fill="white"/>
<path d="M61.6719 19.4531L62.0858 19.867L61.6719 19.4531ZM76.5718 19.4531L76.9857 19.867L76.5718 19.4531Z" fill="white"/>
<path d="M76.9844 19.4531L77.3983 19.867L76.9844 19.4531Z" fill="white"/>
<path d="M92.2969 19.4531L92.7108 19.867L92.2969 19.4531Z" fill="white"/>
<path d="M92.7109 19.4531L93.1248 19.867L92.7109 19.4531Z" fill="white"/>
<path d="M123.34 19.4531L123.754 19.867L123.34 19.4531Z" fill="white"/>
<path d="M123.754 19.4531L124.168 19.867L123.754 19.4531Z" fill="white"/>
<path d="M142.375 19.4531L142.789 19.867L142.375 19.4531Z" fill="white"/>
<path d="M142.793 19.4531L143.207 19.867L142.793 19.4531Z" fill="white"/>
<path d="M13.2461 19.8672L13.66 20.2811L13.2461 19.8672Z" fill="white"/>
<path d="M20.2812 19.8672L20.6951 20.2811L20.2812 19.8672ZM36.0089 19.8672L36.4228 20.2811L36.0089 19.8672ZM43.8728 19.8672L44.2867 20.2811L43.8728 19.8672Z" fill="white"/>
<path d="M62.082 19.8672L62.4959 20.2811L62.082 19.8672Z" fill="white"/>
<path d="M70.3594 19.8672L70.7733 20.2811L70.3594 19.8672Z" fill="white"/>
<path d="M77.8125 19.8672L78.2264 20.2811L77.8125 19.8672Z" fill="white"/>
<path d="M78.2266 19.8672L78.6404 20.2811L78.2266 19.8672ZM91.057 19.8672L91.4709 20.2811L91.057 19.8672Z" fill="white"/>
<path d="M91.4688 19.8672L91.8826 20.2811L91.4688 19.8672Z" fill="white"/>
<path d="M91.8828 19.8672L92.2967 20.2811L91.8828 19.8672ZM124.58 19.8672L124.994 20.2811L124.58 19.8672Z" fill="white"/>
<path d="M124.992 19.8672L125.406 20.2811L124.992 19.8672Z" fill="white"/>
<path d="M140.723 19.8672L141.137 20.2811L140.723 19.8672Z" fill="white"/>
<path d="M141.137 19.8672L141.551 20.2811L141.137 19.8672Z" fill="white"/>
<path d="M141.551 19.8672L141.965 20.2811L141.551 19.8672Z" fill="white"/>
<path d="M35.5938 20.2812L36.0076 20.6951L35.5938 20.2812Z" fill="white"/>
<path d="M43.8711 20.2812L44.285 20.6951L43.8711 20.2812ZM70.7737 20.2812L71.1876 20.6951L70.7737 20.2812ZM79.0514 20.2812L79.4653 20.6951L79.0514 20.2812Z" fill="white"/>
<path d="M79.4648 20.2812L79.8787 20.6951L79.4648 20.2812Z" fill="white"/>
<path d="M80.1562 20.4191L80.4319 20.5573L80.1562 20.4191ZM89.3996 20.2812L89.8135 20.6951L89.3996 20.2812Z" fill="white"/>
<path d="M89.8125 20.2812L90.2264 20.6951L89.8125 20.2812Z" fill="white"/>
<path d="M90.2266 20.2812L90.6404 20.6951L90.2266 20.2812ZM94.7793 20.2812L95.1932 20.6951L94.7793 20.2812ZM126.235 20.2812L126.649 20.6951L126.235 20.2812Z" fill="white"/>
<path d="M126.648 20.2812L127.062 20.6951L126.648 20.2812Z" fill="white"/>
<path d="M127.062 20.2812L127.476 20.6951L127.062 20.2812ZM138.927 20.4191L139.203 20.5573L138.927 20.4191Z" fill="white"/>
<path d="M139.48 20.2812L139.894 20.6951L139.48 20.2812Z" fill="white"/>
<path d="M139.894 20.2812L140.308 20.6951L139.894 20.2812ZM81.3984 20.833L81.6741 20.9712L81.3984 20.833Z" fill="white"/>
<path d="M82.2266 20.8359L82.5022 20.9742L82.2266 20.8359Z" fill="white"/>
<path d="M82.7773 20.6953V21.1092H86.9162L82.7773 20.6953Z" fill="white"/>
<path d="M86.918 20.6953V21.1092H88.1596L86.918 20.6953Z" fill="white"/>
<path d="M88.1602 20.6953L88.574 21.1092L88.1602 20.6953ZM128.307 20.6953V21.1092H129.549L128.307 20.6953Z" fill="white"/>
<path d="M129.547 20.6953V21.1092H130.789L129.547 20.6953Z" fill="white"/>
<path d="M130.789 20.6953V21.1092H135.756L130.789 20.6953Z" fill="white"/>
<path d="M135.754 20.6953V21.1092H136.996L135.754 20.6953Z" fill="white"/>
<path d="M137.273 20.8359L137.549 20.9742L137.273 20.8359Z" fill="white"/>
<path d="M0 25.25V25.6639H25.661L17.3832 25.25H0Z" fill="white"/>
<path d="M25.6608 25.25V31.8722L8.69141 32.2861V33.1138L25.2469 33.5277V33.1138H9.10529V32.2861C14.8302 32.2861 29.8551 35.2458 25.6608 25.25ZM28.1441 25.25L28.558 25.6639L28.1441 25.25Z" fill="white"/>
<path d="M28.1436 37.2497H28.5575V25.6609H37.2491C36.1688 25.2077 35.1126 25.2487 33.938 25.247C32.5618 25.2449 29.9568 24.7619 28.807 25.6725C26.921 27.1666 28.1436 34.9473 28.1436 37.2497Z" fill="white"/>
<path d="M49.668 25.25V36.8388H50.0819L49.668 25.25Z" fill="white"/>
<path d="M50.082 25.25V25.6639H58.7736L50.082 25.25Z" fill="white"/>
<path d="M62.4961 25.25L62.91 25.6639L62.4961 25.25Z" fill="white"/>
<path d="M62.4976 46.7658H62.9115V25.6576H71.6031C70.0311 24.9979 64.1089 24.4101 62.9231 25.9072C61.9591 27.124 62.4976 29.9906 62.4976 31.452V46.7658Z" fill="white"/>
<path d="M83.1914 25.25V35.5972H83.6053L83.1914 25.25Z" fill="white"/>
<path d="M83.6055 25.25V25.6639H91.8832L83.6055 25.25Z" fill="white"/>
<path d="M95.6094 25.25V46.7721H96.0233V32.2861L95.6094 25.25Z" fill="white"/>
<path d="M115.477 25.25V25.6639H116.718L115.477 25.25Z" fill="white"/>
<path d="M0 25.6641V46.7723H0.413886C0.413886 40.8491 2.27969 31.0971 0 25.6641Z" fill="white"/>
<path d="M0.414062 25.6641V46.7723H8.69179V39.7362H24.8334V33.5279H8.69179V31.8724H25.6611V25.6641H0.414062ZM28.5583 25.6641C28.5583 30.8554 27.1549 38.2334 30.5404 42.5949C35.6081 49.1227 52.6805 48.6583 57.2394 41.8052C59.8345 37.9043 58.3582 30.187 58.3582 25.6641H50.0804C50.0804 29.0116 51.1594 34.6454 49.5925 37.6589C47.6294 41.4344 39.9489 41.597 37.7011 38.0372C35.7471 34.9434 36.8361 29.1895 36.8361 25.6641H28.5583Z" fill="white"/>
<path d="M36.8359 25.6641V36.839H37.2498L36.8359 25.6641ZM58.358 25.6641V38.4945H58.7719L58.358 25.6641Z" fill="white"/>
<path d="M62.9102 25.6641V46.7723H71.1879V35.5973C74.5404 38.9221 79.5488 44.8965 84.0184 46.5227C86.2711 47.3426 89.504 46.7723 91.8822 46.7723V25.6641H83.6045V36.0112L71.6018 26.0523L62.9102 25.6641Z" fill="white"/>
<path d="M71.6016 25.6641L72.0154 26.0779L71.6016 25.6641Z" fill="white"/>
<path d="M117.543 25.6641L117.957 26.0779L117.543 25.6641Z" fill="white"/>
<path d="M117.957 25.6641L118.371 26.0779L117.957 25.6641Z" fill="white"/>
<path d="M118.371 25.6641L118.785 26.0779L118.371 25.6641Z" fill="white"/>
<path d="M72.0156 26.0781L72.4295 26.492L72.0156 26.0781ZM119.199 26.0781L119.613 26.492L119.199 26.0781Z" fill="white"/>
<path d="M119.613 26.0781L120.027 26.492L119.613 26.0781Z" fill="white"/>
<path d="M120.028 26.0781L120.441 26.492L120.028 26.0781ZM1.24219 26.492V26.9059H24.4198L16.9699 26.492H1.24219Z" fill="white"/>
<path d="M24.4219 26.4922L24.8358 26.9061L24.4219 26.4922Z" fill="white"/>
<path d="M29.3867 26.4922L29.8006 26.9061L29.3867 26.4922Z" fill="white"/>
<path d="M29.3837 36.8372H29.7976V26.904H36.0059C28.1747 23.6181 29.3837 31.8127 29.3837 36.8372Z" fill="white"/>
<path d="M50.9102 26.4922L51.324 26.9061L50.9102 26.4922Z" fill="white"/>
<path d="M51.3242 26.4922V26.9061H57.5325L51.3242 26.4922Z" fill="white"/>
<path d="M63.7383 26.4922L64.1522 26.9061L63.7383 26.4922Z" fill="white"/>
<path d="M63.7373 45.528H64.1512V26.9031L71.6011 27.317C70.2618 26.3025 64.9272 25.5381 63.9869 27.4486C63.3035 28.8376 63.7373 31.186 63.7373 32.6975V45.528Z" fill="white"/>
<path d="M72.4297 26.4922L72.8436 26.9061L72.4297 26.4922Z" fill="white"/>
<path d="M72.8438 26.4922L73.2576 26.9061L72.8438 26.4922Z" fill="white"/>
<path d="M84.4336 26.4922L84.8475 26.9061L84.4336 26.4922Z" fill="white"/>
<path d="M84.8477 26.4922V26.9061H90.6421L84.8477 26.4922Z" fill="white"/>
<path d="M90.6417 26.4922V45.531H84.0195V45.9449L90.3921 45.5194L91.0556 40.9782L90.6417 26.4922ZM96.85 26.4922L97.2639 26.9061L96.85 26.4922Z" fill="white"/>
<path d="M97.2617 26.4911V26.9049H115.473C110.728 24.9141 102.427 26.4911 97.2617 26.4911Z" fill="white"/>
<path d="M115.477 26.4922V26.9061H116.718L115.477 26.4922Z" fill="white"/>
<path d="M116.992 26.63L117.268 26.7682L116.992 26.63ZM120.441 26.4922L120.855 26.9061L120.441 26.4922Z" fill="white"/>
<path d="M120.855 26.4922L121.269 26.9061L120.855 26.4922Z" fill="white"/>
<path d="M1.24219 26.9062V45.5311H7.45048V38.4951H23.5921V34.7701H7.45048V30.6312H24.4198V26.9062H1.24219Z" fill="white"/>
<path d="M24.4171 26.9062V30.6312H12.0005C10.751 30.6312 8.37076 30.2008 7.69778 31.5906C6.77316 33.5007 8.19197 34.6852 9.93319 34.7622C14.4665 34.9621 19.0511 34.7701 23.5894 34.7701V34.3562H7.86168V31.0451C12.0328 31.0451 20.14 32.6315 23.8716 30.7955C25.2474 30.1184 24.8865 28.0254 24.4171 26.9062Z" fill="white"/>
<path d="M29.8002 26.9062C29.8002 31.3464 28.5251 38.0253 31.373 41.7677C35.8794 47.6887 51.7524 47.3406 56.0766 41.3861C58.7342 37.7261 57.5306 31.1755 57.5306 26.9062H51.3223C51.3223 30.2115 52.3397 35.5801 50.5533 38.4889C48.0009 42.6443 39.0349 42.8918 36.554 38.4566C34.9573 35.6016 36.0085 30.1155 36.0085 26.9062H29.8002Z" fill="white"/>
<path d="M50.9102 26.9062V36.8395H51.324L50.9102 26.9062Z" fill="white"/>
<path d="M64.1523 26.9062V45.5311H69.9468V33.1145C73.8716 36.7294 79.356 43.5399 84.4328 45.2874C86.2779 45.9227 88.7091 45.5311 90.6411 45.5311V26.9062H84.8467V38.4951L71.118 27.1972L64.1523 26.9062Z" fill="white"/>
<path d="M73.2578 26.9062L73.6717 27.3201L73.2578 26.9062Z" fill="white"/>
<path d="M84.4334 26.9062L84.0195 38.4951C85.7959 36.9426 85.3253 29.0324 84.4334 26.9062ZM96.85 26.9062V45.5311H97.2639C97.2639 40.2574 98.8822 31.7491 96.85 26.9062Z" fill="white"/>
<path d="M117.957 26.9062L118.371 27.3201L117.957 26.9062Z" fill="white"/>
<path d="M118.371 26.9062L118.785 27.3201L118.371 26.9062Z" fill="white"/>
<path d="M118.785 26.9062L119.199 27.3201L118.785 26.9062Z" fill="white"/>
<path d="M121.684 26.9062L122.097 27.3201L121.684 26.9062Z" fill="white"/>
<path d="M72.0156 27.3203L72.8434 28.1481L72.0156 27.3203Z" fill="white"/>
<path d="M73.6719 27.3203L74.0858 27.7342L73.6719 27.3203Z" fill="white"/>
<path d="M119.613 27.3203L120.027 27.7342L119.613 27.3203Z" fill="white"/>
<path d="M120.027 27.3203L120.441 27.7342L120.027 27.3203ZM122.097 27.3203L122.511 27.7342L122.097 27.3203Z" fill="white"/>
<path d="M122.51 27.3203L122.924 27.7342L122.51 27.3203ZM72.0156 27.7342L72.4295 28.1481L72.0156 27.7342Z" fill="white"/>
<path d="M74.0859 27.7266L74.4998 28.1404L74.0859 27.7266Z" fill="white"/>
<path d="M120.441 27.7266L120.855 28.1404L120.441 27.7266Z" fill="white"/>
<path d="M120.855 27.7266L121.269 28.1404L120.855 27.7266Z" fill="white"/>
<path d="M122.926 27.7266L123.34 28.1404L122.926 27.7266Z" fill="white"/>
<path d="M72.8438 28.1406L73.2576 28.5545L72.8438 28.1406Z" fill="white"/>
<path d="M74.5 28.1406L74.9139 28.5545L74.5 28.1406Z" fill="white"/>
<path d="M121.27 28.1406L121.683 28.5545L121.27 28.1406Z" fill="white"/>
<path d="M121.684 28.1406L122.097 28.5545L121.684 28.1406Z" fill="white"/>
<path d="M123.338 28.1406L123.752 28.5545L123.338 28.1406ZM73.2578 28.5545L73.6717 28.9684L73.2578 28.5545Z" fill="white"/>
<path d="M74.9141 28.5547L75.3279 28.9686L74.9141 28.5547ZM122.097 28.5547L122.511 28.9686L122.097 28.5547Z" fill="white"/>
<path d="M123.752 28.5547L124.166 28.9686L123.752 28.5547ZM73.6719 28.9686L74.0858 29.3825L73.6719 28.9686Z" fill="white"/>
<path d="M75.3281 28.9688L75.742 29.3826L75.3281 28.9688Z" fill="white"/>
<path d="M122.512 28.9688L122.926 29.3826L122.512 28.9688ZM124.167 28.9688L124.581 29.3826L124.167 28.9688Z" fill="white"/>
<path d="M74.0859 29.3828L74.4998 29.7967L74.0859 29.3828Z" fill="white"/>
<path d="M75.7422 29.3828L76.1561 29.7967L75.7422 29.3828Z" fill="white"/>
<path d="M122.926 29.3828L123.34 29.7967L122.926 29.3828Z" fill="white"/>
<path d="M124.58 29.3828L124.994 29.7967L124.58 29.3828ZM74.5 29.7967L74.9139 30.2106L74.5 29.7967ZM76.5694 29.7967L76.9833 30.2106L76.5694 29.7967Z" fill="white"/>
<path d="M123.34 29.7969L123.754 30.2108L123.34 29.7969Z" fill="white"/>
<path d="M124.581 29.7969L124.994 30.2108L124.581 29.7969ZM75.3281 30.2108L75.742 30.6246L75.3281 30.2108Z" fill="white"/>
<path d="M76.9844 30.2109L77.3983 30.6248L76.9844 30.2109Z" fill="white"/>
<path d="M123.754 30.2109L124.168 30.6248L123.754 30.2109Z" fill="white"/>
<path d="M124.992 30.2109L125.406 30.6248L124.992 30.2109Z" fill="white"/>
<path d="M7.44922 30.625L7.86311 31.0389L7.44922 30.625Z" fill="white"/>
<path d="M24.4219 30.625L24.8358 31.0389L24.4219 30.625ZM75.7438 30.625L76.1577 31.0389L75.7438 30.625Z" fill="white"/>
<path d="M77.3945 30.625L77.8084 31.0389L77.3945 30.625Z" fill="white"/>
<path d="M114.234 30.625L114.648 31.0389L114.234 30.625Z" fill="white"/>
<path d="M114.926 30.7656L115.201 30.9039L114.926 30.7656Z" fill="white"/>
<path d="M123.754 30.625L124.168 31.0389L123.754 30.625Z" fill="white"/>
<path d="M76.1562 31.0391L76.5701 31.4529L76.1562 31.0391Z" fill="white"/>
<path d="M77.8125 31.0391L78.2264 31.4529L77.8125 31.0391Z" fill="white"/>
<path d="M115.887 31.0391L116.301 31.4529L115.887 31.0391Z" fill="white"/>
<path d="M116.305 31.0391L116.719 31.4529L116.305 31.0391Z" fill="white"/>
<path d="M124.168 31.0391L124.582 31.4529L124.168 31.0391Z" fill="white"/>
<path d="M125.409 31.0391L125.823 31.4529L125.409 31.0391ZM76.5703 31.4529L76.9842 31.8668L76.5703 31.4529Z" fill="white"/>
<path d="M78.2266 31.4531L78.6404 31.867L78.2266 31.4531Z" fill="white"/>
<path d="M112.578 31.4531V31.867H114.234L112.578 31.4531Z" fill="white"/>
<path d="M116.715 31.4531L117.129 31.867L116.715 31.4531Z" fill="white"/>
<path d="M124.168 31.4531L124.582 31.867L124.168 31.4531Z" fill="white"/>
<path d="M125.41 31.4531L125.824 31.867L125.41 31.4531Z" fill="white"/>
<path d="M8.69141 31.8672L9.10529 32.2811L8.69141 31.8672ZM76.9827 31.8672L77.3966 32.2811L76.9827 31.8672Z" fill="white"/>
<path d="M114.645 31.8672L115.058 32.2811L114.645 31.8672Z" fill="white"/>
<path d="M115.062 31.8672L115.476 32.2811L115.062 31.8672Z" fill="white"/>
<path d="M117.129 31.8672L117.543 32.2811L117.129 31.8672ZM124.579 31.8672L124.993 32.2811L124.579 31.8672Z" fill="white"/>
<path d="M125.819 31.8672L126.233 32.2811L125.819 31.8672ZM77.3945 32.2811L77.8084 32.695L77.3945 32.2811Z" fill="white"/>
<path d="M79.0547 32.2812L79.4686 32.6951L79.0547 32.2812Z" fill="white"/>
<path d="M115.887 32.2812L116.301 32.6951L115.887 32.2812Z" fill="white"/>
<path d="M117.543 32.2812L117.957 32.6951L117.543 32.2812Z" fill="white"/>
<path d="M124.582 32.2812L124.996 32.6951L124.582 32.2812ZM125.824 32.2812L126.238 32.6951L125.824 32.2812Z" fill="white"/>
<path d="M77.8125 32.6953L78.2264 33.1092L77.8125 32.6953ZM79.8819 32.6953L80.2958 33.1092L79.8819 32.6953ZM116.304 32.6953L116.718 33.1092L116.304 32.6953ZM117.959 32.6953L118.373 33.1092L117.959 32.6953ZM124.582 32.6953L124.996 33.1092L124.582 32.6953Z" fill="white"/>
<path d="M125.82 32.6953L126.234 33.1092L125.82 32.6953Z" fill="white"/>
<path d="M8.69141 33.1094L9.10529 33.5233L8.69141 33.1094Z" fill="white"/>
<path d="M69.9492 33.1094L70.3631 33.5233L69.9492 33.1094ZM78.2269 33.1094L78.6408 33.5233L78.2269 33.1094Z" fill="white"/>
<path d="M78.6367 33.1094L79.0506 33.5233L78.6367 33.1094Z" fill="white"/>
<path d="M80.2969 33.1094L80.7108 33.5233L80.2969 33.1094ZM116.719 33.1094L117.133 33.5233L116.719 33.1094Z" fill="white"/>
<path d="M117.957 33.1094L118.371 33.5233L117.957 33.1094Z" fill="white"/>
<path d="M24.832 33.5234V39.7317H25.2459L24.832 33.5234Z" fill="white"/>
<path d="M69.9492 33.5234V45.5261H70.3631L69.9492 33.5234Z" fill="white"/>
<path d="M70.3594 33.5234L70.7733 33.9373L70.3594 33.5234Z" fill="white"/>
<path d="M79.0547 33.5234L79.4686 33.9373L79.0547 33.5234Z" fill="white"/>
<path d="M80.707 33.5234L81.1209 33.9373L80.707 33.5234Z" fill="white"/>
<path d="M117.129 33.5234L117.543 33.9373L117.129 33.5234Z" fill="white"/>
<path d="M118.371 33.5234L118.785 33.9373L118.371 33.5234Z" fill="white"/>
<path d="M124.993 33.5234L125.406 33.9373L124.993 33.5234ZM70.7734 33.9373L71.1873 34.3512L70.7734 33.9373ZM79.4651 33.9373L79.8789 34.3512L79.4651 33.9373Z" fill="white"/>
<path d="M81.1211 33.9375L81.535 34.3514L81.1211 33.9375ZM117.129 33.9375L117.543 34.3514L117.129 33.9375ZM118.371 33.9375L118.785 34.3514L118.371 33.9375ZM124.993 33.9375V35.1792H125.407L124.993 33.9375Z" fill="white"/>
<path d="M126.235 33.9375V35.1792H126.649L126.235 33.9375ZM7.44922 34.3514L7.86311 34.7653L7.44922 34.3514Z" fill="white"/>
<path d="M23.5938 34.3516L24.0076 34.7654L23.5938 34.3516ZM71.1907 34.3516L71.6046 34.7654L71.1907 34.3516Z" fill="white"/>
<path d="M79.8789 34.3516L80.2928 34.7654L79.8789 34.3516Z" fill="white"/>
<path d="M81.5352 34.3516L81.949 34.7654L81.5352 34.3516Z" fill="white"/>
<path d="M117.129 34.3516L117.543 34.7654L117.129 34.3516Z" fill="white"/>
<path d="M118.508 34.625L118.646 34.9006L118.508 34.625Z" fill="white"/>
<path d="M23.5938 34.7656V38.4906H24.0076L23.5938 34.7656Z" fill="white"/>
<path d="M71.6016 34.7656L72.0154 35.1795L71.6016 34.7656Z" fill="white"/>
<path d="M72.0156 34.7656L72.4295 35.1795L72.0156 34.7656Z" fill="white"/>
<path d="M80.2969 34.7656L80.7108 35.1795L80.2969 34.7656Z" fill="white"/>
<path d="M81.9492 34.7656L82.3631 35.1795L81.9492 34.7656Z" fill="white"/>
<path d="M72.4297 35.1797L72.8436 35.5936L72.4297 35.1797Z" fill="white"/>
<path d="M80.707 35.1797L81.1209 35.5936L80.707 35.1797Z" fill="white"/>
<path d="M82.3633 35.1797L82.7772 35.5936L82.3633 35.1797Z" fill="white"/>
<path d="M124.992 35.1797V36.4213H125.406L124.992 35.1797Z" fill="white"/>
<path d="M126.234 35.1797V36.4213H126.648L126.234 35.1797Z" fill="white"/>
<path d="M71.1875 35.5938L71.6014 36.0076L71.1875 35.5938Z" fill="white"/>
<path d="M72.8438 35.5938L73.2576 36.0076L72.8438 35.5938ZM81.1215 35.5938L81.5354 36.0076L81.1215 35.5938Z" fill="white"/>
<path d="M82.7773 35.5938L83.1912 36.0076L82.7773 35.5938Z" fill="white"/>
<path d="M83.1914 35.5938L83.6053 36.0076L83.1914 35.5938Z" fill="white"/>
<path d="M117.543 35.5938V37.2493H117.957L117.543 35.5938ZM71.6016 36.0076L72.0154 36.4215L71.6016 36.0076Z" fill="white"/>
<path d="M73.2578 36.0078L73.6717 36.4217L73.2578 36.0078Z" fill="white"/>
<path d="M81.5352 36.0078L82.3629 36.8356L81.5352 36.0078Z" fill="white"/>
<path d="M81.9489 36.0078L82.3628 36.4217L81.9489 36.0078ZM72.0156 36.4217L72.4295 36.8356L72.0156 36.4217Z" fill="white"/>
<path d="M73.6719 36.4219L74.0858 36.8358L73.6719 36.4219Z" fill="white"/>
<path d="M82.3633 36.4219L82.7772 36.8358L82.3633 36.4219Z" fill="white"/>
<path d="M124.992 36.4219V37.6635H125.406L124.992 36.4219Z" fill="white"/>
<path d="M126.234 36.4219V37.6635H126.648L126.234 36.4219Z" fill="white"/>
<path d="M29.3867 36.8359V38.0776H29.8006L29.3867 36.8359Z" fill="white"/>
<path d="M36.1445 37.1094L36.2828 37.385L36.1445 37.1094Z" fill="white"/>
<path d="M49.8047 37.1094L49.9429 37.385L49.8047 37.1094Z" fill="white"/>
<path d="M51.0469 37.1094L51.1851 37.385L51.0469 37.1094Z" fill="white"/>
<path d="M72.4297 36.8359L72.8436 37.2498L72.4297 36.8359Z" fill="white"/>
<path d="M74.0859 36.8359L74.4998 37.2498L74.0859 36.8359ZM82.7776 36.8359L83.1914 37.2498L82.7776 36.8359Z" fill="white"/>
<path d="M28.2812 37.5234L28.4195 37.7991L28.2812 37.5234Z" fill="white"/>
<path d="M72.8438 37.25L73.2576 37.6639L72.8438 37.25Z" fill="white"/>
<path d="M74.5 37.25L74.9139 37.6639L74.5 37.25ZM83.1916 37.25L83.6055 37.6639L83.1916 37.25ZM118.372 37.25L118.786 37.6639L118.372 37.25Z" fill="white"/>
<path d="M36.0078 37.6641L36.4217 38.0779L36.0078 37.6641ZM37.2495 37.6641L37.6634 38.0779L37.2495 37.6641Z" fill="white"/>
<path d="M73.2578 37.6641L73.6717 38.0779L73.2578 37.6641Z" fill="white"/>
<path d="M74.9141 37.6641L75.3279 38.0779L74.9141 37.6641Z" fill="white"/>
<path d="M83.6055 37.6641L84.0194 38.0779L83.6055 37.6641Z" fill="white"/>
<path d="M117.129 37.6641L117.543 38.0779L117.129 37.6641Z" fill="white"/>
<path d="M118.371 37.6641L118.785 38.0779L118.371 37.6641Z" fill="white"/>
<path d="M125.132 37.9375L125.271 38.2131L125.132 37.9375ZM29.3867 38.0753L29.8006 38.4892L29.3867 38.0753Z" fill="white"/>
<path d="M36.0078 38.0781L36.4217 38.492L36.0078 38.0781Z" fill="white"/>
<path d="M49.2539 38.0781L49.6678 38.492L49.2539 38.0781Z" fill="white"/>
<path d="M50.4961 38.0781L50.91 38.492L50.4961 38.0781Z" fill="white"/>
<path d="M57.2539 38.3542L57.3921 38.6298L57.2539 38.3542ZM73.6715 38.0781L74.0854 38.492L73.6715 38.0781ZM75.741 38.0781L76.1549 38.492L75.741 38.0781Z" fill="white"/>
<path d="M117.129 38.0781L117.543 38.492L117.129 38.0781Z" fill="white"/>
<path d="M118.371 38.0781L118.785 38.492L118.371 38.0781ZM7.44922 38.492L7.86311 38.9059L7.44922 38.492Z" fill="white"/>
<path d="M7.86328 38.4926V38.9065H23.591C19.4372 37.1636 12.3792 38.4926 7.86328 38.4926Z" fill="white"/>
<path d="M23.5938 38.4922L24.0076 38.9061L23.5938 38.4922ZM36.4242 38.4922L36.8381 38.9061L36.4242 38.4922ZM37.6659 38.4922L38.0798 38.9061L37.6659 38.4922Z" fill="white"/>
<path d="M48.8398 38.4922L49.2537 38.9061L48.8398 38.4922ZM50.4954 38.4922L50.9093 38.9061L50.4954 38.4922Z" fill="white"/>
<path d="M58.3594 38.4922L58.7733 38.9061L58.3594 38.4922Z" fill="white"/>
<path d="M74.5 38.4922L75.3278 39.32L74.5 38.4922Z" fill="white"/>
<path d="M76.1562 38.4922L76.5701 38.9061L76.1562 38.4922ZM124.581 38.4922L124.995 38.9061L124.581 38.4922Z" fill="white"/>
<path d="M125.82 38.4922L126.234 38.9061L125.82 38.4922Z" fill="white"/>
<path d="M7.44922 38.9062V45.5284H7.86311L7.44922 38.9062Z" fill="white"/>
<path d="M28.5586 38.9062L28.9725 39.3201L28.5586 38.9062Z" fill="white"/>
<path d="M29.8008 38.9062L30.2147 39.3201L29.8008 38.9062Z" fill="white"/>
<path d="M36.8359 38.9062L37.2498 39.3201L36.8359 38.9062ZM38.0776 38.9062L38.4915 39.3201L38.0776 38.9062Z" fill="white"/>
<path d="M38.4922 38.9062L38.9061 39.3201L38.4922 38.9062Z" fill="white"/>
<path d="M48.4258 38.9062L48.8397 39.3201L48.4258 38.9062ZM50.0813 38.9062L50.4952 39.3201L50.0813 38.9062ZM57.1174 38.9062L57.5313 39.3201L57.1174 38.9062Z" fill="white"/>
<path d="M58.4961 39.1823L58.6343 39.458L58.4961 39.1823ZM74.4998 38.9062L74.9137 39.3201L74.4998 38.9062Z" fill="white"/>
<path d="M76.5703 38.9062L76.9842 39.3201L76.5703 38.9062Z" fill="white"/>
<path d="M116.301 38.9062L115.887 39.734L116.301 38.9062Z" fill="white"/>
<path d="M116.715 38.9062L117.129 39.3201L116.715 38.9062Z" fill="white"/>
<path d="M36.8359 39.3203L37.2498 39.7342L36.8359 39.3203Z" fill="white"/>
<path d="M38.9062 39.3203L39.3201 39.7342L38.9062 39.3203Z" fill="white"/>
<path d="M39.3203 39.3203L39.7342 39.7342L39.3203 39.3203ZM47.598 39.3203L48.0119 39.7342L47.598 39.3203Z" fill="white"/>
<path d="M48.0117 39.3203L48.4256 39.7342L48.0117 39.3203ZM49.6673 39.3203L50.0812 39.7342L49.6673 39.3203ZM57.1172 39.3203L57.5311 39.7342L57.1172 39.3203ZM75.3282 39.3203L75.7421 39.7342L75.3282 39.3203Z" fill="white"/>
<path d="M76.9844 39.3203L77.3983 39.7342L76.9844 39.3203Z" fill="white"/>
<path d="M116.305 39.3203L116.719 39.7342L116.305 39.3203ZM124.582 39.3203L124.996 39.7342L124.582 39.3203Z" fill="white"/>
<path d="M125.82 39.3203L126.234 39.7342L125.82 39.3203Z" fill="white"/>
<path d="M8.69141 39.7344L9.10529 40.1483L8.69141 39.7344Z" fill="white"/>
<path d="M9.10547 39.7371V40.151H25.247C20.9948 38.3667 13.7294 39.7371 9.10547 39.7371ZM28.5581 39.7371L28.972 40.151L28.5581 39.7371Z" fill="white"/>
<path d="M37.6641 39.7344L38.0779 40.1483L37.6641 39.7344ZM39.7335 39.7344L40.1474 40.1483L39.7335 39.7344Z" fill="white"/>
<path d="M40.1484 39.7344L40.5623 40.1483L40.1484 39.7344Z" fill="white"/>
<path d="M40.5625 39.7344L40.9764 40.1483L40.5625 39.7344ZM46.3569 39.7344L46.7708 40.1483L46.3569 39.7344Z" fill="white"/>
<path d="M46.7695 39.7344L47.1834 40.1483L46.7695 39.7344ZM49.2529 39.7344L49.6667 40.1483L49.2529 39.7344Z" fill="white"/>
<path d="M56.7031 39.7344L57.117 40.1483L56.7031 39.7344Z" fill="white"/>
<path d="M57.9453 39.7344L58.3592 40.1483L57.9453 39.7344Z" fill="white"/>
<path d="M75.7422 39.7344L76.1561 40.1483L75.7422 39.7344Z" fill="white"/>
<path d="M77.3945 39.7344L77.8084 40.1483L77.3945 39.7344Z" fill="white"/>
<path d="M115.062 39.7344L115.476 40.1483L115.062 39.7344Z" fill="white"/>
<path d="M115.477 39.7344L115.89 40.1483L115.477 39.7344Z" fill="white"/>
<path d="M117.544 39.7344L117.957 40.1483L117.544 39.7344ZM8.69141 40.1483V46.7704H9.10529L8.69141 40.1483Z" fill="white"/>
<path d="M28.9727 40.1484L29.3865 40.5623L28.9727 40.1484Z" fill="white"/>
<path d="M30.2148 40.1484L30.6287 40.5623L30.2148 40.1484Z" fill="white"/>
<path d="M38.0781 40.1484L38.492 40.5623L38.0781 40.1484Z" fill="white"/>
<path d="M41.668 40.2891L41.9436 40.4273L41.668 40.2891Z" fill="white"/>
<path d="M42.2188 40.1484V40.5623H45.116L42.2188 40.1484Z" fill="white"/>
<path d="M45.1133 40.1484L45.5272 40.5623L45.1133 40.1484ZM48.4244 40.1484L48.8383 40.5623L48.4244 40.1484Z" fill="white"/>
<path d="M48.8398 40.1484L49.2537 40.5623L48.8398 40.1484Z" fill="white"/>
<path d="M56.7031 40.1484L57.117 40.5623L56.7031 40.1484ZM57.9448 40.1484L58.3587 40.5623L57.9448 40.1484ZM76.1558 40.1484L76.5697 40.5623L76.1558 40.1484Z" fill="white"/>
<path d="M77.8125 40.1484L78.2264 40.5623L77.8125 40.1484Z" fill="white"/>
<path d="M104.715 40.1484V40.5623H113.406L104.715 40.1484Z" fill="white"/>
<path d="M113.684 40.2891L113.959 40.4273L113.684 40.2891Z" fill="white"/>
<path d="M114.234 40.1484L114.648 40.5623L114.234 40.1484ZM116.718 40.1484L117.132 40.5623L116.718 40.1484Z" fill="white"/>
<path d="M117.129 40.1484L117.543 40.5623L117.129 40.1484Z" fill="white"/>
<path d="M124.168 40.1484L124.582 40.5623L124.168 40.1484ZM125.41 40.1484L125.824 40.5623L125.41 40.1484Z" fill="white"/>
<path d="M28.9727 40.5625L29.3865 40.9764L28.9727 40.5625Z" fill="white"/>
<path d="M38.9062 40.5625L39.3201 40.9764L38.9062 40.5625Z" fill="white"/>
<path d="M39.3203 40.5625L39.7342 40.9764L39.3203 40.5625ZM47.598 40.5625L48.0119 40.9764L47.598 40.5625Z" fill="white"/>
<path d="M48.0117 40.5625L48.4256 40.9764L48.0117 40.5625ZM57.945 40.5625L58.3589 40.9764L57.945 40.5625ZM76.5699 40.5625L76.9838 40.9764L76.5699 40.5625Z" fill="white"/>
<path d="M78.2266 40.5625L78.6404 40.9764L78.2266 40.5625Z" fill="white"/>
<path d="M116.305 40.5625L116.719 40.9764L116.305 40.5625Z" fill="white"/>
<path d="M124.168 40.5625L124.582 40.9764L124.168 40.5625Z" fill="white"/>
<path d="M125.41 40.5625L125.824 40.9764L125.41 40.5625Z" fill="white"/>
<path d="M29.3867 40.9766L29.8006 41.3904L29.3867 40.9766Z" fill="white"/>
<path d="M30.6289 40.9766L31.0428 41.3904L30.6289 40.9766ZM40.4244 41.1144L40.7 41.2526L40.4244 41.1144Z" fill="white"/>
<path d="M40.9766 40.9766L41.3904 41.3904L40.9766 40.9766ZM45.9432 40.9766L46.3571 41.3904L45.9432 40.9766Z" fill="white"/>
<path d="M46.3555 40.9766L46.7694 41.3904L46.3555 40.9766Z" fill="white"/>
<path d="M46.7695 40.9766L47.1834 41.3904L46.7695 40.9766Z" fill="white"/>
<path d="M56.2891 40.9766L56.7029 41.3904L56.2891 40.9766Z" fill="white"/>
<path d="M57.5312 40.9766L57.9451 41.3904L57.5312 40.9766Z" fill="white"/>
<path d="M76.9844 40.9766L77.3983 41.3904L76.9844 40.9766ZM79.0538 40.9766L79.4677 41.3904L79.0538 40.9766Z" fill="white"/>
<path d="M115.062 40.9766L115.476 41.3904L115.062 40.9766Z" fill="white"/>
<path d="M115.477 40.9766L115.89 41.3904L115.477 40.9766Z" fill="white"/>
<path d="M123.754 40.9766L124.168 41.3904L123.754 40.9766Z" fill="white"/>
<path d="M124.992 40.9766L125.406 41.3904L124.992 40.9766Z" fill="white"/>
<path d="M29.3867 41.3906L29.8006 41.8045L29.3867 41.3906ZM31.0423 41.3906L31.4562 41.8045L31.0423 41.3906ZM42.6311 41.3906V41.8045H44.7005L42.6311 41.3906ZM55.8755 41.3906L56.2893 41.8045L55.8755 41.3906ZM57.531 41.3906L57.9449 41.8045L57.531 41.3906ZM77.3975 41.3906L77.8114 41.8045L77.3975 41.3906Z" fill="white"/>
<path d="M77.8125 41.3906L78.2264 41.8045L77.8125 41.3906Z" fill="white"/>
<path d="M79.4648 41.3906L79.8787 41.8045L79.4648 41.3906Z" fill="white"/>
<path d="M103.473 41.3906V41.8045H113.406L103.473 41.3906Z" fill="white"/>
<path d="M113.684 41.5285L113.959 41.6667L113.684 41.5285ZM124.996 41.3906L125.41 41.8045L124.996 41.3906Z" fill="white"/>
<path d="M29.8008 41.8047L30.2147 42.2186L29.8008 41.8047Z" fill="white"/>
<path d="M55.4609 41.8047L55.8748 42.2186L55.4609 41.8047Z" fill="white"/>
<path d="M57.1172 41.8047L57.5311 42.2186L57.1172 41.8047Z" fill="white"/>
<path d="M78.2266 41.8047L78.6404 42.2186L78.2266 41.8047Z" fill="white"/>
<path d="M79.8789 41.8047L80.2928 42.2186L79.8789 41.8047Z" fill="white"/>
<path d="M123.339 41.8047L123.753 42.2186L123.339 41.8047ZM124.581 41.8047L124.995 42.2186L124.581 41.8047ZM30.2148 42.2186L30.6287 42.6325L30.2148 42.2186ZM31.4565 42.2186L31.8704 42.6325L31.4565 42.2186Z" fill="white"/>
<path d="M55.0469 42.2188L55.4608 42.6326L55.0469 42.2188Z" fill="white"/>
<path d="M56.7031 42.2188L57.117 42.6326L56.7031 42.2188ZM78.6391 42.2188L79.053 42.6326L78.6391 42.2188Z" fill="white"/>
<path d="M80.2969 42.2188L80.7108 42.6326L80.2969 42.2188ZM122.927 42.2188L123.341 42.6326L122.927 42.2188Z" fill="white"/>
<path d="M124.581 42.2188L124.995 42.6326L124.581 42.2188ZM30.2148 42.6326L30.6287 43.0465L30.2148 42.6326Z" fill="white"/>
<path d="M31.8711 42.6328L32.285 43.0467L31.8711 42.6328Z" fill="white"/>
<path d="M54.6328 42.6328L55.0467 43.0467L54.6328 42.6328Z" fill="white"/>
<path d="M56.2891 42.6328L56.7029 43.0467L56.2891 42.6328ZM79.0528 42.6328L79.4667 43.0467L79.0528 42.6328ZM80.7084 42.6328L81.1222 43.0467L80.7084 42.6328Z" fill="white"/>
<path d="M122.512 42.6328L122.926 43.0467L122.512 42.6328Z" fill="white"/>
<path d="M124.167 42.6328L124.581 43.0467L124.167 42.6328ZM30.6289 43.0467L31.0428 43.4606L30.6289 43.0467ZM32.6983 43.0467L33.1122 43.4606L32.6983 43.0467Z" fill="white"/>
<path d="M54.2188 43.0469L54.6326 43.4608L54.2188 43.0469Z" fill="white"/>
<path d="M55.875 43.0469L56.2889 43.4608L55.875 43.0469Z" fill="white"/>
<path d="M79.4648 43.0469L79.8787 43.4608L79.4648 43.0469Z" fill="white"/>
<path d="M81.1211 43.0469L81.535 43.4608L81.1211 43.0469Z" fill="white"/>
<path d="M122.098 43.0469L122.512 43.4608L122.098 43.0469ZM123.753 43.0469L124.167 43.4608L123.753 43.0469Z" fill="white"/>
<path d="M31.043 43.4609L31.4569 43.8748L31.043 43.4609Z" fill="white"/>
<path d="M33.1094 43.4609L33.5233 43.8748L33.1094 43.4609Z" fill="white"/>
<path d="M53.3906 43.4609L53.8045 43.8748L53.3906 43.4609Z" fill="white"/>
<path d="M53.8047 43.4609L54.2186 43.8748L53.8047 43.4609ZM55.4602 43.4609L55.8741 43.8748L55.4602 43.4609Z" fill="white"/>
<path d="M79.8789 43.4609L80.2928 43.8748L79.8789 43.4609Z" fill="white"/>
<path d="M81.5352 43.4609L81.949 43.8748L81.5352 43.4609Z" fill="white"/>
<path d="M121.27 43.4609L121.683 43.8748L121.27 43.4609Z" fill="white"/>
<path d="M121.684 43.4609L122.097 43.8748L121.684 43.4609Z" fill="white"/>
<path d="M123.34 43.4609L123.754 43.8748L123.34 43.4609Z" fill="white"/>
<path d="M31.8711 43.875L32.285 44.2889L31.8711 43.875Z" fill="white"/>
<path d="M33.9414 43.875L34.3553 44.2889L33.9414 43.875Z" fill="white"/>
<path d="M52.5625 43.875L52.9764 44.2889L52.5625 43.875Z" fill="white"/>
<path d="M52.9766 43.875L53.3904 44.2889L52.9766 43.875Z" fill="white"/>
<path d="M55.0469 43.875L55.4608 44.2889L55.0469 43.875Z" fill="white"/>
<path d="M80.2969 43.875L80.7108 44.2889L80.2969 43.875Z" fill="white"/>
<path d="M81.9492 43.875L82.3631 44.2889L81.9492 43.875Z" fill="white"/>
<path d="M82.3633 43.875L82.7772 44.2889L82.3633 43.875Z" fill="white"/>
<path d="M120.857 43.875L121.271 44.2889L120.857 43.875ZM122.926 43.875L123.34 44.2889L122.926 43.875ZM32.2852 44.2889L32.699 44.7028L32.2852 44.2889ZM34.7685 44.2889L35.1824 44.7028L34.7685 44.2889Z" fill="white"/>
<path d="M35.1797 44.2891L35.5936 44.7029L35.1797 44.2891Z" fill="white"/>
<path d="M51.7344 44.2891L52.1483 44.7029L51.7344 44.2891Z" fill="white"/>
<path d="M52.1484 44.2891L52.5623 44.7029L52.1484 44.2891Z" fill="white"/>
<path d="M54.6328 44.2891L55.0467 44.7029L54.6328 44.2891ZM80.7077 44.2891L81.5354 45.1168L80.7077 44.2891Z" fill="white"/>
<path d="M81.1211 44.2891L81.535 44.7029L81.1211 44.2891Z" fill="white"/>
<path d="M82.7773 44.2891L83.1912 44.7029L82.7773 44.2891ZM119.613 44.2891L120.027 44.7029L119.613 44.2891Z" fill="white"/>
<path d="M120.027 44.2891L120.441 44.7029L120.027 44.2891Z" fill="white"/>
<path d="M122.513 44.2891L122.926 44.7029L122.513 44.2891ZM32.6992 44.7029L33.1131 45.1168L32.6992 44.7029Z" fill="white"/>
<path d="M33.1094 44.7031L33.5233 45.117L33.1094 44.7031ZM35.5927 44.7031L36.0066 45.117L35.5927 44.7031Z" fill="white"/>
<path d="M36.0078 44.7031L36.4217 45.117L36.0078 44.7031Z" fill="white"/>
<path d="M36.4219 44.7031L36.8358 45.117L36.4219 44.7031Z" fill="white"/>
<path d="M50.4961 44.7031L50.91 45.117L50.4961 44.7031Z" fill="white"/>
<path d="M50.9102 44.7031L51.324 45.117L50.9102 44.7031Z" fill="white"/>
<path d="M53.8047 44.7031L54.2186 45.117L53.8047 44.7031Z" fill="white"/>
<path d="M81.5352 44.7031L81.949 45.117L81.5352 44.7031Z" fill="white"/>
<path d="M83.1914 44.7031L83.6053 45.117L83.1914 44.7031ZM118.372 44.7031L118.786 45.117L118.372 44.7031Z" fill="white"/>
<path d="M118.785 44.7031L119.199 45.117L118.785 44.7031Z" fill="white"/>
<path d="M119.199 44.7031L119.613 45.117L119.199 44.7031Z" fill="white"/>
<path d="M121.684 44.7031L122.097 45.117L121.684 44.7031Z" fill="white"/>
<path d="M33.5234 45.1172L33.9373 45.5311L33.5234 45.1172Z" fill="white"/>
<path d="M33.9414 45.1172L34.3553 45.5311L33.9414 45.1172ZM37.2525 45.1172L37.6664 45.5311L37.2525 45.1172Z" fill="white"/>
<path d="M37.6641 45.1172L38.0779 45.5311L37.6641 45.1172Z" fill="white"/>
<path d="M38.0781 45.1172L38.492 45.5311L38.0781 45.1172ZM48.4253 45.1172L48.8392 45.5311L48.4253 45.1172Z" fill="white"/>
<path d="M49.1133 45.25L49.3889 45.3882L49.1133 45.25Z" fill="white"/>
<path d="M49.668 45.1172L50.0819 45.5311L49.668 45.1172Z" fill="white"/>
<path d="M52.9766 45.1172L53.3904 45.5311L52.9766 45.1172Z" fill="white"/>
<path d="M81.9492 45.1172L82.3631 45.5311L81.9492 45.1172Z" fill="white"/>
<path d="M83.6055 45.1172L84.0194 45.5311L83.6055 45.1172Z" fill="white"/>
<path d="M116.164 45.25L116.44 45.3882L116.164 45.25Z" fill="white"/>
<path d="M116.992 45.25L117.268 45.3882L116.992 45.25Z" fill="white"/>
<path d="M117.544 45.1172L117.958 45.5311L117.544 45.1172ZM120.855 45.1172L121.269 45.5311L120.855 45.1172ZM1.24219 45.5311V45.945H7.45048L1.24219 45.5311Z" fill="white"/>
<path d="M34.3516 45.5312L34.7654 45.9451L34.3516 45.5312Z" fill="white"/>
<path d="M34.7656 45.5312L35.1795 45.9451L34.7656 45.5312Z" fill="white"/>
<path d="M39.1836 45.6641L39.4592 45.8023L39.1836 45.6641Z" fill="white"/>
<path d="M39.7344 45.5312V45.9451H40.976L39.7344 45.5312Z" fill="white"/>
<path d="M40.9766 45.5312V45.9451H43.046L40.9766 45.5312ZM43.4599 45.5312V45.9451H45.9432L43.4599 45.5312Z" fill="white"/>
<path d="M46.2188 45.6641L46.4944 45.8023L46.2188 45.6641Z" fill="white"/>
<path d="M47.0469 45.6691L47.3225 45.8073L47.0469 45.6691ZM51.7375 45.5312L52.1513 45.9451L51.7375 45.5312Z" fill="white"/>
<path d="M52.1484 45.5312L52.5623 45.9451L52.1484 45.5312Z" fill="white"/>
<path d="M63.7383 45.5231V45.937H69.9466L63.7383 45.5231ZM82.3632 45.5231L82.7771 45.937L82.3632 45.5231ZM97.2631 45.5231V45.937H114.232C109.783 44.0699 102.104 45.5231 97.2631 45.5231ZM119.613 45.5231L120.027 45.937L119.613 45.5231Z" fill="white"/>
<path d="M120.027 45.5312L120.441 45.9451L120.027 45.5312Z" fill="white"/>
<path d="M35.5938 45.9375L36.0076 46.3514L35.5938 45.9375Z" fill="white"/>
<path d="M36.0078 45.9375L36.4217 46.3514L36.0078 45.9375Z" fill="white"/>
<path d="M36.4219 45.9375L36.8358 46.3514L36.4219 45.9375ZM50.0801 45.9375L50.494 46.3514L50.0801 45.9375Z" fill="white"/>
<path d="M50.4961 45.9375L50.91 46.3514L50.4961 45.9375Z" fill="white"/>
<path d="M50.9102 45.9375L51.324 46.3514L50.9102 45.9375Z" fill="white"/>
<path d="M82.7773 45.9375L83.1912 46.3514L82.7773 45.9375Z" fill="white"/>
<path d="M118.371 45.9375L118.785 46.3514L118.371 45.9375Z" fill="white"/>
<path d="M118.785 45.9375L119.199 46.3514L118.785 45.9375Z" fill="white"/>
<path d="M119.2 45.9375L119.613 46.3514L119.2 45.9375ZM37.25 46.3514L37.6639 46.7653L37.25 46.3514Z" fill="white"/>
<path d="M37.6641 46.3516L38.0779 46.7654L37.6641 46.3516Z" fill="white"/>
<path d="M38.3555 46.4894L38.6311 46.6276L38.3555 46.4894ZM48.0127 46.3516L48.4266 46.7654L48.0127 46.3516Z" fill="white"/>
<path d="M48.7031 46.4922L48.9788 46.6304L48.7031 46.4922Z" fill="white"/>
<path d="M49.2539 46.3516L49.6678 46.7654L49.2539 46.3516Z" fill="white"/>
<path d="M83.1914 46.3516L83.6053 46.7654L83.1914 46.3516Z" fill="white"/>
<path d="M114.234 46.3516V46.7654H116.304L114.234 46.3516Z" fill="white"/>
<path d="M116.305 46.3516L116.719 46.7654L116.305 46.3516Z" fill="white"/>
<path d="M116.991 46.4922L117.266 46.6304L116.991 46.4922ZM40.0078 46.9061L40.2835 47.0443L40.0078 46.9061Z" fill="white"/>
<path d="M40.5625 46.7656V47.1795H45.943L40.5625 46.7656Z" fill="white"/>
<path d="M45.9414 46.7656V47.1795H47.1831L45.9414 46.7656Z" fill="white"/>
<path d="M53.5 5L55.6651 11H51.3349L53.5 5Z" fill="black"/>
</svg>
