<svg width="203" height="38" viewBox="0 0 203 38" fill="none" xmlns="http://www.w3.org/2000/svg">
<g clip-path="url(#clip0_945_2108)">
<path d="M20.7107 0.00342309C22.6663 0.385308 24.6494 0.688418 26.4681 1.54466C33.0509 4.62714 36.9553 9.71836 37.851 16.9656C38.8682 25.2095 34.152 33.0407 26.7198 36.3869C25.2299 37.0582 23.6373 37.4144 22.0807 37.8443H15.7445C15.4739 37.7621 15.2067 37.673 14.931 37.5994C5.0945 35.2807 -1.14067 26.5264 0.174521 16.5084C1.10098 9.45978 5.0808 4.50727 11.5266 1.54124C13.3555 0.700407 15.3249 0.361335 17.2857 0L20.7107 0.00342309ZM30.0506 16.8183C30.012 16.7449 29.9661 16.6754 29.9136 16.6111L19.8835 6.81056C19.0273 5.97316 19.0273 5.96631 18.1556 6.72151C17.8748 6.96297 17.5957 7.20786 17.3285 7.46302C14.7883 9.88334 12.2544 12.3059 9.72678 14.7308C9.04178 15.3918 8.38076 16.0837 7.69919 16.7704C8.016 17.0427 8.31226 16.9416 8.58284 16.9502C9.78158 16.9622 10.9803 16.9879 12.1791 16.9502C12.948 16.9228 13.2357 17.1882 13.222 17.9777C13.1792 20.2296 13.2408 22.4832 13.1894 24.7335C13.1706 25.5554 13.4206 26.0178 14.1827 26.3826C17.0597 27.7663 19.9024 29.2219 22.7588 30.6484C23.776 31.1621 23.7863 31.1621 23.7863 29.9822C23.7863 26.0469 23.7863 22.1122 23.7863 18.1781C23.7863 16.9639 23.7863 16.9588 25.0433 16.9571C26.4389 16.9571 27.8363 16.9571 29.2337 16.9571C29.494 16.9468 29.7869 17.0478 30.0506 16.8183Z" fill="white"/>
<path d="M66.118 22.5922C64.1504 22.5922 62.1793 22.5922 60.2134 22.5922C59.3743 22.5922 59.2458 22.7549 59.513 23.5581C60.3041 25.9282 61.9926 27.2999 64.4278 27.6372C66.6934 27.9506 68.584 27.1868 69.9078 25.2398C70.5191 24.3458 71.2521 24.0684 72.2847 24.3064C72.7984 24.4246 72.6375 24.7209 72.5125 25.0137C71.6973 26.9403 70.3393 28.3719 68.4248 29.1887C65.3029 30.5194 62.3643 30.1221 59.8212 27.8479C57.2525 25.5446 56.3517 22.6145 57.3826 19.3128C58.369 16.1499 60.621 14.1754 63.9106 13.5846C68.5652 12.7574 73.1872 16.804 73.1409 21.5254C73.1324 22.3816 72.7984 22.6077 72.0193 22.5957C70.055 22.57 68.0857 22.5922 66.118 22.5922ZM65.0323 20.5218C66.714 20.5218 68.3956 20.5099 70.0773 20.5218C70.7623 20.5218 70.9335 20.3061 70.6938 19.6451C69.8376 17.2767 67.637 15.7526 65.0083 15.768C63.8028 15.7761 62.6293 16.1566 61.6483 16.8574C60.6673 17.5581 59.9269 18.5449 59.5284 19.6827C59.2955 20.3472 59.4821 20.539 60.162 20.5287C61.782 20.5013 63.4072 20.5236 65.0323 20.5218Z" fill="white"/>
<path d="M195.964 22.5878C193.967 22.5878 191.97 22.6101 189.97 22.5775C189.242 22.5656 189.078 22.8087 189.263 23.4937C189.841 25.6515 191.831 27.3177 194.306 27.6705C195.389 27.8311 196.496 27.6622 197.483 27.1858C198.469 26.7094 199.289 25.9475 199.837 24.999C200.19 24.4031 201.67 23.9869 202.235 24.3465C202.637 24.6 202.344 24.9202 202.235 25.1703C201.014 27.7578 198.981 29.3265 196.164 29.794C192.64 30.3694 189.314 28.5952 187.67 25.3638C186.069 22.2059 186.678 18.5429 189.194 15.9845C191.42 13.7188 194.083 12.9191 197.092 13.8696C200.175 14.8405 202.142 16.9777 202.834 20.2058C202.846 20.2623 202.86 20.3171 202.868 20.377C203.211 22.3977 203.04 22.6032 201.021 22.6032L195.964 22.5878ZM194.871 20.5174C196.554 20.5174 198.238 20.5089 199.921 20.5174C200.481 20.5174 200.704 20.3753 200.512 19.7605C199.799 17.4709 197.51 15.7961 194.989 15.767C192.386 15.7345 190.098 17.3185 189.314 19.6543C189.105 20.2743 189.177 20.5397 189.908 20.526C191.562 20.4952 193.217 20.5174 194.871 20.5174Z" fill="white"/>
<path d="M131.359 22.5873C129.36 22.5873 127.363 22.6044 125.365 22.5873C124.68 22.5873 124.498 22.8151 124.695 23.4573C125.434 25.8547 127.072 27.247 129.518 27.6203C131.783 27.9628 133.773 27.3326 135.008 25.3222C135.59 24.3734 136.268 24.245 137.195 24.2947C137.755 24.3289 137.897 24.5481 137.709 25.0619C137.318 26.0482 136.712 26.9347 135.934 27.6563C132.617 30.8295 127.622 30.6514 124.442 27.2761C123.704 26.5065 123.127 25.5979 122.744 24.6031C122.361 23.6083 122.179 22.5473 122.21 21.4817C122.241 20.4161 122.484 19.3674 122.924 18.3965C123.364 17.4255 123.993 16.5519 124.774 15.8264C127.352 13.3776 130.287 12.8741 133.534 14.2287C136.375 15.4137 138.388 18.539 138.385 21.5204C138.385 22.3561 138.065 22.613 137.27 22.5993C135.296 22.5633 133.326 22.5873 131.359 22.5873ZM130.273 20.5152C131.985 20.5152 133.698 20.5152 135.41 20.5152C135.94 20.5152 136.125 20.3577 135.962 19.7942C135.301 17.5286 132.972 15.8059 130.461 15.7648C127.826 15.722 125.483 17.3488 124.735 19.7035C124.545 20.2994 124.644 20.5358 125.314 20.5255C126.964 20.4981 128.619 20.5169 130.273 20.5152Z" fill="white"/>
<path d="M111.391 26.4326C112.34 24.0779 113.253 21.8088 114.17 19.5364C115.53 16.1799 116.892 12.824 118.255 9.46866C118.582 8.66379 119.82 8.19799 120.573 8.60043C121.005 8.83161 120.722 9.15699 120.62 9.41386C120.01 10.9551 119.38 12.4792 118.751 14.0085C116.76 18.8617 114.749 23.708 112.785 28.5646C112.489 29.2976 112.133 29.6435 111.295 29.6349C110.458 29.6264 110.096 29.3232 109.797 28.5749C107.255 22.2815 104.67 16.0087 102.101 9.72725C101.625 8.56789 101.647 8.59358 102.87 8.52851C103.726 8.47884 104.132 8.78709 104.444 9.57997C106.548 14.9109 108.699 20.2231 110.841 25.5386C110.958 25.8212 111.007 26.1432 111.391 26.4326Z" fill="white"/>
<path d="M165.443 19.0069C165.443 20.233 165.443 21.4592 165.443 22.687C165.443 25.5349 167.414 27.6755 170.051 27.7132C172.689 27.7508 174.744 25.6445 174.793 22.7983C174.838 20.1725 174.838 17.5467 174.793 14.9209C174.78 14.0646 175.101 13.8369 175.896 13.8523C176.636 13.866 177.095 13.9944 177.059 14.8798C176.958 17.9623 177.278 21.0447 176.888 24.1084C176.466 27.4614 173.504 29.9428 170.108 29.9308C166.647 29.9206 163.76 27.5128 163.344 24.1084C162.953 20.9317 163.229 17.7294 163.208 14.539C163.208 13.6331 163.981 13.9054 164.501 13.8643C165.022 13.8232 165.458 13.9174 165.446 14.6246C165.421 16.0785 165.446 17.5358 165.446 18.988L165.443 19.0069Z" fill="white"/>
<path d="M153.79 24.37C153.79 25.7399 153.79 27.1099 153.79 28.4799C153.79 29.5314 153.698 29.6153 152.679 29.617C151.66 29.6187 151.536 29.5211 151.535 28.5142C151.535 25.8033 151.548 23.0942 151.524 20.3833C151.506 18.1759 149.778 16.1911 147.611 15.8264C145.508 15.4736 143.33 16.7288 142.539 18.7684C142.263 19.5509 142.134 20.3777 142.159 21.207C142.159 23.6307 142.159 26.055 142.159 28.4799C142.159 29.5674 142.104 29.617 141.076 29.6187C140.049 29.6204 139.907 29.5314 139.926 28.5227C139.977 25.5584 139.739 22.5873 140.051 19.6298C140.241 17.9376 141.059 16.3784 142.343 15.2599C143.627 14.1414 145.284 13.5449 146.986 13.5881C150.706 13.6926 153.648 16.5285 153.776 20.1795C153.824 21.5752 153.776 22.9743 153.776 24.3734L153.79 24.37Z" fill="white"/>
<path d="M91.1726 24.8177C91.7378 24.7253 92.0803 24.9222 92.2464 25.674C92.5615 27.0833 94 27.943 95.3751 27.6947C96.817 27.4327 97.5688 26.3812 97.4198 24.8177C97.3205 23.7902 96.6903 23.16 95.7895 22.8004C94.9966 22.4836 94.1729 22.2439 93.3595 21.9784C91.5905 21.403 90.6195 20.1615 90.4483 18.3394C90.289 16.6269 90.9945 15.2706 92.4467 14.3561C93.9332 13.4177 95.5018 13.2636 97.0704 14.1524C98.175 14.7774 98.9936 15.6645 99.271 16.9625C99.4114 17.6219 99.271 17.99 98.4884 18.0037C97.7058 18.0174 97.0585 18.0294 96.8615 16.9917C96.716 16.233 95.6885 15.7415 94.8065 15.7929C94.3758 15.8072 93.96 15.9545 93.6163 16.2145C93.2726 16.4745 93.0178 16.8345 92.8868 17.2451C92.6248 18.1664 92.8868 19.0295 93.6078 19.5364C94.488 20.1546 95.5395 20.3687 96.5327 20.718C98.074 21.2643 99.2128 22.2096 99.6495 23.8536C100.287 26.2511 99.2111 28.4259 96.8427 29.5271C94.6969 30.5254 92.219 29.8233 90.7822 27.8146C90.4188 27.3006 90.1641 26.7179 90.0338 26.1021C89.7667 24.9376 89.866 24.8109 91.1726 24.8177Z" fill="white"/>
<path d="M47.2382 17.1395C47.2382 19.5644 47.2382 21.9893 47.2382 24.4142C47.2382 26.3322 48.2811 27.3648 50.2163 27.3802C51.9853 27.3939 53.7543 27.411 55.525 27.3802C56.2785 27.3648 56.5405 27.6525 56.5114 28.3837C56.4857 29.0499 56.5302 29.6527 55.5695 29.6287C53.5145 29.5756 51.4595 29.6886 49.4148 29.4831C46.7382 29.2074 45.0017 27.4008 44.9178 24.2566C44.7877 19.2904 44.8801 14.3242 44.8716 9.358C44.8716 8.40757 45.5429 8.56512 46.132 8.536C46.7776 8.50518 47.2502 8.6045 47.2434 9.42821C47.2211 11.9969 47.2348 14.5657 47.2348 17.1344L47.2382 17.1395Z" fill="white"/>
<path d="M85.7142 5.375C85.8598 5.47199 85.9994 5.57779 86.1321 5.69181C87.7304 7.23762 89.3287 8.78799 90.9271 10.3429C91.0623 10.4748 91.3072 10.5998 91.2302 10.8139C91.1325 11.0879 90.8363 10.9731 90.6257 10.9851C90.0845 11.0022 89.5399 11.0142 89.0005 10.9851C88.3994 10.9543 88.1973 11.2249 88.2042 11.8003C88.2213 13.5693 88.2162 15.3383 88.2042 17.109C88.2042 18.008 88.0706 18.0868 87.2692 17.6929C85.9882 17.0644 84.7244 16.4 83.4349 15.7921C82.8921 15.5352 82.6831 15.1704 82.702 14.583C82.7311 13.6429 82.702 12.6993 82.702 11.7592C82.7122 11.2214 82.4999 10.9663 81.9451 10.9885C81.4313 11.0091 80.9176 10.9885 80.4038 10.9885C80.2668 10.9885 80.099 11.0091 80.0254 10.8601C79.9517 10.7111 80.0836 10.5929 80.1812 10.5005C81.8937 8.87019 83.6136 7.2439 85.3409 5.6216C85.4574 5.52794 85.5824 5.44538 85.7142 5.375Z" fill="white"/>
<path d="M158.055 11.2256C158.055 11.8541 158.067 12.4808 158.055 13.1093C158.041 13.6487 158.281 13.8919 158.822 13.8833C159.507 13.8714 160.192 13.8833 160.877 13.8833C161.713 13.8833 161.624 14.4861 161.636 15.029C161.648 15.5719 161.608 16.0822 160.856 16.0719C160.201 16.0616 159.545 16.089 158.889 16.0719C158.324 16.0565 158.05 16.2706 158.053 16.8682C158.068 19.6356 158.034 22.403 158.079 25.1686C158.104 26.7441 159.081 27.7374 160.706 27.8812C161.471 27.9463 161.66 28.2922 161.644 28.9772C161.632 29.6006 161.389 29.8181 160.767 29.8215C157.693 29.8335 155.811 28.0302 155.801 24.9786C155.79 19.8719 155.79 14.7664 155.801 9.66207C155.801 9.29217 155.62 8.76986 156.127 8.61745C156.674 8.4394 157.265 8.45147 157.805 8.6517C158.077 8.75959 158.043 9.08153 158.046 9.33669C158.046 9.96518 158.046 10.5919 158.046 11.2204L158.055 11.2256Z" fill="white"/>
<path d="M74.8076 17.4693C74.8076 14.8475 74.8076 12.2257 74.8076 9.60214C74.8076 8.59691 74.8726 8.58835 75.9755 8.54211C76.7718 8.50786 77.1229 8.75617 77.0766 9.60214C77.0218 10.6536 77.1092 11.7119 77.0509 12.7634C77.003 13.6076 77.2684 13.9912 78.1555 13.9039C78.6915 13.8491 79.2378 13.9142 79.7789 13.8936C80.541 13.8628 80.666 14.3098 80.6523 14.9365C80.6386 15.5633 80.6694 16.1147 79.808 16.0925C79.1522 16.0736 78.4963 16.1045 77.8404 16.0925C77.3078 16.0822 77.0612 16.298 77.0629 16.8511C77.0766 19.5911 77.0287 22.3311 77.0903 25.0591C77.1314 26.7852 78.0664 27.7494 79.7789 27.9035C80.6677 27.984 80.6574 28.5046 80.6454 29.1433C80.6335 29.8814 80.1317 29.8283 79.6351 29.8283C76.6211 29.7615 74.8161 27.9309 74.8059 24.9118C74.8024 22.4235 74.8076 19.9439 74.8076 17.4693Z" fill="white"/>
<path d="M181.021 15.6138C182.006 14.6548 183.01 13.9818 184.265 13.7472C184.727 13.6616 185.258 13.5074 185.412 14.2318C185.63 15.2593 185.392 15.797 184.633 15.9443C182.621 16.3485 181.36 17.864 181.35 19.9361C181.335 22.7583 181.35 25.5873 181.35 28.4027C181.35 29.5346 181.268 29.6014 180.131 29.6014C179.037 29.6014 178.951 29.5226 178.949 28.4455C178.949 23.969 178.949 19.4932 178.949 15.0179C178.949 13.9989 179.826 13.4886 180.734 13.951C180.984 14.0777 181.021 14.2935 181.026 14.5161C181.026 14.8963 181.021 15.2508 181.021 15.6138Z" fill="white"/>
</g>
<defs>
<clipPath id="clip0_945_2108">
<rect width="203" height="37.846" fill="white"/>
</clipPath>
</defs>
</svg>
