<svg width="55" height="56" viewBox="0 0 55 56" fill="none" xmlns="http://www.w3.org/2000/svg">
<rect y="0.75" width="55" height="55" rx="27.5" fill="#E2E2E2"/>
<path d="M29.0443 26.706C28.2252 25.8872 27.1144 25.4273 25.9563 25.4273C24.7981 25.4273 23.6874 25.8872 22.8683 26.706L19.7793 29.794C18.9602 30.6131 18.5 31.7241 18.5 32.8825C18.5 34.0409 18.9602 35.1519 19.7793 35.971C20.5984 36.7901 21.7094 37.2503 22.8678 37.2503C24.0262 37.2503 25.1372 36.7901 25.9563 35.971L27.5003 34.427" stroke="black" stroke-width="2" stroke-linecap="round" stroke-linejoin="round"/>
<path d="M25.9561 29.794C26.7752 30.6128 27.8859 31.0727 29.0441 31.0727C30.2022 31.0727 31.3129 30.6128 32.1321 29.794L35.2211 26.706C36.0402 25.8869 36.5004 24.7759 36.5004 23.6175C36.5004 22.4591 36.0402 21.3481 35.2211 20.529C34.4019 19.7099 33.291 19.2497 32.1326 19.2497C30.9741 19.2497 29.8632 19.7099 29.0441 20.529L27.5001 22.073" stroke="black" stroke-width="2" stroke-linecap="round" stroke-linejoin="round"/>
</svg>
