<svg width="55" height="56" viewBox="0 0 55 56" fill="none" xmlns="http://www.w3.org/2000/svg">
<rect y="0.543945" width="55" height="55" rx="27.5" fill="#343538"/>
<path d="M25.0938 23.9189C25.0938 24.1229 25.0333 24.3223 24.92 24.4919C24.8066 24.6615 24.6456 24.7936 24.4571 24.8717C24.2687 24.9497 24.0614 24.9702 23.8613 24.9304C23.6613 24.8906 23.4775 24.7924 23.3333 24.6481C23.1891 24.5039 23.0909 24.3202 23.0511 24.1201C23.0113 23.9201 23.0317 23.7127 23.1097 23.5243C23.1878 23.3359 23.32 23.1748 23.4896 23.0615C23.6592 22.9482 23.8585 22.8877 24.0625 22.8877C24.336 22.8877 24.5983 22.9963 24.7917 23.1897C24.9851 23.3831 25.0938 23.6454 25.0938 23.9189ZM36.0938 20.8252V35.2627C36.0938 35.6274 35.9489 35.9771 35.691 36.235C35.4332 36.4928 35.0834 36.6377 34.7188 36.6377H20.2812C19.9166 36.6377 19.5668 36.4928 19.309 36.235C19.0511 35.9771 18.9062 35.6274 18.9062 35.2627V20.8252C18.9062 20.4605 19.0511 20.1108 19.309 19.8529C19.5668 19.5951 19.9166 19.4502 20.2812 19.4502H34.7188C35.0834 19.4502 35.4332 19.5951 35.691 19.8529C35.9489 20.1108 36.0938 20.4605 36.0938 20.8252ZM34.7188 35.2627V20.8252H20.2812V35.2627H34.7188ZM24.0625 25.9814C23.8802 25.9814 23.7053 26.0539 23.5764 26.1828C23.4474 26.3117 23.375 26.4866 23.375 26.6689V32.1689C23.375 32.3513 23.4474 32.5262 23.5764 32.6551C23.7053 32.784 23.8802 32.8564 24.0625 32.8564C24.2448 32.8564 24.4197 32.784 24.5486 32.6551C24.6776 32.5262 24.75 32.3513 24.75 32.1689V26.6689C24.75 26.4866 24.6776 26.3117 24.5486 26.1828C24.4197 26.0539 24.2448 25.9814 24.0625 25.9814ZM29.2188 25.9814C28.5998 25.9814 27.9951 26.167 27.4828 26.5143C27.4452 26.3493 27.3481 26.204 27.2101 26.1061C27.0721 26.0083 26.9028 25.9648 26.7347 25.9839C26.5666 26.0031 26.4114 26.0836 26.2989 26.2099C26.1865 26.3363 26.1245 26.4998 26.125 26.6689V32.1689C26.125 32.3513 26.1974 32.5262 26.3264 32.6551C26.4553 32.784 26.6302 32.8564 26.8125 32.8564C26.9948 32.8564 27.1697 32.784 27.2986 32.6551C27.4276 32.5262 27.5 32.3513 27.5 32.1689V29.0752C27.5 28.6194 27.6811 28.1822 28.0034 27.8599C28.3257 27.5375 28.7629 27.3564 29.2188 27.3564C29.6746 27.3564 30.1118 27.5375 30.4341 27.8599C30.7564 28.1822 30.9375 28.6194 30.9375 29.0752V32.1689C30.9375 32.3513 31.0099 32.5262 31.1389 32.6551C31.2678 32.784 31.4427 32.8564 31.625 32.8564C31.8073 32.8564 31.9822 32.784 32.1111 32.6551C32.2401 32.5262 32.3125 32.3513 32.3125 32.1689V29.0752C32.3125 28.2547 31.9866 27.4678 31.4064 26.8876C30.8262 26.3074 30.0393 25.9814 29.2188 25.9814Z" fill="white"/>
</svg>
