<svg width="55" height="55" viewBox="0 0 55 55" fill="none" xmlns="http://www.w3.org/2000/svg">
<rect width="55" height="55" rx="27.5" fill="#E2E2E2"/>
<path d="M25.0938 23.375C25.0938 23.579 25.0333 23.7783 24.92 23.9479C24.8066 24.1175 24.6456 24.2497 24.4571 24.3278C24.2687 24.4058 24.0614 24.4262 23.8613 24.3864C23.6613 24.3466 23.4775 24.2484 23.3333 24.1042C23.1891 23.96 23.0909 23.7762 23.0511 23.5762C23.0113 23.3761 23.0317 23.1688 23.1097 22.9804C23.1878 22.7919 23.32 22.6309 23.4896 22.5175C23.6592 22.4042 23.8585 22.3438 24.0625 22.3438C24.336 22.3438 24.5983 22.4524 24.7917 22.6458C24.9851 22.8392 25.0938 23.1015 25.0938 23.375ZM36.0938 20.2812V34.7188C36.0938 35.0834 35.9489 35.4332 35.691 35.691C35.4332 35.9489 35.0834 36.0938 34.7188 36.0938H20.2812C19.9166 36.0938 19.5668 35.9489 19.309 35.691C19.0511 35.4332 18.9062 35.0834 18.9062 34.7188V20.2812C18.9062 19.9166 19.0511 19.5668 19.309 19.309C19.5668 19.0511 19.9166 18.9062 20.2812 18.9062H34.7188C35.0834 18.9062 35.4332 19.0511 35.691 19.309C35.9489 19.5668 36.0938 19.9166 36.0938 20.2812ZM34.7188 34.7188V20.2812H20.2812V34.7188H34.7188ZM24.0625 25.4375C23.8802 25.4375 23.7053 25.5099 23.5764 25.6389C23.4474 25.7678 23.375 25.9427 23.375 26.125V31.625C23.375 31.8073 23.4474 31.9822 23.5764 32.1111C23.7053 32.2401 23.8802 32.3125 24.0625 32.3125C24.2448 32.3125 24.4197 32.2401 24.5486 32.1111C24.6776 31.9822 24.75 31.8073 24.75 31.625V26.125C24.75 25.9427 24.6776 25.7678 24.5486 25.6389C24.4197 25.5099 24.2448 25.4375 24.0625 25.4375ZM29.2188 25.4375C28.5998 25.4375 27.9951 25.6231 27.4828 25.9703C27.4452 25.8053 27.3481 25.66 27.2101 25.5622C27.0721 25.4643 26.9028 25.4208 26.7347 25.44C26.5666 25.4591 26.4114 25.5396 26.2989 25.666C26.1865 25.7924 26.1245 25.9558 26.125 26.125V31.625C26.125 31.8073 26.1974 31.9822 26.3264 32.1111C26.4553 32.2401 26.6302 32.3125 26.8125 32.3125C26.9948 32.3125 27.1697 32.2401 27.2986 32.1111C27.4276 31.9822 27.5 31.8073 27.5 31.625V28.5312C27.5 28.0754 27.6811 27.6382 28.0034 27.3159C28.3257 26.9936 28.7629 26.8125 29.2188 26.8125C29.6746 26.8125 30.1118 26.9936 30.4341 27.3159C30.7564 27.6382 30.9375 28.0754 30.9375 28.5312V31.625C30.9375 31.8073 31.0099 31.9822 31.1389 32.1111C31.2678 32.2401 31.4427 32.3125 31.625 32.3125C31.8073 32.3125 31.9822 32.2401 32.1111 32.1111C32.2401 31.9822 32.3125 31.8073 32.3125 31.625V28.5312C32.3125 27.7107 31.9866 26.9238 31.4064 26.3436C30.8262 25.7634 30.0393 25.4375 29.2188 25.4375Z" fill="black"/>
</svg>
