<svg width="55" height="56" viewBox="0 0 55 56" fill="none" xmlns="http://www.w3.org/2000/svg">
<rect y="0.543945" width="55" height="55" rx="27.5" fill="#343538"/>
<g clip-path="url(#clip0_350_192)">
<path d="M36.6666 20.1777C36.6666 20.1777 34.985 21.2207 34.05 21.5165C33.5481 20.9106 32.8811 20.4811 32.1392 20.2862C31.3973 20.0913 30.6162 20.1403 29.9017 20.4266C29.1872 20.713 28.5737 21.2228 28.1441 21.8872C27.7146 22.5516 27.4897 23.3385 27.5 24.1415V25.0165C26.0355 25.0564 24.5844 24.7153 23.2758 24.0238C21.9673 23.3322 20.8419 22.3116 20 21.0527C20 21.0527 16.6666 28.9277 24.1666 32.4277C22.4504 33.651 20.4059 34.2643 18.3333 34.1777C25.8333 38.5527 35 34.1777 35 24.1152C35 23.872 34.9766 23.6287 34.9333 23.389C35.7833 22.5087 36.6666 20.1777 36.6666 20.1777Z" stroke="white" stroke-width="1.5" stroke-linecap="round" stroke-linejoin="round"/>
</g>
<defs>
<clipPath id="clip0_350_192">
<rect width="20" height="21" fill="white" transform="translate(17.5 17.5439)"/>
</clipPath>
</defs>
</svg>
