<svg width="55" height="55" viewBox="0 0 55 55" fill="none" xmlns="http://www.w3.org/2000/svg">
<rect width="55" height="55" rx="27.5" fill="#E2E2E2"/>
<g clip-path="url(#clip0_643_3244)">
<path d="M36.6663 19.6337C36.6663 19.6337 34.9847 20.6767 34.0497 20.9725C33.5478 20.3666 32.8808 19.9371 32.1389 19.7422C31.397 19.5473 30.6159 19.5963 29.9014 19.8826C29.1869 20.169 28.5734 20.6788 28.1438 21.3432C27.7143 22.0076 27.4894 22.7945 27.4997 23.5975V24.4725C26.0352 24.5124 24.5841 24.1713 23.2755 23.4798C21.967 22.7882 20.8416 21.7675 19.9997 20.5087C19.9997 20.5087 16.6663 28.3837 24.1663 31.8837C22.4501 33.107 20.4056 33.7203 18.333 33.6337C25.833 38.0087 34.9997 33.6337 34.9997 23.5712C34.9997 23.328 34.9763 23.0847 34.933 22.845C35.783 21.9647 36.6663 19.6337 36.6663 19.6337Z" stroke="black" stroke-width="1.5" stroke-linecap="round" stroke-linejoin="round"/>
</g>
<defs>
<clipPath id="clip0_643_3244">
<rect width="20" height="21" fill="white" transform="translate(17.5 17)"/>
</clipPath>
</defs>
</svg>
