<svg width="55" height="56" viewBox="0 0 55 56" fill="none" xmlns="http://www.w3.org/2000/svg">
<rect y="0.543945" width="55" height="55" rx="27.5" fill="#343538"/>
<path d="M27.4991 23.999C26.4261 23.999 25.3969 24.4253 24.6382 25.1841C23.8794 25.9428 23.4531 26.972 23.4531 28.045C23.4531 29.1181 23.8794 30.1472 24.6382 30.906C25.3969 31.6648 26.4261 32.091 27.4991 32.091C28.5722 32.091 29.6013 31.6648 30.3601 30.906C31.1189 30.1472 31.5451 29.1181 31.5451 28.045C31.5451 26.972 31.1189 25.9428 30.3601 25.1841C29.6013 24.4253 28.5722 23.999 27.4991 23.999V23.999ZM27.4991 30.6726C26.802 30.6726 26.1334 30.3957 25.6405 29.9028C25.1476 29.4098 24.8706 28.7413 24.8706 28.0441C24.8706 27.347 25.1476 26.6785 25.6405 26.1855C26.1334 25.6926 26.802 25.4156 27.4991 25.4156C28.1962 25.4156 28.8648 25.6926 29.3578 26.1855C29.8507 26.6785 30.1276 27.347 30.1276 28.0441C30.1276 28.7413 29.8507 29.4098 29.3578 29.9028C28.8648 30.3957 28.1962 30.6726 27.4991 30.6726V30.6726Z" fill="white"/>
<path d="M31.7053 24.7932C32.2262 24.7932 32.6485 24.3709 32.6485 23.85C32.6485 23.329 32.2262 22.9067 31.7053 22.9067C31.1843 22.9067 30.762 23.329 30.762 23.85C30.762 24.3709 31.1843 24.7932 31.7053 24.7932Z" fill="white"/>
<path d="M34.9664 22.8911C34.7638 22.368 34.4543 21.893 34.0576 21.4964C33.6608 21.0998 33.1857 20.7905 32.6625 20.5881C32.0503 20.3583 31.4036 20.234 30.7498 20.2206C29.9071 20.1838 29.6403 20.1733 27.5035 20.1733C25.3668 20.1733 25.0929 20.1733 24.2573 20.2206C23.604 20.2333 22.9577 20.3576 22.3463 20.5881C21.823 20.7902 21.3477 21.0995 20.9509 21.4961C20.5542 21.8927 20.2447 22.3679 20.0424 22.8911C19.8125 23.5033 19.6886 24.1501 19.6758 24.8038C19.6381 25.6456 19.6268 25.9125 19.6268 28.0501C19.6268 30.1868 19.6268 30.459 19.6758 31.2963C19.6889 31.9508 19.8123 32.5966 20.0424 33.21C20.2453 33.733 20.5551 34.208 20.9519 34.6045C21.3487 35.0011 21.824 35.3105 22.3471 35.513C22.9574 35.752 23.604 35.8852 24.259 35.9067C25.1016 35.9435 25.3685 35.9548 27.5053 35.9548C29.642 35.9548 29.9159 35.9548 30.7515 35.9067C31.4052 35.8934 32.052 35.7695 32.6643 35.5401C33.1873 35.3373 33.6623 35.0276 34.059 34.6309C34.4557 34.2343 34.7653 33.7592 34.9681 33.2362C35.1983 32.6237 35.3216 31.978 35.3348 31.3235C35.3724 30.4817 35.3838 30.2148 35.3838 28.0772C35.3838 25.9396 35.3838 25.6683 35.3348 24.831C35.3246 24.168 35.2 23.5117 34.9664 22.8911V22.8911ZM33.9006 31.2316C33.895 31.7359 33.803 32.2354 33.6285 32.7086C33.4971 33.0488 33.296 33.3578 33.038 33.6157C32.78 33.8735 32.4709 34.0745 32.1305 34.2057C31.6626 34.3794 31.1683 34.4714 30.6693 34.4778C29.838 34.5163 29.6035 34.526 27.472 34.526C25.3388 34.526 25.1209 34.526 24.2739 34.4778C23.7751 34.4717 23.2811 34.3797 22.8135 34.2057C22.472 34.0753 22.1616 33.8747 21.9025 33.6168C21.6435 33.3589 21.4414 33.0495 21.3094 32.7086C21.1374 32.2405 21.0454 31.7468 21.0373 31.2482C20.9996 30.417 20.9909 30.1825 20.9909 28.051C20.9909 25.9186 20.9909 25.7007 21.0373 24.8528C21.0429 24.3489 21.135 23.8496 21.3094 23.3767C21.5763 22.6863 22.1231 22.143 22.8135 21.8787C23.2813 21.7056 23.7752 21.6136 24.2739 21.6066C25.106 21.569 25.3396 21.5585 27.472 21.5585C29.6044 21.5585 29.8231 21.5585 30.6693 21.6066C31.1684 21.6126 31.6627 21.7047 32.1305 21.8787C32.4708 22.0102 32.7799 22.2114 33.0379 22.4694C33.2958 22.7273 33.497 23.0364 33.6285 23.3767C33.8005 23.8448 33.8925 24.3385 33.9006 24.8371C33.9383 25.6692 33.9479 25.9028 33.9479 28.0352C33.9479 30.1667 33.9479 30.396 33.9103 31.2325H33.9006V31.2316Z" fill="white"/>
</svg>
