<svg width="55" height="56" viewBox="0 0 55 56" fill="none" xmlns="http://www.w3.org/2000/svg">
<rect y="0.543945" width="55" height="55" rx="27.5" fill="#343538"/>
<path d="M31.6667 34.7108H23.3334C20.8334 34.7108 19.1667 33.0441 19.1667 30.5441V25.5441C19.1667 23.0441 20.8334 21.3774 23.3334 21.3774H31.6667C34.1667 21.3774 35.8334 23.0441 35.8334 25.5441V30.5441C35.8334 33.0441 34.1667 34.7108 31.6667 34.7108Z" stroke="white" stroke-miterlimit="10" stroke-linecap="round" stroke-linejoin="round"/>
<path d="M27 25.9607L29.0833 27.2107C29.8333 27.7107 29.8333 28.4607 29.0833 28.9607L27 30.2107C26.1667 30.7107 25.5 30.294 25.5 29.3774V26.8774C25.5 25.794 26.1667 25.4607 27 25.9607Z" stroke="white" stroke-miterlimit="10" stroke-linecap="round" stroke-linejoin="round"/>
</svg>
